<svg xmlns="http://www.w3.org/2000/svg" xmlns:xlink="http://www.w3.org/1999/xlink" contentStyleType="text/css" height="1336px" preserveAspectRatio="none" style="width:1252px;height:1336px;background:#FFFFFF;" version="1.1" viewBox="0 0 1252 1336" width="1252px" zoomAndPan="magnify">
  <defs>
    <style type="text/css">a:hover { text-decoration: underline; }</style>
  </defs>
  <g>
    <rect fill="#FFFFFF" height="233.4609" style="stroke:#181818;stroke-width:1.0;" width="10" x="213.5" y="114.9609"/>
    <rect fill="#FFFFFF" height="1098.7266" style="stroke:#181818;stroke-width:1.0;" width="10" x="870.5" y="145.3125"/>
    <rect fill="#FFFFFF" height="30.3516" style="stroke:#181818;stroke-width:1.0;" width="10" x="1012" y="394.6094"/>
    <rect fill="#FFFFFF" height="30.3516" style="stroke:#181818;stroke-width:1.0;" width="10" x="1012" y="1109.9844"/>
    <rect fill="none" height="1016.0234" style="stroke:#000000;stroke-width:1.5;" width="1235" x="10" y="221.0156"/>
    <rect fill="none" height="759.7266" style="stroke:#000000;stroke-width:1.5;" width="1215" x="20" y="470.3125"/>
    <rect fill="none" height="594.4844" style="stroke:#000000;stroke-width:1.5;" width="1195" x="30" y="628.5547"/>
    <rect fill="none" height="442.2422" style="stroke:#000000;stroke-width:1.5;" width="1175" x="40" y="773.7969"/>
    <rect fill="none" height="229.2969" style="stroke:#000000;stroke-width:1.5;" width="1056" x="50" y="979.7422"/>
    <line style="stroke:#181818;stroke-width:0.5;stroke-dasharray:5.0,5.0;" x1="77" x2="77" y1="82.6094" y2="1254.0391"/>
    <line style="stroke:#181818;stroke-width:0.5;stroke-dasharray:5.0,5.0;" x1="218" x2="218" y1="82.6094" y2="1254.0391"/>
    <line style="stroke:#181818;stroke-width:0.5;stroke-dasharray:5.0,5.0;" x1="693" x2="693" y1="82.6094" y2="1254.0391"/>
    <line style="stroke:#181818;stroke-width:0.5;stroke-dasharray:5.0,5.0;" x1="782" x2="782" y1="82.6094" y2="1254.0391"/>
    <line style="stroke:#181818;stroke-width:0.5;stroke-dasharray:5.0,5.0;" x1="875" x2="875" y1="82.6094" y2="1254.0391"/>
    <line style="stroke:#181818;stroke-width:0.5;stroke-dasharray:5.0,5.0;" x1="1017" x2="1017" y1="82.6094" y2="1254.0391"/>
    <line style="stroke:#181818;stroke-width:0.5;stroke-dasharray:5.0,5.0;" x1="1155" x2="1155" y1="82.6094" y2="1254.0391"/>
    <text fill="#000000" font-family="sans-serif" font-size="14" lengthAdjust="spacing" textLength="29" x="60" y="79.5332">User</text>
    <ellipse cx="77.5" cy="13.5" fill="#E2E2F0" rx="8" ry="8" style="stroke:#181818;stroke-width:0.5;"/>
    <path d="M77.5,21.5 L77.5,48.5 M64.5,29.5 L90.5,29.5 M77.5,48.5 L64.5,63.5 M77.5,48.5 L90.5,63.5 " fill="none" style="stroke:#181818;stroke-width:0.5;"/>
    <text fill="#000000" font-family="sans-serif" font-size="14" lengthAdjust="spacing" textLength="29" x="60" y="1267.5723">User</text>
    <ellipse cx="77.5" cy="1279.1484" fill="#E2E2F0" rx="8" ry="8" style="stroke:#181818;stroke-width:0.5;"/>
    <path d="M77.5,1287.1484 L77.5,1314.1484 M64.5,1295.1484 L90.5,1295.1484 M77.5,1314.1484 L64.5,1329.1484 M77.5,1314.1484 L90.5,1329.1484 " fill="none" style="stroke:#181818;stroke-width:0.5;"/>
    <rect fill="#E2E2F0" height="31.6094" rx="2.5" ry="2.5" style="stroke:#181818;stroke-width:0.5;" width="165" x="136" y="50"/>
    <text fill="#000000" font-family="sans-serif" font-size="14" lengthAdjust="spacing" textLength="151" x="143" y="71.5332">CreateNewUserRequest</text>
    <rect fill="#E2E2F0" height="31.6094" rx="2.5" ry="2.5" style="stroke:#181818;stroke-width:0.5;" width="165" x="136" y="1253.0391"/>
    <text fill="#000000" font-family="sans-serif" font-size="14" lengthAdjust="spacing" textLength="151" x="143" y="1274.5723">CreateNewUserRequest</text>
    <rect fill="#E2E2F0" height="31.6094" rx="2.5" ry="2.5" style="stroke:#181818;stroke-width:0.5;" width="95" x="646" y="50"/>
    <text fill="#000000" font-family="sans-serif" font-size="14" lengthAdjust="spacing" textLength="81" x="653" y="71.5332">QJsonObject</text>
    <rect fill="#E2E2F0" height="31.6094" rx="2.5" ry="2.5" style="stroke:#181818;stroke-width:0.5;" width="95" x="646" y="1253.0391"/>
    <text fill="#000000" font-family="sans-serif" font-size="14" lengthAdjust="spacing" textLength="81" x="653" y="1274.5723">QJsonObject</text>
    <rect fill="#E2E2F0" height="31.6094" rx="2.5" ry="2.5" style="stroke:#181818;stroke-width:0.5;" width="62" x="751" y="50"/>
    <text fill="#000000" font-family="sans-serif" font-size="14" lengthAdjust="spacing" textLength="48" x="758" y="71.5332">QMutex</text>
    <rect fill="#E2E2F0" height="31.6094" rx="2.5" ry="2.5" style="stroke:#181818;stroke-width:0.5;" width="62" x="751" y="1253.0391"/>
    <text fill="#000000" font-family="sans-serif" font-size="14" lengthAdjust="spacing" textLength="48" x="758" y="1274.5723">QMutex</text>
    <rect fill="#E2E2F0" height="31.6094" rx="2.5" ry="2.5" style="stroke:#181818;stroke-width:0.5;" width="105" x="823" y="50"/>
    <text fill="#000000" font-family="sans-serif" font-size="14" lengthAdjust="spacing" textLength="91" x="830" y="71.5332">QMutexLocker</text>
    <rect fill="#E2E2F0" height="31.6094" rx="2.5" ry="2.5" style="stroke:#181818;stroke-width:0.5;" width="105" x="823" y="1253.0391"/>
    <text fill="#000000" font-family="sans-serif" font-size="14" lengthAdjust="spacing" textLength="91" x="830" y="1274.5723">QMutexLocker</text>
    <rect fill="#E2E2F0" height="31.6094" rx="2.5" ry="2.5" style="stroke:#181818;stroke-width:0.5;" width="158" x="938" y="50"/>
    <text fill="#000000" font-family="sans-serif" font-size="14" lengthAdjust="spacing" textLength="144" x="945" y="71.5332">DB::DatabaseManager</text>
    <rect fill="#E2E2F0" height="31.6094" rx="2.5" ry="2.5" style="stroke:#181818;stroke-width:0.5;" width="158" x="938" y="1253.0391"/>
    <text fill="#000000" font-family="sans-serif" font-size="14" lengthAdjust="spacing" textLength="144" x="945" y="1274.5723">DB::DatabaseManager</text>
    <rect fill="#E2E2F0" height="31.6094" rx="2.5" ry="2.5" style="stroke:#181818;stroke-width:0.5;" width="99" x="1106" y="50"/>
    <text fill="#000000" font-family="sans-serif" font-size="14" lengthAdjust="spacing" textLength="85" x="1113" y="71.5332">DB::DbResult</text>
    <rect fill="#E2E2F0" height="31.6094" rx="2.5" ry="2.5" style="stroke:#181818;stroke-width:0.5;" width="99" x="1106" y="1253.0391"/>
    <text fill="#000000" font-family="sans-serif" font-size="14" lengthAdjust="spacing" textLength="85" x="1113" y="1274.5723">DB::DbResult</text>
    <rect fill="#FFFFFF" height="233.4609" style="stroke:#181818;stroke-width:1.0;" width="10" x="213.5" y="114.9609"/>
    <rect fill="#FFFFFF" height="1098.7266" style="stroke:#181818;stroke-width:1.0;" width="10" x="870.5" y="145.3125"/>
    <rect fill="#FFFFFF" height="30.3516" style="stroke:#181818;stroke-width:1.0;" width="10" x="1012" y="394.6094"/>
    <rect fill="#FFFFFF" height="30.3516" style="stroke:#181818;stroke-width:1.0;" width="10" x="1012" y="1109.9844"/>
    <polygon fill="#181818" points="201.5,110.9609,211.5,114.9609,201.5,118.9609,205.5,114.9609" style="stroke:#181818;stroke-width:1.0;"/>
    <line style="stroke:#181818;stroke-width:1.0;" x1="77.5" x2="207.5" y1="114.9609" y2="114.9609"/>
    <text fill="#000000" font-family="sans-serif" font-size="13" lengthAdjust="spacing" textLength="117" x="84.5" y="110.1045">execute(jsonObj, m)</text>
    <polygon fill="#181818" points="858.5,141.3125,868.5,145.3125,858.5,149.3125,862.5,145.3125" style="stroke:#181818;stroke-width:1.0;"/>
    <line style="stroke:#181818;stroke-width:1.0;" x1="223.5" x2="864.5" y1="145.3125" y2="145.3125"/>
    <text fill="#000000" font-family="sans-serif" font-size="13" lengthAdjust="spacing" textLength="113" x="230.5" y="140.4561">QMutexLocker(&amp;m)</text>
    <polygon fill="#181818" points="681.5,171.6641,691.5,175.6641,681.5,179.6641,685.5,175.6641" style="stroke:#181818;stroke-width:1.0;"/>
    <line style="stroke:#181818;stroke-width:1.0;" x1="223.5" x2="687.5" y1="175.6641" y2="175.6641"/>
    <text fill="#000000" font-family="sans-serif" font-size="13" lengthAdjust="spacing" textLength="98" x="230.5" y="170.8076">extract user data</text>
    <polygon fill="#181818" points="234.5,202.0156,224.5,206.0156,234.5,210.0156,230.5,206.0156" style="stroke:#181818;stroke-width:1.0;"/>
    <line style="stroke:#181818;stroke-width:1.0;" x1="228.5" x2="692.5" y1="206.0156" y2="206.0156"/>
    <text fill="#000000" font-family="sans-serif" font-size="13" lengthAdjust="spacing" textLength="91" x="240.5" y="201.1592">return user data</text>
    <path d="M10,221.0156 L71,221.0156 L71,229.3672 L61,239.3672 L10,239.3672 L10,221.0156 " fill="#EEEEEE" style="stroke:#000000;stroke-width:1.5;"/>
    <rect fill="none" height="1016.0234" style="stroke:#000000;stroke-width:1.5;" width="1235" x="10" y="221.0156"/>
    <text fill="#000000" font-family="sans-serif" font-size="13" font-weight="bold" lengthAdjust="spacing" textLength="16" x="25" y="235.5107">alt</text>
    <text fill="#000000" font-family="sans-serif" font-size="11" font-weight="bold" lengthAdjust="spacing" textLength="124" x="86" y="234.4346">[DB connection invalid]</text>
    <line style="stroke:#181818;stroke-width:1.0;" x1="223.5" x2="265.5" y1="261.7188" y2="261.7188"/>
    <line style="stroke:#181818;stroke-width:1.0;" x1="265.5" x2="265.5" y1="261.7188" y2="274.7188"/>
    <line style="stroke:#181818;stroke-width:1.0;" x1="224.5" x2="265.5" y1="274.7188" y2="274.7188"/>
    <polygon fill="#181818" points="234.5,270.7188,224.5,274.7188,234.5,278.7188,230.5,274.7188" style="stroke:#181818;stroke-width:1.0;"/>
    <text fill="#000000" font-family="sans-serif" font-size="13" lengthAdjust="spacing" textLength="194" x="230.5" y="256.8623">isDBConnectionValid(dbManager)</text>
    <line style="stroke:#181818;stroke-width:1.0;" x1="223.5" x2="265.5" y1="305.0703" y2="305.0703"/>
    <line style="stroke:#181818;stroke-width:1.0;" x1="265.5" x2="265.5" y1="305.0703" y2="318.0703"/>
    <line style="stroke:#181818;stroke-width:1.0;" x1="224.5" x2="265.5" y1="318.0703" y2="318.0703"/>
    <polygon fill="#181818" points="234.5,314.0703,224.5,318.0703,234.5,322.0703,230.5,318.0703" style="stroke:#181818;stroke-width:1.0;"/>
    <text fill="#000000" font-family="sans-serif" font-size="13" lengthAdjust="spacing" textLength="243" x="230.5" y="300.2139">CreateDBConnectionError(response, data)</text>
    <polygon fill="#181818" points="88.5,344.4219,78.5,348.4219,88.5,352.4219,84.5,348.4219" style="stroke:#181818;stroke-width:1.0;"/>
    <line style="stroke:#181818;stroke-width:1.0;" x1="82.5" x2="217.5" y1="348.4219" y2="348.4219"/>
    <text fill="#000000" font-family="sans-serif" font-size="13" lengthAdjust="spacing" textLength="90" x="94.5" y="343.5654">return response</text>
    <line style="stroke:#000000;stroke-width:1.0;stroke-dasharray:2.0,2.0;" x1="10" x2="1245" y1="357.4219" y2="357.4219"/>
    <text fill="#000000" font-family="sans-serif" font-size="11" font-weight="bold" lengthAdjust="spacing" textLength="114" x="15" y="368.8408">[DB connection valid]</text>
    <polygon fill="#181818" points="1000,390.6094,1010,394.6094,1000,398.6094,1004,394.6094" style="stroke:#181818;stroke-width:1.0;"/>
    <line style="stroke:#181818;stroke-width:1.0;" x1="218.5" x2="1006" y1="394.6094" y2="394.6094"/>
    <text fill="#000000" font-family="sans-serif" font-size="13" lengthAdjust="spacing" textLength="334" x="225.5" y="389.7529">select("role").table("users").where("email =", email).exec()</text>
    <polygon fill="#181818" points="1143.5,420.9609,1153.5,424.9609,1143.5,428.9609,1147.5,424.9609" style="stroke:#181818;stroke-width:1.0;"/>
    <line style="stroke:#181818;stroke-width:1.0;" x1="1017" x2="1149.5" y1="424.9609" y2="424.9609"/>
    <text fill="#000000" font-family="sans-serif" font-size="13" lengthAdjust="spacing" textLength="69" x="1024" y="420.1045">return result</text>
    <polygon fill="#181818" points="229.5,451.3125,219.5,455.3125,229.5,459.3125,225.5,455.3125" style="stroke:#181818;stroke-width:1.0;"/>
    <line style="stroke:#181818;stroke-width:1.0;" x1="223.5" x2="1154.5" y1="455.3125" y2="455.3125"/>
    <text fill="#000000" font-family="sans-serif" font-size="13" lengthAdjust="spacing" textLength="87" x="235.5" y="450.4561">return user role</text>
    <path d="M20,470.3125 L81,470.3125 L81,478.6641 L71,488.6641 L20,488.6641 L20,470.3125 " fill="#EEEEEE" style="stroke:#000000;stroke-width:1.5;"/>
    <rect fill="none" height="759.7266" style="stroke:#000000;stroke-width:1.5;" width="1215" x="20" y="470.3125"/>
    <text fill="#000000" font-family="sans-serif" font-size="13" font-weight="bold" lengthAdjust="spacing" textLength="16" x="35" y="484.8076">alt</text>
    <text fill="#000000" font-family="sans-serif" font-size="11" font-weight="bold" lengthAdjust="spacing" textLength="90" x="96" y="483.7314">[user not found]</text>
    <line style="stroke:#181818;stroke-width:1.0;" x1="218.5" x2="260.5" y1="511.0156" y2="511.0156"/>
    <line style="stroke:#181818;stroke-width:1.0;" x1="260.5" x2="260.5" y1="511.0156" y2="524.0156"/>
    <line style="stroke:#181818;stroke-width:1.0;" x1="219.5" x2="260.5" y1="524.0156" y2="524.0156"/>
    <polygon fill="#181818" points="229.5,520.0156,219.5,524.0156,229.5,528.0156,225.5,524.0156" style="stroke:#181818;stroke-width:1.0;"/>
    <text fill="#000000" font-family="sans-serif" font-size="13" lengthAdjust="spacing" textLength="394" x="225.5" y="506.1592">CreateErrorResponse(response, data, "you are not registered user!")</text>
    <polygon fill="#181818" points="88.5,550.3672,78.5,554.3672,88.5,558.3672,84.5,554.3672" style="stroke:#181818;stroke-width:1.0;"/>
    <line style="stroke:#181818;stroke-width:1.0;" x1="82.5" x2="217.5" y1="554.3672" y2="554.3672"/>
    <text fill="#000000" font-family="sans-serif" font-size="13" lengthAdjust="spacing" textLength="90" x="94.5" y="549.5107">return response</text>
    <line style="stroke:#000000;stroke-width:1.0;stroke-dasharray:2.0,2.0;" x1="20" x2="1235" y1="563.3672" y2="563.3672"/>
    <text fill="#000000" font-family="sans-serif" font-size="11" font-weight="bold" lengthAdjust="spacing" textLength="69" x="25" y="574.7861">[user found]</text>
    <line style="stroke:#181818;stroke-width:1.0;" x1="218.5" x2="260.5" y1="600.5547" y2="600.5547"/>
    <line style="stroke:#181818;stroke-width:1.0;" x1="260.5" x2="260.5" y1="600.5547" y2="613.5547"/>
    <line style="stroke:#181818;stroke-width:1.0;" x1="219.5" x2="260.5" y1="613.5547" y2="613.5547"/>
    <polygon fill="#181818" points="229.5,609.5547,219.5,613.5547,229.5,617.5547,225.5,613.5547" style="stroke:#181818;stroke-width:1.0;"/>
    <text fill="#000000" font-family="sans-serif" font-size="13" lengthAdjust="spacing" textLength="123" x="225.5" y="595.6982">check if role is admin</text>
    <path d="M30,628.5547 L91,628.5547 L91,636.9063 L81,646.9063 L30,646.9063 L30,628.5547 " fill="#EEEEEE" style="stroke:#000000;stroke-width:1.5;"/>
    <rect fill="none" height="594.4844" style="stroke:#000000;stroke-width:1.5;" width="1195" x="30" y="628.5547"/>
    <text fill="#000000" font-family="sans-serif" font-size="13" font-weight="bold" lengthAdjust="spacing" textLength="16" x="45" y="643.0498">alt</text>
    <text fill="#000000" font-family="sans-serif" font-size="11" font-weight="bold" lengthAdjust="spacing" textLength="88" x="106" y="641.9736">[role not admin]</text>
    <line style="stroke:#181818;stroke-width:1.0;" x1="218.5" x2="260.5" y1="669.2578" y2="669.2578"/>
    <line style="stroke:#181818;stroke-width:1.0;" x1="260.5" x2="260.5" y1="669.2578" y2="682.2578"/>
    <line style="stroke:#181818;stroke-width:1.0;" x1="219.5" x2="260.5" y1="682.2578" y2="682.2578"/>
    <polygon fill="#181818" points="229.5,678.2578,219.5,682.2578,229.5,686.2578,225.5,682.2578" style="stroke:#181818;stroke-width:1.0;"/>
    <text fill="#000000" font-family="sans-serif" font-size="13" lengthAdjust="spacing" textLength="461" x="225.5" y="664.4014">CreateErrorResponse(response, data, "Unauthorized, Cannot create new user.")</text>
    <polygon fill="#181818" points="88.5,708.6094,78.5,712.6094,88.5,716.6094,84.5,712.6094" style="stroke:#181818;stroke-width:1.0;"/>
    <line style="stroke:#181818;stroke-width:1.0;" x1="82.5" x2="217.5" y1="712.6094" y2="712.6094"/>
    <text fill="#000000" font-family="sans-serif" font-size="13" lengthAdjust="spacing" textLength="90" x="94.5" y="707.7529">return response</text>
    <line style="stroke:#000000;stroke-width:1.0;stroke-dasharray:2.0,2.0;" x1="30" x2="1225" y1="721.6094" y2="721.6094"/>
    <text fill="#000000" font-family="sans-serif" font-size="11" font-weight="bold" lengthAdjust="spacing" textLength="80" x="35" y="733.0283">[role is admin]</text>
    <polygon fill="#181818" points="681.5,754.7969,691.5,758.7969,681.5,762.7969,685.5,758.7969" style="stroke:#181818;stroke-width:1.0;"/>
    <line style="stroke:#181818;stroke-width:1.0;" x1="218.5" x2="687.5" y1="758.7969" y2="758.7969"/>
    <text fill="#000000" font-family="sans-serif" font-size="13" lengthAdjust="spacing" textLength="128" x="225.5" y="753.9404">validate new user data</text>
    <path d="M40,773.7969 L101,773.7969 L101,782.1484 L91,792.1484 L40,792.1484 L40,773.7969 " fill="#EEEEEE" style="stroke:#000000;stroke-width:1.5;"/>
    <rect fill="none" height="442.2422" style="stroke:#000000;stroke-width:1.5;" width="1175" x="40" y="773.7969"/>
    <text fill="#000000" font-family="sans-serif" font-size="13" font-weight="bold" lengthAdjust="spacing" textLength="16" x="55" y="788.292">alt</text>
    <text fill="#000000" font-family="sans-serif" font-size="11" font-weight="bold" lengthAdjust="spacing" textLength="87" x="116" y="787.2158">[missing fields]</text>
    <line style="stroke:#181818;stroke-width:1.0;" x1="218.5" x2="260.5" y1="814.5" y2="814.5"/>
    <line style="stroke:#181818;stroke-width:1.0;" x1="260.5" x2="260.5" y1="814.5" y2="827.5"/>
    <line style="stroke:#181818;stroke-width:1.0;" x1="219.5" x2="260.5" y1="827.5" y2="827.5"/>
    <polygon fill="#181818" points="229.5,823.5,219.5,827.5,229.5,831.5,225.5,827.5" style="stroke:#181818;stroke-width:1.0;"/>
    <text fill="#000000" font-family="sans-serif" font-size="13" lengthAdjust="spacing" textLength="365" x="225.5" y="809.6436">CreateErrorResponse(response, data, "Missing required fields")</text>
    <polygon fill="#181818" points="88.5,853.8516,78.5,857.8516,88.5,861.8516,84.5,857.8516" style="stroke:#181818;stroke-width:1.0;"/>
    <line style="stroke:#181818;stroke-width:1.0;" x1="82.5" x2="217.5" y1="857.8516" y2="857.8516"/>
    <text fill="#000000" font-family="sans-serif" font-size="13" lengthAdjust="spacing" textLength="90" x="94.5" y="852.9951">return response</text>
    <line style="stroke:#000000;stroke-width:1.0;stroke-dasharray:2.0,2.0;" x1="40" x2="1215" y1="866.8516" y2="866.8516"/>
    <text fill="#000000" font-family="sans-serif" font-size="11" font-weight="bold" lengthAdjust="spacing" textLength="101" x="45" y="878.2705">[all fields present]</text>
    <polygon fill="#181818" points="1005,900.0391,1015,904.0391,1005,908.0391,1009,904.0391" style="stroke:#181818;stroke-width:1.0;"/>
    <line style="stroke:#181818;stroke-width:1.0;" x1="218.5" x2="1011" y1="904.0391" y2="904.0391"/>
    <text fill="#000000" font-family="sans-serif" font-size="13" lengthAdjust="spacing" textLength="131" x="225.5" y="899.1826">check for existing user</text>
    <polygon fill="#181818" points="1143.5,930.3906,1153.5,934.3906,1143.5,938.3906,1147.5,934.3906" style="stroke:#181818;stroke-width:1.0;"/>
    <line style="stroke:#181818;stroke-width:1.0;" x1="1017" x2="1149.5" y1="934.3906" y2="934.3906"/>
    <text fill="#000000" font-family="sans-serif" font-size="13" lengthAdjust="spacing" textLength="69" x="1024" y="929.5342">return result</text>
    <polygon fill="#181818" points="229.5,960.7422,219.5,964.7422,229.5,968.7422,225.5,964.7422" style="stroke:#181818;stroke-width:1.0;"/>
    <line style="stroke:#181818;stroke-width:1.0;" x1="223.5" x2="1154.5" y1="964.7422" y2="964.7422"/>
    <text fill="#000000" font-family="sans-serif" font-size="13" lengthAdjust="spacing" textLength="161" x="235.5" y="959.8857">return user existence check</text>
    <path d="M50,979.7422 L111,979.7422 L111,988.0938 L101,998.0938 L50,998.0938 L50,979.7422 " fill="#EEEEEE" style="stroke:#000000;stroke-width:1.5;"/>
    <rect fill="none" height="229.2969" style="stroke:#000000;stroke-width:1.5;" width="1056" x="50" y="979.7422"/>
    <text fill="#000000" font-family="sans-serif" font-size="13" font-weight="bold" lengthAdjust="spacing" textLength="16" x="65" y="994.2373">alt</text>
    <text fill="#000000" font-family="sans-serif" font-size="11" font-weight="bold" lengthAdjust="spacing" textLength="71" x="126" y="993.1611">[user exists]</text>
    <line style="stroke:#181818;stroke-width:1.0;" x1="218.5" x2="260.5" y1="1020.4453" y2="1020.4453"/>
    <line style="stroke:#181818;stroke-width:1.0;" x1="260.5" x2="260.5" y1="1020.4453" y2="1033.4453"/>
    <line style="stroke:#181818;stroke-width:1.0;" x1="219.5" x2="260.5" y1="1033.4453" y2="1033.4453"/>
    <polygon fill="#181818" points="229.5,1029.4453,219.5,1033.4453,229.5,1037.4453,225.5,1033.4453" style="stroke:#181818;stroke-width:1.0;"/>
    <text fill="#000000" font-family="sans-serif" font-size="13" lengthAdjust="spacing" textLength="348" x="225.5" y="1015.5889">CreateErrorResponse(response, data, "User already exists")</text>
    <polygon fill="#181818" points="88.5,1059.7969,78.5,1063.7969,88.5,1067.7969,84.5,1063.7969" style="stroke:#181818;stroke-width:1.0;"/>
    <line style="stroke:#181818;stroke-width:1.0;" x1="82.5" x2="217.5" y1="1063.7969" y2="1063.7969"/>
    <text fill="#000000" font-family="sans-serif" font-size="13" lengthAdjust="spacing" textLength="90" x="94.5" y="1058.9404">return response</text>
    <line style="stroke:#000000;stroke-width:1.0;stroke-dasharray:2.0,2.0;" x1="50" x2="1106" y1="1072.7969" y2="1072.7969"/>
    <text fill="#000000" font-family="sans-serif" font-size="11" font-weight="bold" lengthAdjust="spacing" textLength="116" x="55" y="1084.2158">[user does not exist]</text>
    <polygon fill="#181818" points="1000,1105.9844,1010,1109.9844,1000,1113.9844,1004,1109.9844" style="stroke:#181818;stroke-width:1.0;"/>
    <line style="stroke:#181818;stroke-width:1.0;" x1="218.5" x2="1006" y1="1109.9844" y2="1109.9844"/>
    <text fill="#000000" font-family="sans-serif" font-size="13" lengthAdjust="spacing" textLength="88" x="225.5" y="1105.1279">insert new user</text>
    <polygon fill="#181818" points="229.5,1136.3359,219.5,1140.3359,229.5,1144.3359,225.5,1140.3359" style="stroke:#181818;stroke-width:1.0;"/>
    <line style="stroke:#181818;stroke-width:1.0;" x1="223.5" x2="1016" y1="1140.3359" y2="1140.3359"/>
    <text fill="#000000" font-family="sans-serif" font-size="13" lengthAdjust="spacing" textLength="124" x="235.5" y="1135.4795">return success/failure</text>
    <polygon fill="#181818" points="681.5,1166.6875,691.5,1170.6875,681.5,1174.6875,685.5,1170.6875" style="stroke:#181818;stroke-width:1.0;"/>
    <line style="stroke:#181818;stroke-width:1.0;" x1="218.5" x2="687.5" y1="1170.6875" y2="1170.6875"/>
    <text fill="#000000" font-family="sans-serif" font-size="13" lengthAdjust="spacing" textLength="164" x="225.5" y="1165.8311">construct success response</text>
    <polygon fill="#181818" points="88.5,1197.0391,78.5,1201.0391,88.5,1205.0391,84.5,1201.0391" style="stroke:#181818;stroke-width:1.0;"/>
    <line style="stroke:#181818;stroke-width:1.0;" x1="82.5" x2="692.5" y1="1201.0391" y2="1201.0391"/>
    <text fill="#000000" font-family="sans-serif" font-size="13" lengthAdjust="spacing" textLength="90" x="94.5" y="1196.1826">return response</text>
  </g>
</svg>
