<svg xmlns="http://www.w3.org/2000/svg" xmlns:xlink="http://www.w3.org/1999/xlink" contentStyleType="text/css" height="1531px" preserveAspectRatio="none" style="width:1224px;height:1531px;background:#FFFFFF;" version="1.1" viewBox="0 0 1224 1531" width="1224px" zoomAndPan="magnify"><defs/><g><rect fill="#FFFFFF" height="233.4609" style="stroke:#181818;stroke-width:1.0;" width="10" x="223.5" y="114.9609"/><rect fill="#FFFFFF" height="1294.3203" style="stroke:#181818;stroke-width:1.0;" width="10" x="852.5" y="145.3125"/><rect fill="#FFFFFF" height="30.3516" style="stroke:#181818;stroke-width:1.0;" width="10" x="994" y="394.6094"/><rect fill="#FFFFFF" height="30.3516" style="stroke:#181818;stroke-width:1.0;" width="10" x="994" y="758.7969"/><rect fill="#FFFFFF" height="30.3516" style="stroke:#181818;stroke-width:1.0;" width="10" x="994" y="1008.0938"/><rect fill="#FFFFFF" height="30.3516" style="stroke:#181818;stroke-width:1.0;" width="10" x="994" y="1183.6875"/><rect fill="none" height="1211.6172" style="stroke:#000000;stroke-width:1.5;" width="1207" x="10" y="221.0156"/><rect fill="none" height="955.3203" style="stroke:#000000;stroke-width:1.5;" width="1187" x="20" y="470.3125"/><rect fill="none" height="790.0781" style="stroke:#000000;stroke-width:1.5;" width="1167" x="30" y="628.5547"/><rect fill="none" height="577.1328" style="stroke:#000000;stroke-width:1.5;" width="1058" x="40" y="834.5"/><rect fill="none" height="351.1875" style="stroke:#000000;stroke-width:1.5;" width="1038" x="50" y="1053.4453"/><rect fill="none" height="168.5938" style="stroke:#000000;stroke-width:1.5;" width="673" x="60" y="1229.0391"/><line style="stroke:#181818;stroke-width:0.5;stroke-dasharray:5.0,5.0;" x1="87" x2="87" y1="82.6094" y2="1449.6328"/><line style="stroke:#181818;stroke-width:0.5;stroke-dasharray:5.0,5.0;" x1="228" x2="228" y1="82.6094" y2="1449.6328"/><line style="stroke:#181818;stroke-width:0.5;stroke-dasharray:5.0,5.0;" x1="675" x2="675" y1="82.6094" y2="1449.6328"/><line style="stroke:#181818;stroke-width:0.5;stroke-dasharray:5.0,5.0;" x1="764" x2="764" y1="82.6094" y2="1449.6328"/><line style="stroke:#181818;stroke-width:0.5;stroke-dasharray:5.0,5.0;" x1="857" x2="857" y1="82.6094" y2="1449.6328"/><line style="stroke:#181818;stroke-width:0.5;stroke-dasharray:5.0,5.0;" x1="999" x2="999" y1="82.6094" y2="1449.6328"/><line style="stroke:#181818;stroke-width:0.5;stroke-dasharray:5.0,5.0;" x1="1137" x2="1137" y1="82.6094" y2="1449.6328"/><text fill="#000000" font-family="sans-serif" font-size="14" lengthAdjust="spacing" textLength="29" x="70" y="79.5332">User</text><ellipse cx="87.5" cy="13.5" fill="#E2E2F0" rx="8" ry="8" style="stroke:#181818;stroke-width:0.5;"/><path d="M87.5,21.5 L87.5,48.5 M74.5,29.5 L100.5,29.5 M87.5,48.5 L74.5,63.5 M87.5,48.5 L100.5,63.5 " fill="none" style="stroke:#181818;stroke-width:0.5;"/><text fill="#000000" font-family="sans-serif" font-size="14" lengthAdjust="spacing" textLength="29" x="70" y="1463.166">User</text><ellipse cx="87.5" cy="1474.7422" fill="#E2E2F0" rx="8" ry="8" style="stroke:#181818;stroke-width:0.5;"/><path d="M87.5,1482.7422 L87.5,1509.7422 M74.5,1490.7422 L100.5,1490.7422 M87.5,1509.7422 L74.5,1524.7422 M87.5,1509.7422 L100.5,1524.7422 " fill="none" style="stroke:#181818;stroke-width:0.5;"/><rect fill="#E2E2F0" height="31.6094" rx="2.5" ry="2.5" style="stroke:#181818;stroke-width:0.5;" width="137" x="160" y="50"/><text fill="#000000" font-family="sans-serif" font-size="14" lengthAdjust="spacing" textLength="123" x="167" y="71.5332">DeleteUserRequest</text><rect fill="#E2E2F0" height="31.6094" rx="2.5" ry="2.5" style="stroke:#181818;stroke-width:0.5;" width="137" x="160" y="1448.6328"/><text fill="#000000" font-family="sans-serif" font-size="14" lengthAdjust="spacing" textLength="123" x="167" y="1470.166">DeleteUserRequest</text><rect fill="#E2E2F0" height="31.6094" rx="2.5" ry="2.5" style="stroke:#181818;stroke-width:0.5;" width="95" x="628" y="50"/><text fill="#000000" font-family="sans-serif" font-size="14" lengthAdjust="spacing" textLength="81" x="635" y="71.5332">QJsonObject</text><rect fill="#E2E2F0" height="31.6094" rx="2.5" ry="2.5" style="stroke:#181818;stroke-width:0.5;" width="95" x="628" y="1448.6328"/><text fill="#000000" font-family="sans-serif" font-size="14" lengthAdjust="spacing" textLength="81" x="635" y="1470.166">QJsonObject</text><rect fill="#E2E2F0" height="31.6094" rx="2.5" ry="2.5" style="stroke:#181818;stroke-width:0.5;" width="62" x="733" y="50"/><text fill="#000000" font-family="sans-serif" font-size="14" lengthAdjust="spacing" textLength="48" x="740" y="71.5332">QMutex</text><rect fill="#E2E2F0" height="31.6094" rx="2.5" ry="2.5" style="stroke:#181818;stroke-width:0.5;" width="62" x="733" y="1448.6328"/><text fill="#000000" font-family="sans-serif" font-size="14" lengthAdjust="spacing" textLength="48" x="740" y="1470.166">QMutex</text><rect fill="#E2E2F0" height="31.6094" rx="2.5" ry="2.5" style="stroke:#181818;stroke-width:0.5;" width="105" x="805" y="50"/><text fill="#000000" font-family="sans-serif" font-size="14" lengthAdjust="spacing" textLength="91" x="812" y="71.5332">QMutexLocker</text><rect fill="#E2E2F0" height="31.6094" rx="2.5" ry="2.5" style="stroke:#181818;stroke-width:0.5;" width="105" x="805" y="1448.6328"/><text fill="#000000" font-family="sans-serif" font-size="14" lengthAdjust="spacing" textLength="91" x="812" y="1470.166">QMutexLocker</text><rect fill="#E2E2F0" height="31.6094" rx="2.5" ry="2.5" style="stroke:#181818;stroke-width:0.5;" width="158" x="920" y="50"/><text fill="#000000" font-family="sans-serif" font-size="14" lengthAdjust="spacing" textLength="144" x="927" y="71.5332">DB::DatabaseManager</text><rect fill="#E2E2F0" height="31.6094" rx="2.5" ry="2.5" style="stroke:#181818;stroke-width:0.5;" width="158" x="920" y="1448.6328"/><text fill="#000000" font-family="sans-serif" font-size="14" lengthAdjust="spacing" textLength="144" x="927" y="1470.166">DB::DatabaseManager</text><rect fill="#E2E2F0" height="31.6094" rx="2.5" ry="2.5" style="stroke:#181818;stroke-width:0.5;" width="99" x="1088" y="50"/><text fill="#000000" font-family="sans-serif" font-size="14" lengthAdjust="spacing" textLength="85" x="1095" y="71.5332">DB::DbResult</text><rect fill="#E2E2F0" height="31.6094" rx="2.5" ry="2.5" style="stroke:#181818;stroke-width:0.5;" width="99" x="1088" y="1448.6328"/><text fill="#000000" font-family="sans-serif" font-size="14" lengthAdjust="spacing" textLength="85" x="1095" y="1470.166">DB::DbResult</text><rect fill="#FFFFFF" height="233.4609" style="stroke:#181818;stroke-width:1.0;" width="10" x="223.5" y="114.9609"/><rect fill="#FFFFFF" height="1294.3203" style="stroke:#181818;stroke-width:1.0;" width="10" x="852.5" y="145.3125"/><rect fill="#FFFFFF" height="30.3516" style="stroke:#181818;stroke-width:1.0;" width="10" x="994" y="394.6094"/><rect fill="#FFFFFF" height="30.3516" style="stroke:#181818;stroke-width:1.0;" width="10" x="994" y="758.7969"/><rect fill="#FFFFFF" height="30.3516" style="stroke:#181818;stroke-width:1.0;" width="10" x="994" y="1008.0938"/><rect fill="#FFFFFF" height="30.3516" style="stroke:#181818;stroke-width:1.0;" width="10" x="994" y="1183.6875"/><polygon fill="#181818" points="211.5,110.9609,221.5,114.9609,211.5,118.9609,215.5,114.9609" style="stroke:#181818;stroke-width:1.0;"/><line style="stroke:#181818;stroke-width:1.0;" x1="87.5" x2="217.5" y1="114.9609" y2="114.9609"/><text fill="#000000" font-family="sans-serif" font-size="13" lengthAdjust="spacing" textLength="117" x="94.5" y="110.1045">execute(jsonObj, m)</text><polygon fill="#181818" points="840.5,141.3125,850.5,145.3125,840.5,149.3125,844.5,145.3125" style="stroke:#181818;stroke-width:1.0;"/><line style="stroke:#181818;stroke-width:1.0;" x1="233.5" x2="846.5" y1="145.3125" y2="145.3125"/><text fill="#000000" font-family="sans-serif" font-size="13" lengthAdjust="spacing" textLength="113" x="240.5" y="140.4561">QMutexLocker(&amp;m)</text><polygon fill="#181818" points="663.5,171.6641,673.5,175.6641,663.5,179.6641,667.5,175.6641" style="stroke:#181818;stroke-width:1.0;"/><line style="stroke:#181818;stroke-width:1.0;" x1="233.5" x2="669.5" y1="175.6641" y2="175.6641"/><text fill="#000000" font-family="sans-serif" font-size="13" lengthAdjust="spacing" textLength="236" x="240.5" y="170.8076">extract admin email and account number</text><polygon fill="#181818" points="244.5,202.0156,234.5,206.0156,244.5,210.0156,240.5,206.0156" style="stroke:#181818;stroke-width:1.0;"/><line style="stroke:#181818;stroke-width:1.0;" x1="238.5" x2="674.5" y1="206.0156" y2="206.0156"/><text fill="#000000" font-family="sans-serif" font-size="13" lengthAdjust="spacing" textLength="229" x="250.5" y="201.1592">return admin email and account number</text><path d="M10,221.0156 L71,221.0156 L71,229.3672 L61,239.3672 L10,239.3672 L10,221.0156 " fill="#EEEEEE" style="stroke:#000000;stroke-width:1.5;"/><rect fill="none" height="1211.6172" style="stroke:#000000;stroke-width:1.5;" width="1207" x="10" y="221.0156"/><text fill="#000000" font-family="sans-serif" font-size="13" font-weight="bold" lengthAdjust="spacing" textLength="16" x="25" y="235.5107">alt</text><text fill="#000000" font-family="sans-serif" font-size="11" font-weight="bold" lengthAdjust="spacing" textLength="124" x="86" y="234.4346">[DB connection invalid]</text><line style="stroke:#181818;stroke-width:1.0;" x1="233.5" x2="275.5" y1="261.7188" y2="261.7188"/><line style="stroke:#181818;stroke-width:1.0;" x1="275.5" x2="275.5" y1="261.7188" y2="274.7188"/><line style="stroke:#181818;stroke-width:1.0;" x1="234.5" x2="275.5" y1="274.7188" y2="274.7188"/><polygon fill="#181818" points="244.5,270.7188,234.5,274.7188,244.5,278.7188,240.5,274.7188" style="stroke:#181818;stroke-width:1.0;"/><text fill="#000000" font-family="sans-serif" font-size="13" lengthAdjust="spacing" textLength="194" x="240.5" y="256.8623">isDBConnectionValid(dbManager)</text><line style="stroke:#181818;stroke-width:1.0;" x1="233.5" x2="275.5" y1="305.0703" y2="305.0703"/><line style="stroke:#181818;stroke-width:1.0;" x1="275.5" x2="275.5" y1="305.0703" y2="318.0703"/><line style="stroke:#181818;stroke-width:1.0;" x1="234.5" x2="275.5" y1="318.0703" y2="318.0703"/><polygon fill="#181818" points="244.5,314.0703,234.5,318.0703,244.5,322.0703,240.5,318.0703" style="stroke:#181818;stroke-width:1.0;"/><text fill="#000000" font-family="sans-serif" font-size="13" lengthAdjust="spacing" textLength="243" x="240.5" y="300.2139">CreateDBConnectionError(response, data)</text><polygon fill="#181818" points="98.5,344.4219,88.5,348.4219,98.5,352.4219,94.5,348.4219" style="stroke:#181818;stroke-width:1.0;"/><line style="stroke:#181818;stroke-width:1.0;" x1="92.5" x2="227.5" y1="348.4219" y2="348.4219"/><text fill="#000000" font-family="sans-serif" font-size="13" lengthAdjust="spacing" textLength="90" x="104.5" y="343.5654">return response</text><line style="stroke:#000000;stroke-width:1.0;stroke-dasharray:2.0,2.0;" x1="10" x2="1217" y1="357.4219" y2="357.4219"/><text fill="#000000" font-family="sans-serif" font-size="11" font-weight="bold" lengthAdjust="spacing" textLength="114" x="15" y="368.8408">[DB connection valid]</text><polygon fill="#181818" points="982,390.6094,992,394.6094,982,398.6094,986,394.6094" style="stroke:#181818;stroke-width:1.0;"/><line style="stroke:#181818;stroke-width:1.0;" x1="228.5" x2="988" y1="394.6094" y2="394.6094"/><text fill="#000000" font-family="sans-serif" font-size="13" lengthAdjust="spacing" textLength="360" x="235.5" y="389.7529">select("*").table("users").where("email =", admin_email).exec()</text><polygon fill="#181818" points="1125.5,420.9609,1135.5,424.9609,1125.5,428.9609,1129.5,424.9609" style="stroke:#181818;stroke-width:1.0;"/><line style="stroke:#181818;stroke-width:1.0;" x1="999" x2="1131.5" y1="424.9609" y2="424.9609"/><text fill="#000000" font-family="sans-serif" font-size="13" lengthAdjust="spacing" textLength="69" x="1006" y="420.1045">return result</text><polygon fill="#181818" points="239.5,451.3125,229.5,455.3125,239.5,459.3125,235.5,455.3125" style="stroke:#181818;stroke-width:1.0;"/><line style="stroke:#181818;stroke-width:1.0;" x1="233.5" x2="1136.5" y1="455.3125" y2="455.3125"/><text fill="#000000" font-family="sans-serif" font-size="13" lengthAdjust="spacing" textLength="87" x="245.5" y="450.4561">return user role</text><path d="M20,470.3125 L81,470.3125 L81,478.6641 L71,488.6641 L20,488.6641 L20,470.3125 " fill="#EEEEEE" style="stroke:#000000;stroke-width:1.5;"/><rect fill="none" height="955.3203" style="stroke:#000000;stroke-width:1.5;" width="1187" x="20" y="470.3125"/><text fill="#000000" font-family="sans-serif" font-size="13" font-weight="bold" lengthAdjust="spacing" textLength="16" x="35" y="484.8076">alt</text><text fill="#000000" font-family="sans-serif" font-size="11" font-weight="bold" lengthAdjust="spacing" textLength="90" x="96" y="483.7314">[user not found]</text><line style="stroke:#181818;stroke-width:1.0;" x1="228.5" x2="270.5" y1="511.0156" y2="511.0156"/><line style="stroke:#181818;stroke-width:1.0;" x1="270.5" x2="270.5" y1="511.0156" y2="524.0156"/><line style="stroke:#181818;stroke-width:1.0;" x1="229.5" x2="270.5" y1="524.0156" y2="524.0156"/><polygon fill="#181818" points="239.5,520.0156,229.5,524.0156,239.5,528.0156,235.5,524.0156" style="stroke:#181818;stroke-width:1.0;"/><text fill="#000000" font-family="sans-serif" font-size="13" lengthAdjust="spacing" textLength="394" x="235.5" y="506.1592">CreateErrorResponse(response, data, "you are not registered user!")</text><polygon fill="#181818" points="98.5,550.3672,88.5,554.3672,98.5,558.3672,94.5,554.3672" style="stroke:#181818;stroke-width:1.0;"/><line style="stroke:#181818;stroke-width:1.0;" x1="92.5" x2="227.5" y1="554.3672" y2="554.3672"/><text fill="#000000" font-family="sans-serif" font-size="13" lengthAdjust="spacing" textLength="90" x="104.5" y="549.5107">return response</text><line style="stroke:#000000;stroke-width:1.0;stroke-dasharray:2.0,2.0;" x1="20" x2="1207" y1="563.3672" y2="563.3672"/><text fill="#000000" font-family="sans-serif" font-size="11" font-weight="bold" lengthAdjust="spacing" textLength="69" x="25" y="574.7861">[user found]</text><line style="stroke:#181818;stroke-width:1.0;" x1="228.5" x2="270.5" y1="600.5547" y2="600.5547"/><line style="stroke:#181818;stroke-width:1.0;" x1="270.5" x2="270.5" y1="600.5547" y2="613.5547"/><line style="stroke:#181818;stroke-width:1.0;" x1="229.5" x2="270.5" y1="613.5547" y2="613.5547"/><polygon fill="#181818" points="239.5,609.5547,229.5,613.5547,239.5,617.5547,235.5,613.5547" style="stroke:#181818;stroke-width:1.0;"/><text fill="#000000" font-family="sans-serif" font-size="13" lengthAdjust="spacing" textLength="123" x="235.5" y="595.6982">check if role is admin</text><path d="M30,628.5547 L91,628.5547 L91,636.9063 L81,646.9063 L30,646.9063 L30,628.5547 " fill="#EEEEEE" style="stroke:#000000;stroke-width:1.5;"/><rect fill="none" height="790.0781" style="stroke:#000000;stroke-width:1.5;" width="1167" x="30" y="628.5547"/><text fill="#000000" font-family="sans-serif" font-size="13" font-weight="bold" lengthAdjust="spacing" textLength="16" x="45" y="643.0498">alt</text><text fill="#000000" font-family="sans-serif" font-size="11" font-weight="bold" lengthAdjust="spacing" textLength="88" x="106" y="641.9736">[role not admin]</text><line style="stroke:#181818;stroke-width:1.0;" x1="228.5" x2="270.5" y1="669.2578" y2="669.2578"/><line style="stroke:#181818;stroke-width:1.0;" x1="270.5" x2="270.5" y1="669.2578" y2="682.2578"/><line style="stroke:#181818;stroke-width:1.0;" x1="229.5" x2="270.5" y1="682.2578" y2="682.2578"/><polygon fill="#181818" points="239.5,678.2578,229.5,682.2578,239.5,686.2578,235.5,682.2578" style="stroke:#181818;stroke-width:1.0;"/><text fill="#000000" font-family="sans-serif" font-size="13" lengthAdjust="spacing" textLength="433" x="235.5" y="664.4014">CreateErrorResponse(response, data, "Unauthorized, Cannot delete user.")</text><polygon fill="#181818" points="98.5,708.6094,88.5,712.6094,98.5,716.6094,94.5,712.6094" style="stroke:#181818;stroke-width:1.0;"/><line style="stroke:#181818;stroke-width:1.0;" x1="92.5" x2="227.5" y1="712.6094" y2="712.6094"/><text fill="#000000" font-family="sans-serif" font-size="13" lengthAdjust="spacing" textLength="90" x="104.5" y="707.7529">return response</text><line style="stroke:#000000;stroke-width:1.0;stroke-dasharray:2.0,2.0;" x1="30" x2="1197" y1="721.6094" y2="721.6094"/><text fill="#000000" font-family="sans-serif" font-size="11" font-weight="bold" lengthAdjust="spacing" textLength="80" x="35" y="733.0283">[role is admin]</text><polygon fill="#181818" points="982,754.7969,992,758.7969,982,762.7969,986,758.7969" style="stroke:#181818;stroke-width:1.0;"/><line style="stroke:#181818;stroke-width:1.0;" x1="228.5" x2="988" y1="758.7969" y2="758.7969"/><text fill="#000000" font-family="sans-serif" font-size="13" lengthAdjust="spacing" textLength="469" x="235.5" y="753.9404">select("*").table("accounts").where("account_number =", account_number).exec()</text><polygon fill="#181818" points="1125.5,785.1484,1135.5,789.1484,1125.5,793.1484,1129.5,789.1484" style="stroke:#181818;stroke-width:1.0;"/><line style="stroke:#181818;stroke-width:1.0;" x1="999" x2="1131.5" y1="789.1484" y2="789.1484"/><text fill="#000000" font-family="sans-serif" font-size="13" lengthAdjust="spacing" textLength="69" x="1006" y="784.292">return result</text><polygon fill="#181818" points="239.5,815.5,229.5,819.5,239.5,823.5,235.5,819.5" style="stroke:#181818;stroke-width:1.0;"/><line style="stroke:#181818;stroke-width:1.0;" x1="233.5" x2="1136.5" y1="819.5" y2="819.5"/><text fill="#000000" font-family="sans-serif" font-size="13" lengthAdjust="spacing" textLength="182" x="245.5" y="814.6436">return account existence check</text><path d="M40,834.5 L101,834.5 L101,842.8516 L91,852.8516 L40,852.8516 L40,834.5 " fill="#EEEEEE" style="stroke:#000000;stroke-width:1.5;"/><rect fill="none" height="577.1328" style="stroke:#000000;stroke-width:1.5;" width="1058" x="40" y="834.5"/><text fill="#000000" font-family="sans-serif" font-size="13" font-weight="bold" lengthAdjust="spacing" textLength="16" x="55" y="848.9951">alt</text><text fill="#000000" font-family="sans-serif" font-size="11" font-weight="bold" lengthAdjust="spacing" textLength="107" x="116" y="847.9189">[account not found]</text><line style="stroke:#181818;stroke-width:1.0;" x1="228.5" x2="270.5" y1="875.2031" y2="875.2031"/><line style="stroke:#181818;stroke-width:1.0;" x1="270.5" x2="270.5" y1="875.2031" y2="888.2031"/><line style="stroke:#181818;stroke-width:1.0;" x1="229.5" x2="270.5" y1="888.2031" y2="888.2031"/><polygon fill="#181818" points="239.5,884.2031,229.5,888.2031,239.5,892.2031,235.5,888.2031" style="stroke:#181818;stroke-width:1.0;"/><text fill="#000000" font-family="sans-serif" font-size="13" lengthAdjust="spacing" textLength="417" x="235.5" y="870.3467">CreateErrorResponse(response, data, "Account number does not exist")</text><polygon fill="#181818" points="98.5,914.5547,88.5,918.5547,98.5,922.5547,94.5,918.5547" style="stroke:#181818;stroke-width:1.0;"/><line style="stroke:#181818;stroke-width:1.0;" x1="92.5" x2="227.5" y1="918.5547" y2="918.5547"/><text fill="#000000" font-family="sans-serif" font-size="13" lengthAdjust="spacing" textLength="90" x="104.5" y="913.6982">return response</text><line style="stroke:#000000;stroke-width:1.0;stroke-dasharray:2.0,2.0;" x1="40" x2="1098" y1="927.5547" y2="927.5547"/><text fill="#000000" font-family="sans-serif" font-size="11" font-weight="bold" lengthAdjust="spacing" textLength="86" x="45" y="938.9736">[account found]</text><line style="stroke:#181818;stroke-width:1.0;" x1="228.5" x2="270.5" y1="964.7422" y2="964.7422"/><line style="stroke:#181818;stroke-width:1.0;" x1="270.5" x2="270.5" y1="964.7422" y2="977.7422"/><line style="stroke:#181818;stroke-width:1.0;" x1="229.5" x2="270.5" y1="977.7422" y2="977.7422"/><polygon fill="#181818" points="239.5,973.7422,229.5,977.7422,239.5,981.7422,235.5,977.7422" style="stroke:#181818;stroke-width:1.0;"/><text fill="#000000" font-family="sans-serif" font-size="13" lengthAdjust="spacing" textLength="143" x="235.5" y="959.8857">get user_id from account</text><polygon fill="#181818" points="982,1004.0938,992,1008.0938,982,1012.0938,986,1008.0938" style="stroke:#181818;stroke-width:1.0;"/><line style="stroke:#181818;stroke-width:1.0;" x1="228.5" x2="988" y1="1008.0938" y2="1008.0938"/><text fill="#000000" font-family="sans-serif" font-size="13" lengthAdjust="spacing" textLength="85" x="235.5" y="1003.2373">delete account</text><polygon fill="#181818" points="239.5,1034.4453,229.5,1038.4453,239.5,1042.4453,235.5,1038.4453" style="stroke:#181818;stroke-width:1.0;"/><line style="stroke:#181818;stroke-width:1.0;" x1="233.5" x2="998" y1="1038.4453" y2="1038.4453"/><text fill="#000000" font-family="sans-serif" font-size="13" lengthAdjust="spacing" textLength="124" x="245.5" y="1033.5889">return success/failure</text><path d="M50,1053.4453 L111,1053.4453 L111,1061.7969 L101,1071.7969 L50,1071.7969 L50,1053.4453 " fill="#EEEEEE" style="stroke:#000000;stroke-width:1.5;"/><rect fill="none" height="351.1875" style="stroke:#000000;stroke-width:1.5;" width="1038" x="50" y="1053.4453"/><text fill="#000000" font-family="sans-serif" font-size="13" font-weight="bold" lengthAdjust="spacing" textLength="16" x="65" y="1067.9404">alt</text><text fill="#000000" font-family="sans-serif" font-size="11" font-weight="bold" lengthAdjust="spacing" textLength="132" x="126" y="1066.8643">[account deletion failed]</text><line style="stroke:#181818;stroke-width:1.0;" x1="228.5" x2="270.5" y1="1094.1484" y2="1094.1484"/><line style="stroke:#181818;stroke-width:1.0;" x1="270.5" x2="270.5" y1="1094.1484" y2="1107.1484"/><line style="stroke:#181818;stroke-width:1.0;" x1="229.5" x2="270.5" y1="1107.1484" y2="1107.1484"/><polygon fill="#181818" points="239.5,1103.1484,229.5,1107.1484,239.5,1111.1484,235.5,1107.1484" style="stroke:#181818;stroke-width:1.0;"/><text fill="#000000" font-family="sans-serif" font-size="13" lengthAdjust="spacing" textLength="375" x="235.5" y="1089.292">CreateErrorResponse(response, data, "Failed to delete account")</text><polygon fill="#181818" points="98.5,1133.5,88.5,1137.5,98.5,1141.5,94.5,1137.5" style="stroke:#181818;stroke-width:1.0;"/><line style="stroke:#181818;stroke-width:1.0;" x1="92.5" x2="227.5" y1="1137.5" y2="1137.5"/><text fill="#000000" font-family="sans-serif" font-size="13" lengthAdjust="spacing" textLength="90" x="104.5" y="1132.6436">return response</text><line style="stroke:#000000;stroke-width:1.0;stroke-dasharray:2.0,2.0;" x1="50" x2="1088" y1="1146.5" y2="1146.5"/><text fill="#000000" font-family="sans-serif" font-size="11" font-weight="bold" lengthAdjust="spacing" textLength="96" x="55" y="1157.9189">[account deleted]</text><polygon fill="#181818" points="982,1179.6875,992,1183.6875,982,1187.6875,986,1183.6875" style="stroke:#181818;stroke-width:1.0;"/><line style="stroke:#181818;stroke-width:1.0;" x1="228.5" x2="988" y1="1183.6875" y2="1183.6875"/><text fill="#000000" font-family="sans-serif" font-size="13" lengthAdjust="spacing" textLength="64" x="235.5" y="1178.8311">delete user</text><polygon fill="#181818" points="239.5,1210.0391,229.5,1214.0391,239.5,1218.0391,235.5,1214.0391" style="stroke:#181818;stroke-width:1.0;"/><line style="stroke:#181818;stroke-width:1.0;" x1="233.5" x2="998" y1="1214.0391" y2="1214.0391"/><text fill="#000000" font-family="sans-serif" font-size="13" lengthAdjust="spacing" textLength="124" x="245.5" y="1209.1826">return success/failure</text><path d="M60,1229.0391 L121,1229.0391 L121,1237.3906 L111,1247.3906 L60,1247.3906 L60,1229.0391 " fill="#EEEEEE" style="stroke:#000000;stroke-width:1.5;"/><rect fill="none" height="168.5938" style="stroke:#000000;stroke-width:1.5;" width="673" x="60" y="1229.0391"/><text fill="#000000" font-family="sans-serif" font-size="13" font-weight="bold" lengthAdjust="spacing" textLength="16" x="75" y="1243.5342">alt</text><text fill="#000000" font-family="sans-serif" font-size="11" font-weight="bold" lengthAdjust="spacing" textLength="115" x="136" y="1242.458">[user deletion failed]</text><line style="stroke:#181818;stroke-width:1.0;" x1="228.5" x2="270.5" y1="1269.7422" y2="1269.7422"/><line style="stroke:#181818;stroke-width:1.0;" x1="270.5" x2="270.5" y1="1269.7422" y2="1282.7422"/><line style="stroke:#181818;stroke-width:1.0;" x1="229.5" x2="270.5" y1="1282.7422" y2="1282.7422"/><polygon fill="#181818" points="239.5,1278.7422,229.5,1282.7422,239.5,1286.7422,235.5,1282.7422" style="stroke:#181818;stroke-width:1.0;"/><text fill="#000000" font-family="sans-serif" font-size="13" lengthAdjust="spacing" textLength="354" x="235.5" y="1264.8857">CreateErrorResponse(response, data, "Failed to delete user")</text><polygon fill="#181818" points="98.5,1309.0938,88.5,1313.0938,98.5,1317.0938,94.5,1313.0938" style="stroke:#181818;stroke-width:1.0;"/><line style="stroke:#181818;stroke-width:1.0;" x1="92.5" x2="227.5" y1="1313.0938" y2="1313.0938"/><text fill="#000000" font-family="sans-serif" font-size="13" lengthAdjust="spacing" textLength="90" x="104.5" y="1308.2373">return response</text><line style="stroke:#000000;stroke-width:1.0;stroke-dasharray:2.0,2.0;" x1="60" x2="733" y1="1322.0938" y2="1322.0938"/><text fill="#000000" font-family="sans-serif" font-size="11" font-weight="bold" lengthAdjust="spacing" textLength="79" x="65" y="1333.5127">[user deleted]</text><polygon fill="#181818" points="663.5,1355.2813,673.5,1359.2813,663.5,1363.2813,667.5,1359.2813" style="stroke:#181818;stroke-width:1.0;"/><line style="stroke:#181818;stroke-width:1.0;" x1="228.5" x2="669.5" y1="1359.2813" y2="1359.2813"/><text fill="#000000" font-family="sans-serif" font-size="13" lengthAdjust="spacing" textLength="164" x="235.5" y="1354.4248">construct success response</text><polygon fill="#181818" points="98.5,1385.6328,88.5,1389.6328,98.5,1393.6328,94.5,1389.6328" style="stroke:#181818;stroke-width:1.0;"/><line style="stroke:#181818;stroke-width:1.0;" x1="92.5" x2="674.5" y1="1389.6328" y2="1389.6328"/><text fill="#000000" font-family="sans-serif" font-size="13" lengthAdjust="spacing" textLength="90" x="104.5" y="1384.7764">return response</text></g></svg>