<svg xmlns="http://www.w3.org/2000/svg" xmlns:xlink="http://www.w3.org/1999/xlink" contentStyleType="text/css" height="745px" preserveAspectRatio="none" style="width:1072px;height:745px;background:#FFFFFF;" version="1.1" viewBox="0 0 1072 745" width="1072px" zoomAndPan="magnify">
  <defs>
    <style type="text/css">a:hover { text-decoration: underline; }</style>
  </defs>
  <g>
    <rect fill="#FFFFFF" height="233.4609" style="stroke:#181818;stroke-width:1.0;" width="10" x="183.5" y="114.9609"/>
    <rect fill="#FFFFFF" height="507.5938" style="stroke:#181818;stroke-width:1.0;" width="10" x="720.5" y="145.3125"/>
    <rect fill="#FFFFFF" height="30.3516" style="stroke:#181818;stroke-width:1.0;" width="10" x="862" y="394.6094"/>
    <rect fill="none" height="424.8906" style="stroke:#000000;stroke-width:1.5;" width="1055" x="10" y="221.0156"/>
    <rect fill="none" height="168.5938" style="stroke:#000000;stroke-width:1.5;" width="581" x="20" y="470.3125"/>
    <line style="stroke:#181818;stroke-width:0.5;stroke-dasharray:5.0,5.0;" x1="47" x2="47" y1="82.6094" y2="662.9063"/>
    <line style="stroke:#181818;stroke-width:0.5;stroke-dasharray:5.0,5.0;" x1="188" x2="188" y1="82.6094" y2="662.9063"/>
    <line style="stroke:#181818;stroke-width:0.5;stroke-dasharray:5.0,5.0;" x1="543" x2="543" y1="82.6094" y2="662.9063"/>
    <line style="stroke:#181818;stroke-width:0.5;stroke-dasharray:5.0,5.0;" x1="632" x2="632" y1="82.6094" y2="662.9063"/>
    <line style="stroke:#181818;stroke-width:0.5;stroke-dasharray:5.0,5.0;" x1="725" x2="725" y1="82.6094" y2="662.9063"/>
    <line style="stroke:#181818;stroke-width:0.5;stroke-dasharray:5.0,5.0;" x1="867" x2="867" y1="82.6094" y2="662.9063"/>
    <line style="stroke:#181818;stroke-width:0.5;stroke-dasharray:5.0,5.0;" x1="1005" x2="1005" y1="82.6094" y2="662.9063"/>
    <text fill="#000000" font-family="sans-serif" font-size="14" lengthAdjust="spacing" textLength="29" x="30" y="79.5332">User</text>
    <ellipse cx="47.5" cy="13.5" fill="#E2E2F0" rx="8" ry="8" style="stroke:#181818;stroke-width:0.5;"/>
    <path d="M47.5,21.5 L47.5,48.5 M34.5,29.5 L60.5,29.5 M47.5,48.5 L34.5,63.5 M47.5,48.5 L60.5,63.5 " fill="none" style="stroke:#181818;stroke-width:0.5;"/>
    <text fill="#000000" font-family="sans-serif" font-size="14" lengthAdjust="spacing" textLength="29" x="30" y="676.4395">User</text>
    <ellipse cx="47.5" cy="688.0156" fill="#E2E2F0" rx="8" ry="8" style="stroke:#181818;stroke-width:0.5;"/>
    <path d="M47.5,696.0156 L47.5,723.0156 M34.5,704.0156 L60.5,704.0156 M47.5,723.0156 L34.5,738.0156 M47.5,723.0156 L60.5,738.0156 " fill="none" style="stroke:#181818;stroke-width:0.5;"/>
    <rect fill="#E2E2F0" height="31.6094" rx="2.5" ry="2.5" style="stroke:#181818;stroke-width:0.5;" width="141" x="118" y="50"/>
    <text fill="#000000" font-family="sans-serif" font-size="14" lengthAdjust="spacing" textLength="127" x="125" y="71.5332">GetBalanceRequest</text>
    <rect fill="#E2E2F0" height="31.6094" rx="2.5" ry="2.5" style="stroke:#181818;stroke-width:0.5;" width="141" x="118" y="661.9063"/>
    <text fill="#000000" font-family="sans-serif" font-size="14" lengthAdjust="spacing" textLength="127" x="125" y="683.4395">GetBalanceRequest</text>
    <rect fill="#E2E2F0" height="31.6094" rx="2.5" ry="2.5" style="stroke:#181818;stroke-width:0.5;" width="95" x="496" y="50"/>
    <text fill="#000000" font-family="sans-serif" font-size="14" lengthAdjust="spacing" textLength="81" x="503" y="71.5332">QJsonObject</text>
    <rect fill="#E2E2F0" height="31.6094" rx="2.5" ry="2.5" style="stroke:#181818;stroke-width:0.5;" width="95" x="496" y="661.9063"/>
    <text fill="#000000" font-family="sans-serif" font-size="14" lengthAdjust="spacing" textLength="81" x="503" y="683.4395">QJsonObject</text>
    <rect fill="#E2E2F0" height="31.6094" rx="2.5" ry="2.5" style="stroke:#181818;stroke-width:0.5;" width="62" x="601" y="50"/>
    <text fill="#000000" font-family="sans-serif" font-size="14" lengthAdjust="spacing" textLength="48" x="608" y="71.5332">QMutex</text>
    <rect fill="#E2E2F0" height="31.6094" rx="2.5" ry="2.5" style="stroke:#181818;stroke-width:0.5;" width="62" x="601" y="661.9063"/>
    <text fill="#000000" font-family="sans-serif" font-size="14" lengthAdjust="spacing" textLength="48" x="608" y="683.4395">QMutex</text>
    <rect fill="#E2E2F0" height="31.6094" rx="2.5" ry="2.5" style="stroke:#181818;stroke-width:0.5;" width="105" x="673" y="50"/>
    <text fill="#000000" font-family="sans-serif" font-size="14" lengthAdjust="spacing" textLength="91" x="680" y="71.5332">QMutexLocker</text>
    <rect fill="#E2E2F0" height="31.6094" rx="2.5" ry="2.5" style="stroke:#181818;stroke-width:0.5;" width="105" x="673" y="661.9063"/>
    <text fill="#000000" font-family="sans-serif" font-size="14" lengthAdjust="spacing" textLength="91" x="680" y="683.4395">QMutexLocker</text>
    <rect fill="#E2E2F0" height="31.6094" rx="2.5" ry="2.5" style="stroke:#181818;stroke-width:0.5;" width="158" x="788" y="50"/>
    <text fill="#000000" font-family="sans-serif" font-size="14" lengthAdjust="spacing" textLength="144" x="795" y="71.5332">DB::DatabaseManager</text>
    <rect fill="#E2E2F0" height="31.6094" rx="2.5" ry="2.5" style="stroke:#181818;stroke-width:0.5;" width="158" x="788" y="661.9063"/>
    <text fill="#000000" font-family="sans-serif" font-size="14" lengthAdjust="spacing" textLength="144" x="795" y="683.4395">DB::DatabaseManager</text>
    <rect fill="#E2E2F0" height="31.6094" rx="2.5" ry="2.5" style="stroke:#181818;stroke-width:0.5;" width="99" x="956" y="50"/>
    <text fill="#000000" font-family="sans-serif" font-size="14" lengthAdjust="spacing" textLength="85" x="963" y="71.5332">DB::DbResult</text>
    <rect fill="#E2E2F0" height="31.6094" rx="2.5" ry="2.5" style="stroke:#181818;stroke-width:0.5;" width="99" x="956" y="661.9063"/>
    <text fill="#000000" font-family="sans-serif" font-size="14" lengthAdjust="spacing" textLength="85" x="963" y="683.4395">DB::DbResult</text>
    <rect fill="#FFFFFF" height="233.4609" style="stroke:#181818;stroke-width:1.0;" width="10" x="183.5" y="114.9609"/>
    <rect fill="#FFFFFF" height="507.5938" style="stroke:#181818;stroke-width:1.0;" width="10" x="720.5" y="145.3125"/>
    <rect fill="#FFFFFF" height="30.3516" style="stroke:#181818;stroke-width:1.0;" width="10" x="862" y="394.6094"/>
    <polygon fill="#181818" points="171.5,110.9609,181.5,114.9609,171.5,118.9609,175.5,114.9609" style="stroke:#181818;stroke-width:1.0;"/>
    <line style="stroke:#181818;stroke-width:1.0;" x1="47.5" x2="177.5" y1="114.9609" y2="114.9609"/>
    <text fill="#000000" font-family="sans-serif" font-size="13" lengthAdjust="spacing" textLength="117" x="54.5" y="110.1045">execute(jsonObj, m)</text>
    <polygon fill="#181818" points="708.5,141.3125,718.5,145.3125,708.5,149.3125,712.5,145.3125" style="stroke:#181818;stroke-width:1.0;"/>
    <line style="stroke:#181818;stroke-width:1.0;" x1="193.5" x2="714.5" y1="145.3125" y2="145.3125"/>
    <text fill="#000000" font-family="sans-serif" font-size="13" lengthAdjust="spacing" textLength="113" x="200.5" y="140.4561">QMutexLocker(&amp;m)</text>
    <polygon fill="#181818" points="531.5,171.6641,541.5,175.6641,531.5,179.6641,535.5,175.6641" style="stroke:#181818;stroke-width:1.0;"/>
    <line style="stroke:#181818;stroke-width:1.0;" x1="193.5" x2="537.5" y1="175.6641" y2="175.6641"/>
    <text fill="#000000" font-family="sans-serif" font-size="13" lengthAdjust="spacing" textLength="137" x="200.5" y="170.8076">extract account number</text>
    <polygon fill="#181818" points="204.5,202.0156,194.5,206.0156,204.5,210.0156,200.5,206.0156" style="stroke:#181818;stroke-width:1.0;"/>
    <line style="stroke:#181818;stroke-width:1.0;" x1="198.5" x2="542.5" y1="206.0156" y2="206.0156"/>
    <text fill="#000000" font-family="sans-serif" font-size="13" lengthAdjust="spacing" textLength="130" x="210.5" y="201.1592">return account number</text>
    <path d="M10,221.0156 L71,221.0156 L71,229.3672 L61,239.3672 L10,239.3672 L10,221.0156 " fill="#EEEEEE" style="stroke:#000000;stroke-width:1.5;"/>
    <rect fill="none" height="424.8906" style="stroke:#000000;stroke-width:1.5;" width="1055" x="10" y="221.0156"/>
    <text fill="#000000" font-family="sans-serif" font-size="13" font-weight="bold" lengthAdjust="spacing" textLength="16" x="25" y="235.5107">alt</text>
    <text fill="#000000" font-family="sans-serif" font-size="11" font-weight="bold" lengthAdjust="spacing" textLength="124" x="86" y="234.4346">[DB connection invalid]</text>
    <line style="stroke:#181818;stroke-width:1.0;" x1="193.5" x2="235.5" y1="261.7188" y2="261.7188"/>
    <line style="stroke:#181818;stroke-width:1.0;" x1="235.5" x2="235.5" y1="261.7188" y2="274.7188"/>
    <line style="stroke:#181818;stroke-width:1.0;" x1="194.5" x2="235.5" y1="274.7188" y2="274.7188"/>
    <polygon fill="#181818" points="204.5,270.7188,194.5,274.7188,204.5,278.7188,200.5,274.7188" style="stroke:#181818;stroke-width:1.0;"/>
    <text fill="#000000" font-family="sans-serif" font-size="13" lengthAdjust="spacing" textLength="194" x="200.5" y="256.8623">isDBConnectionValid(dbManager)</text>
    <line style="stroke:#181818;stroke-width:1.0;" x1="193.5" x2="235.5" y1="305.0703" y2="305.0703"/>
    <line style="stroke:#181818;stroke-width:1.0;" x1="235.5" x2="235.5" y1="305.0703" y2="318.0703"/>
    <line style="stroke:#181818;stroke-width:1.0;" x1="194.5" x2="235.5" y1="318.0703" y2="318.0703"/>
    <polygon fill="#181818" points="204.5,314.0703,194.5,318.0703,204.5,322.0703,200.5,318.0703" style="stroke:#181818;stroke-width:1.0;"/>
    <text fill="#000000" font-family="sans-serif" font-size="13" lengthAdjust="spacing" textLength="243" x="200.5" y="300.2139">CreateDBConnectionError(response, data)</text>
    <polygon fill="#181818" points="58.5,344.4219,48.5,348.4219,58.5,352.4219,54.5,348.4219" style="stroke:#181818;stroke-width:1.0;"/>
    <line style="stroke:#181818;stroke-width:1.0;" x1="52.5" x2="187.5" y1="348.4219" y2="348.4219"/>
    <text fill="#000000" font-family="sans-serif" font-size="13" lengthAdjust="spacing" textLength="90" x="64.5" y="343.5654">return response</text>
    <line style="stroke:#000000;stroke-width:1.0;stroke-dasharray:2.0,2.0;" x1="10" x2="1065" y1="357.4219" y2="357.4219"/>
    <text fill="#000000" font-family="sans-serif" font-size="11" font-weight="bold" lengthAdjust="spacing" textLength="114" x="15" y="368.8408">[DB connection valid]</text>
    <polygon fill="#181818" points="850,390.6094,860,394.6094,850,398.6094,854,394.6094" style="stroke:#181818;stroke-width:1.0;"/>
    <line style="stroke:#181818;stroke-width:1.0;" x1="188.5" x2="856" y1="394.6094" y2="394.6094"/>
    <text fill="#000000" font-family="sans-serif" font-size="13" lengthAdjust="spacing" textLength="506" x="195.5" y="389.7529">select("balance").table("Accounts").where("account_number =", accountNumber).exec()</text>
    <polygon fill="#181818" points="993.5,420.9609,1003.5,424.9609,993.5,428.9609,997.5,424.9609" style="stroke:#181818;stroke-width:1.0;"/>
    <line style="stroke:#181818;stroke-width:1.0;" x1="867" x2="999.5" y1="424.9609" y2="424.9609"/>
    <text fill="#000000" font-family="sans-serif" font-size="13" lengthAdjust="spacing" textLength="69" x="874" y="420.1045">return result</text>
    <polygon fill="#181818" points="199.5,451.3125,189.5,455.3125,199.5,459.3125,195.5,455.3125" style="stroke:#181818;stroke-width:1.0;"/>
    <line style="stroke:#181818;stroke-width:1.0;" x1="193.5" x2="1004.5" y1="455.3125" y2="455.3125"/>
    <text fill="#000000" font-family="sans-serif" font-size="13" lengthAdjust="spacing" textLength="132" x="205.5" y="450.4561">return account balance</text>
    <path d="M20,470.3125 L81,470.3125 L81,478.6641 L71,488.6641 L20,488.6641 L20,470.3125 " fill="#EEEEEE" style="stroke:#000000;stroke-width:1.5;"/>
    <rect fill="none" height="168.5938" style="stroke:#000000;stroke-width:1.5;" width="581" x="20" y="470.3125"/>
    <text fill="#000000" font-family="sans-serif" font-size="13" font-weight="bold" lengthAdjust="spacing" textLength="16" x="35" y="484.8076">alt</text>
    <text fill="#000000" font-family="sans-serif" font-size="11" font-weight="bold" lengthAdjust="spacing" textLength="107" x="96" y="483.7314">[account not found]</text>
    <line style="stroke:#181818;stroke-width:1.0;" x1="188.5" x2="230.5" y1="511.0156" y2="511.0156"/>
    <line style="stroke:#181818;stroke-width:1.0;" x1="230.5" x2="230.5" y1="511.0156" y2="524.0156"/>
    <line style="stroke:#181818;stroke-width:1.0;" x1="189.5" x2="230.5" y1="524.0156" y2="524.0156"/>
    <polygon fill="#181818" points="199.5,520.0156,189.5,524.0156,199.5,528.0156,195.5,524.0156" style="stroke:#181818;stroke-width:1.0;"/>
    <text fill="#000000" font-family="sans-serif" font-size="13" lengthAdjust="spacing" textLength="341" x="195.5" y="506.1592">CreateErrorResponse(response, data, "Account not found")</text>
    <polygon fill="#181818" points="58.5,550.3672,48.5,554.3672,58.5,558.3672,54.5,554.3672" style="stroke:#181818;stroke-width:1.0;"/>
    <line style="stroke:#181818;stroke-width:1.0;" x1="52.5" x2="187.5" y1="554.3672" y2="554.3672"/>
    <text fill="#000000" font-family="sans-serif" font-size="13" lengthAdjust="spacing" textLength="90" x="64.5" y="549.5107">return response</text>
    <line style="stroke:#000000;stroke-width:1.0;stroke-dasharray:2.0,2.0;" x1="20" x2="601" y1="563.3672" y2="563.3672"/>
    <text fill="#000000" font-family="sans-serif" font-size="11" font-weight="bold" lengthAdjust="spacing" textLength="86" x="25" y="574.7861">[account found]</text>
    <polygon fill="#181818" points="531.5,596.5547,541.5,600.5547,531.5,604.5547,535.5,600.5547" style="stroke:#181818;stroke-width:1.0;"/>
    <line style="stroke:#181818;stroke-width:1.0;" x1="188.5" x2="537.5" y1="600.5547" y2="600.5547"/>
    <text fill="#000000" font-family="sans-serif" font-size="13" lengthAdjust="spacing" textLength="164" x="195.5" y="595.6982">construct success response</text>
    <polygon fill="#181818" points="58.5,626.9063,48.5,630.9063,58.5,634.9063,54.5,630.9063" style="stroke:#181818;stroke-width:1.0;"/>
    <line style="stroke:#181818;stroke-width:1.0;" x1="52.5" x2="542.5" y1="630.9063" y2="630.9063"/>
    <text fill="#000000" font-family="sans-serif" font-size="13" lengthAdjust="spacing" textLength="90" x="64.5" y="626.0498">return response</text>
  </g>
</svg>
