<svg xmlns="http://www.w3.org/2000/svg" xmlns:xlink="http://www.w3.org/1999/xlink" contentStyleType="text/css" height="1214px" preserveAspectRatio="none" style="width:1227px;height:1214px;background:#FFFFFF;" version="1.1" viewBox="0 0 1227 1214" width="1227px" zoomAndPan="magnify"><defs/><g><rect fill="#FFFFFF" height="233.4609" style="stroke:#181818;stroke-width:1.0;" width="10" x="203.5" y="114.9609"/><rect fill="#FFFFFF" height="976.8359" style="stroke:#181818;stroke-width:1.0;" width="10" x="843.5" y="145.3125"/><rect fill="#FFFFFF" height="30.3516" style="stroke:#181818;stroke-width:1.0;" width="10" x="985" y="394.6094"/><rect fill="#FFFFFF" height="30.3516" style="stroke:#181818;stroke-width:1.0;" width="10" x="985" y="758.7969"/><rect fill="#FFFFFF" height="30.3516" style="stroke:#181818;stroke-width:1.0;" width="10" x="985" y="964.7422"/><rect fill="none" height="894.1328" style="stroke:#000000;stroke-width:1.5;" width="1210.5" x="10" y="221.0156"/><rect fill="none" height="637.8359" style="stroke:#000000;stroke-width:1.5;" width="1190.5" x="20" y="470.3125"/><rect fill="none" height="472.5938" style="stroke:#000000;stroke-width:1.5;" width="1170.5" x="30" y="628.5547"/><rect fill="none" height="259.6484" style="stroke:#000000;stroke-width:1.5;" width="1150.5" x="40" y="834.5"/><line style="stroke:#181818;stroke-width:0.5;stroke-dasharray:5.0,5.0;" x1="67" x2="67" y1="82.6094" y2="1132.1484"/><line style="stroke:#181818;stroke-width:0.5;stroke-dasharray:5.0,5.0;" x1="208" x2="208" y1="82.6094" y2="1132.1484"/><line style="stroke:#181818;stroke-width:0.5;stroke-dasharray:5.0,5.0;" x1="666" x2="666" y1="82.6094" y2="1132.1484"/><line style="stroke:#181818;stroke-width:0.5;stroke-dasharray:5.0,5.0;" x1="755" x2="755" y1="82.6094" y2="1132.1484"/><line style="stroke:#181818;stroke-width:0.5;stroke-dasharray:5.0,5.0;" x1="848" x2="848" y1="82.6094" y2="1132.1484"/><line style="stroke:#181818;stroke-width:0.5;stroke-dasharray:5.0,5.0;" x1="990" x2="990" y1="82.6094" y2="1132.1484"/><line style="stroke:#181818;stroke-width:0.5;stroke-dasharray:5.0,5.0;" x1="1130.5" x2="1130.5" y1="82.6094" y2="1132.1484"/><text fill="#000000" font-family="sans-serif" font-size="14" lengthAdjust="spacing" textLength="29" x="50" y="79.5332">User</text><ellipse cx="67.5" cy="13.5" fill="#E2E2F0" rx="8" ry="8" style="stroke:#181818;stroke-width:0.5;"/><path d="M67.5,21.5 L67.5,48.5 M54.5,29.5 L80.5,29.5 M67.5,48.5 L54.5,63.5 M67.5,48.5 L80.5,63.5 " fill="none" style="stroke:#181818;stroke-width:0.5;"/><text fill="#000000" font-family="sans-serif" font-size="14" lengthAdjust="spacing" textLength="29" x="50" y="1145.6816">User</text><ellipse cx="67.5" cy="1157.2578" fill="#E2E2F0" rx="8" ry="8" style="stroke:#181818;stroke-width:0.5;"/><path d="M67.5,1165.2578 L67.5,1192.2578 M54.5,1173.2578 L80.5,1173.2578 M67.5,1192.2578 L54.5,1207.2578 M67.5,1192.2578 L80.5,1207.2578 " fill="none" style="stroke:#181818;stroke-width:0.5;"/><rect fill="#E2E2F0" height="31.6094" rx="2.5" ry="2.5" style="stroke:#181818;stroke-width:0.5;" width="151" x="133" y="50"/><text fill="#000000" font-family="sans-serif" font-size="14" lengthAdjust="spacing" textLength="137" x="140" y="71.5332">GetDatabaseRequest</text><rect fill="#E2E2F0" height="31.6094" rx="2.5" ry="2.5" style="stroke:#181818;stroke-width:0.5;" width="151" x="133" y="1131.1484"/><text fill="#000000" font-family="sans-serif" font-size="14" lengthAdjust="spacing" textLength="137" x="140" y="1152.6816">GetDatabaseRequest</text><rect fill="#E2E2F0" height="31.6094" rx="2.5" ry="2.5" style="stroke:#181818;stroke-width:0.5;" width="95" x="619" y="50"/><text fill="#000000" font-family="sans-serif" font-size="14" lengthAdjust="spacing" textLength="81" x="626" y="71.5332">QJsonObject</text><rect fill="#E2E2F0" height="31.6094" rx="2.5" ry="2.5" style="stroke:#181818;stroke-width:0.5;" width="95" x="619" y="1131.1484"/><text fill="#000000" font-family="sans-serif" font-size="14" lengthAdjust="spacing" textLength="81" x="626" y="1152.6816">QJsonObject</text><rect fill="#E2E2F0" height="31.6094" rx="2.5" ry="2.5" style="stroke:#181818;stroke-width:0.5;" width="62" x="724" y="50"/><text fill="#000000" font-family="sans-serif" font-size="14" lengthAdjust="spacing" textLength="48" x="731" y="71.5332">QMutex</text><rect fill="#E2E2F0" height="31.6094" rx="2.5" ry="2.5" style="stroke:#181818;stroke-width:0.5;" width="62" x="724" y="1131.1484"/><text fill="#000000" font-family="sans-serif" font-size="14" lengthAdjust="spacing" textLength="48" x="731" y="1152.6816">QMutex</text><rect fill="#E2E2F0" height="31.6094" rx="2.5" ry="2.5" style="stroke:#181818;stroke-width:0.5;" width="105" x="796" y="50"/><text fill="#000000" font-family="sans-serif" font-size="14" lengthAdjust="spacing" textLength="91" x="803" y="71.5332">QMutexLocker</text><rect fill="#E2E2F0" height="31.6094" rx="2.5" ry="2.5" style="stroke:#181818;stroke-width:0.5;" width="105" x="796" y="1131.1484"/><text fill="#000000" font-family="sans-serif" font-size="14" lengthAdjust="spacing" textLength="91" x="803" y="1152.6816">QMutexLocker</text><rect fill="#E2E2F0" height="31.6094" rx="2.5" ry="2.5" style="stroke:#181818;stroke-width:0.5;" width="158" x="911" y="50"/><text fill="#000000" font-family="sans-serif" font-size="14" lengthAdjust="spacing" textLength="144" x="918" y="71.5332">DB::DatabaseManager</text><rect fill="#E2E2F0" height="31.6094" rx="2.5" ry="2.5" style="stroke:#181818;stroke-width:0.5;" width="158" x="911" y="1131.1484"/><text fill="#000000" font-family="sans-serif" font-size="14" lengthAdjust="spacing" textLength="144" x="918" y="1152.6816">DB::DatabaseManager</text><rect fill="#E2E2F0" height="31.6094" rx="2.5" ry="2.5" style="stroke:#181818;stroke-width:0.5;" width="99" x="1081.5" y="50"/><text fill="#000000" font-family="sans-serif" font-size="14" lengthAdjust="spacing" textLength="85" x="1088.5" y="71.5332">DB::DbResult</text><rect fill="#E2E2F0" height="31.6094" rx="2.5" ry="2.5" style="stroke:#181818;stroke-width:0.5;" width="99" x="1081.5" y="1131.1484"/><text fill="#000000" font-family="sans-serif" font-size="14" lengthAdjust="spacing" textLength="85" x="1088.5" y="1152.6816">DB::DbResult</text><rect fill="#FFFFFF" height="233.4609" style="stroke:#181818;stroke-width:1.0;" width="10" x="203.5" y="114.9609"/><rect fill="#FFFFFF" height="976.8359" style="stroke:#181818;stroke-width:1.0;" width="10" x="843.5" y="145.3125"/><rect fill="#FFFFFF" height="30.3516" style="stroke:#181818;stroke-width:1.0;" width="10" x="985" y="394.6094"/><rect fill="#FFFFFF" height="30.3516" style="stroke:#181818;stroke-width:1.0;" width="10" x="985" y="758.7969"/><rect fill="#FFFFFF" height="30.3516" style="stroke:#181818;stroke-width:1.0;" width="10" x="985" y="964.7422"/><polygon fill="#181818" points="191.5,110.9609,201.5,114.9609,191.5,118.9609,195.5,114.9609" style="stroke:#181818;stroke-width:1.0;"/><line style="stroke:#181818;stroke-width:1.0;" x1="67.5" x2="197.5" y1="114.9609" y2="114.9609"/><text fill="#000000" font-family="sans-serif" font-size="13" lengthAdjust="spacing" textLength="117" x="74.5" y="110.1045">execute(jsonObj, m)</text><polygon fill="#181818" points="831.5,141.3125,841.5,145.3125,831.5,149.3125,835.5,145.3125" style="stroke:#181818;stroke-width:1.0;"/><line style="stroke:#181818;stroke-width:1.0;" x1="213.5" x2="837.5" y1="145.3125" y2="145.3125"/><text fill="#000000" font-family="sans-serif" font-size="13" lengthAdjust="spacing" textLength="113" x="220.5" y="140.4561">QMutexLocker(&amp;m)</text><polygon fill="#181818" points="654.5,171.6641,664.5,175.6641,654.5,179.6641,658.5,175.6641" style="stroke:#181818;stroke-width:1.0;"/><line style="stroke:#181818;stroke-width:1.0;" x1="213.5" x2="660.5" y1="175.6641" y2="175.6641"/><text fill="#000000" font-family="sans-serif" font-size="13" lengthAdjust="spacing" textLength="114" x="220.5" y="170.8076">extract admin email</text><polygon fill="#181818" points="224.5,202.0156,214.5,206.0156,224.5,210.0156,220.5,206.0156" style="stroke:#181818;stroke-width:1.0;"/><line style="stroke:#181818;stroke-width:1.0;" x1="218.5" x2="665.5" y1="206.0156" y2="206.0156"/><text fill="#000000" font-family="sans-serif" font-size="13" lengthAdjust="spacing" textLength="107" x="230.5" y="201.1592">return admin email</text><path d="M10,221.0156 L71,221.0156 L71,229.3672 L61,239.3672 L10,239.3672 L10,221.0156 " fill="#EEEEEE" style="stroke:#000000;stroke-width:1.5;"/><rect fill="none" height="894.1328" style="stroke:#000000;stroke-width:1.5;" width="1210.5" x="10" y="221.0156"/><text fill="#000000" font-family="sans-serif" font-size="13" font-weight="bold" lengthAdjust="spacing" textLength="16" x="25" y="235.5107">alt</text><text fill="#000000" font-family="sans-serif" font-size="11" font-weight="bold" lengthAdjust="spacing" textLength="124" x="86" y="234.4346">[DB connection invalid]</text><line style="stroke:#181818;stroke-width:1.0;" x1="213.5" x2="255.5" y1="261.7188" y2="261.7188"/><line style="stroke:#181818;stroke-width:1.0;" x1="255.5" x2="255.5" y1="261.7188" y2="274.7188"/><line style="stroke:#181818;stroke-width:1.0;" x1="214.5" x2="255.5" y1="274.7188" y2="274.7188"/><polygon fill="#181818" points="224.5,270.7188,214.5,274.7188,224.5,278.7188,220.5,274.7188" style="stroke:#181818;stroke-width:1.0;"/><text fill="#000000" font-family="sans-serif" font-size="13" lengthAdjust="spacing" textLength="194" x="220.5" y="256.8623">isDBConnectionValid(dbManager)</text><line style="stroke:#181818;stroke-width:1.0;" x1="213.5" x2="255.5" y1="305.0703" y2="305.0703"/><line style="stroke:#181818;stroke-width:1.0;" x1="255.5" x2="255.5" y1="305.0703" y2="318.0703"/><line style="stroke:#181818;stroke-width:1.0;" x1="214.5" x2="255.5" y1="318.0703" y2="318.0703"/><polygon fill="#181818" points="224.5,314.0703,214.5,318.0703,224.5,322.0703,220.5,318.0703" style="stroke:#181818;stroke-width:1.0;"/><text fill="#000000" font-family="sans-serif" font-size="13" lengthAdjust="spacing" textLength="243" x="220.5" y="300.2139">CreateDBConnectionError(response, data)</text><polygon fill="#181818" points="78.5,344.4219,68.5,348.4219,78.5,352.4219,74.5,348.4219" style="stroke:#181818;stroke-width:1.0;"/><line style="stroke:#181818;stroke-width:1.0;" x1="72.5" x2="207.5" y1="348.4219" y2="348.4219"/><text fill="#000000" font-family="sans-serif" font-size="13" lengthAdjust="spacing" textLength="90" x="84.5" y="343.5654">return response</text><line style="stroke:#000000;stroke-width:1.0;stroke-dasharray:2.0,2.0;" x1="10" x2="1220.5" y1="357.4219" y2="357.4219"/><text fill="#000000" font-family="sans-serif" font-size="11" font-weight="bold" lengthAdjust="spacing" textLength="114" x="15" y="368.8408">[DB connection valid]</text><polygon fill="#181818" points="973,390.6094,983,394.6094,973,398.6094,977,394.6094" style="stroke:#181818;stroke-width:1.0;"/><line style="stroke:#181818;stroke-width:1.0;" x1="208.5" x2="979" y1="394.6094" y2="394.6094"/><text fill="#000000" font-family="sans-serif" font-size="13" lengthAdjust="spacing" textLength="378" x="215.5" y="389.7529">select("role").table("Users").where("email =", admin_email).exec()</text><polygon fill="#181818" points="1119,420.9609,1129,424.9609,1119,428.9609,1123,424.9609" style="stroke:#181818;stroke-width:1.0;"/><line style="stroke:#181818;stroke-width:1.0;" x1="990" x2="1125" y1="424.9609" y2="424.9609"/><text fill="#000000" font-family="sans-serif" font-size="13" lengthAdjust="spacing" textLength="69" x="997" y="420.1045">return result</text><polygon fill="#181818" points="219.5,451.3125,209.5,455.3125,219.5,459.3125,215.5,455.3125" style="stroke:#181818;stroke-width:1.0;"/><line style="stroke:#181818;stroke-width:1.0;" x1="213.5" x2="1130" y1="455.3125" y2="455.3125"/><text fill="#000000" font-family="sans-serif" font-size="13" lengthAdjust="spacing" textLength="87" x="225.5" y="450.4561">return user role</text><path d="M20,470.3125 L81,470.3125 L81,478.6641 L71,488.6641 L20,488.6641 L20,470.3125 " fill="#EEEEEE" style="stroke:#000000;stroke-width:1.5;"/><rect fill="none" height="637.8359" style="stroke:#000000;stroke-width:1.5;" width="1190.5" x="20" y="470.3125"/><text fill="#000000" font-family="sans-serif" font-size="13" font-weight="bold" lengthAdjust="spacing" textLength="16" x="35" y="484.8076">alt</text><text fill="#000000" font-family="sans-serif" font-size="11" font-weight="bold" lengthAdjust="spacing" textLength="90" x="96" y="483.7314">[user not found]</text><line style="stroke:#181818;stroke-width:1.0;" x1="208.5" x2="250.5" y1="511.0156" y2="511.0156"/><line style="stroke:#181818;stroke-width:1.0;" x1="250.5" x2="250.5" y1="511.0156" y2="524.0156"/><line style="stroke:#181818;stroke-width:1.0;" x1="209.5" x2="250.5" y1="524.0156" y2="524.0156"/><polygon fill="#181818" points="219.5,520.0156,209.5,524.0156,219.5,528.0156,215.5,524.0156" style="stroke:#181818;stroke-width:1.0;"/><text fill="#000000" font-family="sans-serif" font-size="13" lengthAdjust="spacing" textLength="394" x="215.5" y="506.1592">CreateErrorResponse(response, data, "you are not registered user!")</text><polygon fill="#181818" points="78.5,550.3672,68.5,554.3672,78.5,558.3672,74.5,554.3672" style="stroke:#181818;stroke-width:1.0;"/><line style="stroke:#181818;stroke-width:1.0;" x1="72.5" x2="207.5" y1="554.3672" y2="554.3672"/><text fill="#000000" font-family="sans-serif" font-size="13" lengthAdjust="spacing" textLength="90" x="84.5" y="549.5107">return response</text><line style="stroke:#000000;stroke-width:1.0;stroke-dasharray:2.0,2.0;" x1="20" x2="1210.5" y1="563.3672" y2="563.3672"/><text fill="#000000" font-family="sans-serif" font-size="11" font-weight="bold" lengthAdjust="spacing" textLength="69" x="25" y="574.7861">[user found]</text><line style="stroke:#181818;stroke-width:1.0;" x1="208.5" x2="250.5" y1="600.5547" y2="600.5547"/><line style="stroke:#181818;stroke-width:1.0;" x1="250.5" x2="250.5" y1="600.5547" y2="613.5547"/><line style="stroke:#181818;stroke-width:1.0;" x1="209.5" x2="250.5" y1="613.5547" y2="613.5547"/><polygon fill="#181818" points="219.5,609.5547,209.5,613.5547,219.5,617.5547,215.5,613.5547" style="stroke:#181818;stroke-width:1.0;"/><text fill="#000000" font-family="sans-serif" font-size="13" lengthAdjust="spacing" textLength="99" x="215.5" y="595.6982">check admin role</text><path d="M30,628.5547 L91,628.5547 L91,636.9063 L81,646.9063 L30,646.9063 L30,628.5547 " fill="#EEEEEE" style="stroke:#000000;stroke-width:1.5;"/><rect fill="none" height="472.5938" style="stroke:#000000;stroke-width:1.5;" width="1170.5" x="30" y="628.5547"/><text fill="#000000" font-family="sans-serif" font-size="13" font-weight="bold" lengthAdjust="spacing" textLength="16" x="45" y="643.0498">alt</text><text fill="#000000" font-family="sans-serif" font-size="11" font-weight="bold" lengthAdjust="spacing" textLength="63" x="106" y="641.9736">[not admin]</text><line style="stroke:#181818;stroke-width:1.0;" x1="208.5" x2="250.5" y1="669.2578" y2="669.2578"/><line style="stroke:#181818;stroke-width:1.0;" x1="250.5" x2="250.5" y1="669.2578" y2="682.2578"/><line style="stroke:#181818;stroke-width:1.0;" x1="209.5" x2="250.5" y1="682.2578" y2="682.2578"/><polygon fill="#181818" points="219.5,678.2578,209.5,682.2578,219.5,686.2578,215.5,682.2578" style="stroke:#181818;stroke-width:1.0;"/><text fill="#000000" font-family="sans-serif" font-size="13" lengthAdjust="spacing" textLength="444" x="215.5" y="664.4014">CreateErrorResponse(response, data, "Unauthorized, Cannot get database.")</text><polygon fill="#181818" points="78.5,708.6094,68.5,712.6094,78.5,716.6094,74.5,712.6094" style="stroke:#181818;stroke-width:1.0;"/><line style="stroke:#181818;stroke-width:1.0;" x1="72.5" x2="207.5" y1="712.6094" y2="712.6094"/><text fill="#000000" font-family="sans-serif" font-size="13" lengthAdjust="spacing" textLength="90" x="84.5" y="707.7529">return response</text><line style="stroke:#000000;stroke-width:1.0;stroke-dasharray:2.0,2.0;" x1="30" x2="1200.5" y1="721.6094" y2="721.6094"/><text fill="#000000" font-family="sans-serif" font-size="11" font-weight="bold" lengthAdjust="spacing" textLength="42" x="35" y="733.0283">[admin]</text><polygon fill="#181818" points="973,754.7969,983,758.7969,973,762.7969,977,758.7969" style="stroke:#181818;stroke-width:1.0;"/><line style="stroke:#181818;stroke-width:1.0;" x1="208.5" x2="979" y1="758.7969" y2="758.7969"/><text fill="#000000" font-family="sans-serif" font-size="13" lengthAdjust="spacing" textLength="182" x="215.5" y="753.9404">select("*").table("Users").exec()</text><polygon fill="#181818" points="1119,785.1484,1129,789.1484,1119,793.1484,1123,789.1484" style="stroke:#181818;stroke-width:1.0;"/><line style="stroke:#181818;stroke-width:1.0;" x1="990" x2="1125" y1="789.1484" y2="789.1484"/><text fill="#000000" font-family="sans-serif" font-size="13" lengthAdjust="spacing" textLength="86" x="997" y="784.292">return all users</text><polygon fill="#181818" points="219.5,815.5,209.5,819.5,219.5,823.5,215.5,819.5" style="stroke:#181818;stroke-width:1.0;"/><line style="stroke:#181818;stroke-width:1.0;" x1="213.5" x2="1130" y1="819.5" y2="819.5"/><text fill="#000000" font-family="sans-serif" font-size="13" lengthAdjust="spacing" textLength="91" x="225.5" y="814.6436">return user data</text><path d="M40,834.5 L101,834.5 L101,842.8516 L91,852.8516 L40,852.8516 L40,834.5 " fill="#EEEEEE" style="stroke:#000000;stroke-width:1.5;"/><rect fill="none" height="259.6484" style="stroke:#000000;stroke-width:1.5;" width="1150.5" x="40" y="834.5"/><text fill="#000000" font-family="sans-serif" font-size="13" font-weight="bold" lengthAdjust="spacing" textLength="16" x="55" y="848.9951">alt</text><text fill="#000000" font-family="sans-serif" font-size="11" font-weight="bold" lengthAdjust="spacing" textLength="93" x="116" y="847.9189">[no users found]</text><line style="stroke:#181818;stroke-width:1.0;" x1="208.5" x2="250.5" y1="875.2031" y2="875.2031"/><line style="stroke:#181818;stroke-width:1.0;" x1="250.5" x2="250.5" y1="875.2031" y2="888.2031"/><line style="stroke:#181818;stroke-width:1.0;" x1="209.5" x2="250.5" y1="888.2031" y2="888.2031"/><polygon fill="#181818" points="219.5,884.2031,209.5,888.2031,219.5,892.2031,215.5,888.2031" style="stroke:#181818;stroke-width:1.0;"/><text fill="#000000" font-family="sans-serif" font-size="13" lengthAdjust="spacing" textLength="316" x="215.5" y="870.3467">CreateErrorResponse(response, data, "No data found")</text><polygon fill="#181818" points="78.5,914.5547,68.5,918.5547,78.5,922.5547,74.5,918.5547" style="stroke:#181818;stroke-width:1.0;"/><line style="stroke:#181818;stroke-width:1.0;" x1="72.5" x2="207.5" y1="918.5547" y2="918.5547"/><text fill="#000000" font-family="sans-serif" font-size="13" lengthAdjust="spacing" textLength="90" x="84.5" y="913.6982">return response</text><line style="stroke:#000000;stroke-width:1.0;stroke-dasharray:2.0,2.0;" x1="40" x2="1190.5" y1="927.5547" y2="927.5547"/><text fill="#000000" font-family="sans-serif" font-size="11" font-weight="bold" lengthAdjust="spacing" textLength="76" x="45" y="938.9736">[users found]</text><polygon fill="#181818" points="973,960.7422,983,964.7422,973,968.7422,977,964.7422" style="stroke:#181818;stroke-width:1.0;"/><line style="stroke:#181818;stroke-width:1.0;" x1="208.5" x2="979" y1="964.7422" y2="964.7422"/><text fill="#000000" font-family="sans-serif" font-size="13" lengthAdjust="spacing" textLength="680" x="215.5" y="959.8857">select("A.account_number, A.balance, U.email").table("Accounts A").join("JOIN Users U ON A.user_id = U.id").exec()</text><polygon fill="#181818" points="1119,991.0938,1129,995.0938,1119,999.0938,1123,995.0938" style="stroke:#181818;stroke-width:1.0;"/><line style="stroke:#181818;stroke-width:1.0;" x1="990" x2="1125" y1="995.0938" y2="995.0938"/><text fill="#000000" font-family="sans-serif" font-size="13" lengthAdjust="spacing" textLength="112" x="997" y="990.2373">return account data</text><polygon fill="#181818" points="219.5,1021.4453,209.5,1025.4453,219.5,1029.4453,215.5,1025.4453" style="stroke:#181818;stroke-width:1.0;"/><line style="stroke:#181818;stroke-width:1.0;" x1="213.5" x2="1130" y1="1025.4453" y2="1025.4453"/><text fill="#000000" font-family="sans-serif" font-size="13" lengthAdjust="spacing" textLength="150" x="225.5" y="1020.5889">return account information</text><polygon fill="#181818" points="654.5,1051.7969,664.5,1055.7969,654.5,1059.7969,658.5,1055.7969" style="stroke:#181818;stroke-width:1.0;"/><line style="stroke:#181818;stroke-width:1.0;" x1="208.5" x2="660.5" y1="1055.7969" y2="1055.7969"/><text fill="#000000" font-family="sans-serif" font-size="13" lengthAdjust="spacing" textLength="164" x="215.5" y="1050.9404">construct success response</text><polygon fill="#181818" points="78.5,1082.1484,68.5,1086.1484,78.5,1090.1484,74.5,1086.1484" style="stroke:#181818;stroke-width:1.0;"/><line style="stroke:#181818;stroke-width:1.0;" x1="72.5" x2="665.5" y1="1086.1484" y2="1086.1484"/><text fill="#000000" font-family="sans-serif" font-size="13" lengthAdjust="spacing" textLength="90" x="84.5" y="1081.292">return response</text></g></svg>