<svg xmlns="http://www.w3.org/2000/svg" xmlns:xlink="http://www.w3.org/1999/xlink" contentStyleType="text/css" height="1536px" preserveAspectRatio="none" style="width:1438px;height:1536px;background:#FFFFFF;" version="1.1" viewBox="0 0 1438 1536" width="1438px" zoomAndPan="magnify"><defs/><g><rect fill="#FFFFFF" height="233.4609" style="stroke:#181818;stroke-width:1.0;" width="10" x="213.5" y="114.9609"/><rect fill="#FFFFFF" height="1298.6719" style="stroke:#181818;stroke-width:1.0;" width="10" x="803.5" y="145.3125"/><rect fill="#FFFFFF" height="30.3516" style="stroke:#181818;stroke-width:1.0;" width="10" x="1160.5" y="394.6094"/><rect fill="#FFFFFF" height="30.3516" style="stroke:#181818;stroke-width:1.0;" width="10" x="1160.5" y="669.2578"/><rect fill="#FFFFFF" height="30.3516" style="stroke:#181818;stroke-width:1.0;" width="10" x="1160.5" y="875.2031"/><rect fill="#FFFFFF" height="30.3516" style="stroke:#181818;stroke-width:1.0;" width="10" x="1160.5" y="1171.6875"/><rect fill="none" height="1215.9688" style="stroke:#000000;stroke-width:1.5;" width="1421" x="10" y="221.0156"/><rect fill="none" height="959.6719" style="stroke:#000000;stroke-width:1.5;" width="1401" x="20" y="470.3125"/><rect fill="none" height="794.4297" style="stroke:#000000;stroke-width:1.5;" width="1381" x="30" y="628.5547"/><rect fill="none" height="381.5391" style="stroke:#000000;stroke-width:1.5;" width="1361" x="40" y="744.9609"/><rect fill="none" height="168.5938" style="stroke:#000000;stroke-width:1.5;" width="634" x="50" y="950.9063"/><rect fill="none" height="168.5938" style="stroke:#000000;stroke-width:1.5;" width="634" x="50" y="1247.3906"/><line style="stroke:#181818;stroke-width:0.5;stroke-dasharray:5.0,5.0;" x1="77" x2="77" y1="82.6094" y2="1453.9844"/><line style="stroke:#181818;stroke-width:0.5;stroke-dasharray:5.0,5.0;" x1="218" x2="218" y1="82.6094" y2="1453.9844"/><line style="stroke:#181818;stroke-width:0.5;stroke-dasharray:5.0,5.0;" x1="626" x2="626" y1="82.6094" y2="1453.9844"/><line style="stroke:#181818;stroke-width:0.5;stroke-dasharray:5.0,5.0;" x1="715" x2="715" y1="82.6094" y2="1453.9844"/><line style="stroke:#181818;stroke-width:0.5;stroke-dasharray:5.0,5.0;" x1="808" x2="808" y1="82.6094" y2="1453.9844"/><line style="stroke:#181818;stroke-width:0.5;stroke-dasharray:5.0,5.0;" x1="1165.5" x2="1165.5" y1="82.6094" y2="1453.9844"/><line style="stroke:#181818;stroke-width:0.5;stroke-dasharray:5.0,5.0;" x1="1341" x2="1341" y1="82.6094" y2="1453.9844"/><text fill="#000000" font-family="sans-serif" font-size="14" lengthAdjust="spacing" textLength="29" x="60" y="79.5332">User</text><ellipse cx="77.5" cy="13.5" fill="#E2E2F0" rx="8" ry="8" style="stroke:#181818;stroke-width:0.5;"/><path d="M77.5,21.5 L77.5,48.5 M64.5,29.5 L90.5,29.5 M77.5,48.5 L64.5,63.5 M77.5,48.5 L90.5,63.5 " fill="none" style="stroke:#181818;stroke-width:0.5;"/><text fill="#000000" font-family="sans-serif" font-size="14" lengthAdjust="spacing" textLength="29" x="60" y="1467.5176">User</text><ellipse cx="77.5" cy="1479.0938" fill="#E2E2F0" rx="8" ry="8" style="stroke:#181818;stroke-width:0.5;"/><path d="M77.5,1487.0938 L77.5,1514.0938 M64.5,1495.0938 L90.5,1495.0938 M77.5,1514.0938 L64.5,1529.0938 M77.5,1514.0938 L90.5,1529.0938 " fill="none" style="stroke:#181818;stroke-width:0.5;"/><rect fill="#E2E2F0" height="31.6094" rx="2.5" ry="2.5" style="stroke:#181818;stroke-width:0.5;" width="215" x="111" y="50"/><text fill="#000000" font-family="sans-serif" font-size="14" lengthAdjust="spacing" textLength="201" x="118" y="71.5332">GetTransactionsHistoryRequest</text><rect fill="#E2E2F0" height="31.6094" rx="2.5" ry="2.5" style="stroke:#181818;stroke-width:0.5;" width="215" x="111" y="1452.9844"/><text fill="#000000" font-family="sans-serif" font-size="14" lengthAdjust="spacing" textLength="201" x="118" y="1474.5176">GetTransactionsHistoryRequest</text><rect fill="#E2E2F0" height="31.6094" rx="2.5" ry="2.5" style="stroke:#181818;stroke-width:0.5;" width="95" x="579" y="50"/><text fill="#000000" font-family="sans-serif" font-size="14" lengthAdjust="spacing" textLength="81" x="586" y="71.5332">QJsonObject</text><rect fill="#E2E2F0" height="31.6094" rx="2.5" ry="2.5" style="stroke:#181818;stroke-width:0.5;" width="95" x="579" y="1452.9844"/><text fill="#000000" font-family="sans-serif" font-size="14" lengthAdjust="spacing" textLength="81" x="586" y="1474.5176">QJsonObject</text><rect fill="#E2E2F0" height="31.6094" rx="2.5" ry="2.5" style="stroke:#181818;stroke-width:0.5;" width="62" x="684" y="50"/><text fill="#000000" font-family="sans-serif" font-size="14" lengthAdjust="spacing" textLength="48" x="691" y="71.5332">QMutex</text><rect fill="#E2E2F0" height="31.6094" rx="2.5" ry="2.5" style="stroke:#181818;stroke-width:0.5;" width="62" x="684" y="1452.9844"/><text fill="#000000" font-family="sans-serif" font-size="14" lengthAdjust="spacing" textLength="48" x="691" y="1474.5176">QMutex</text><rect fill="#E2E2F0" height="31.6094" rx="2.5" ry="2.5" style="stroke:#181818;stroke-width:0.5;" width="105" x="756" y="50"/><text fill="#000000" font-family="sans-serif" font-size="14" lengthAdjust="spacing" textLength="91" x="763" y="71.5332">QMutexLocker</text><rect fill="#E2E2F0" height="31.6094" rx="2.5" ry="2.5" style="stroke:#181818;stroke-width:0.5;" width="105" x="756" y="1452.9844"/><text fill="#000000" font-family="sans-serif" font-size="14" lengthAdjust="spacing" textLength="91" x="763" y="1474.5176">QMutexLocker</text><rect fill="#E2E2F0" height="31.6094" rx="2.5" ry="2.5" style="stroke:#181818;stroke-width:0.5;" width="158" x="1086.5" y="50"/><text fill="#000000" font-family="sans-serif" font-size="14" lengthAdjust="spacing" textLength="144" x="1093.5" y="71.5332">DB::DatabaseManager</text><rect fill="#E2E2F0" height="31.6094" rx="2.5" ry="2.5" style="stroke:#181818;stroke-width:0.5;" width="158" x="1086.5" y="1452.9844"/><text fill="#000000" font-family="sans-serif" font-size="14" lengthAdjust="spacing" textLength="144" x="1093.5" y="1474.5176">DB::DatabaseManager</text><rect fill="#E2E2F0" height="31.6094" rx="2.5" ry="2.5" style="stroke:#181818;stroke-width:0.5;" width="99" x="1292" y="50"/><text fill="#000000" font-family="sans-serif" font-size="14" lengthAdjust="spacing" textLength="85" x="1299" y="71.5332">DB::DbResult</text><rect fill="#E2E2F0" height="31.6094" rx="2.5" ry="2.5" style="stroke:#181818;stroke-width:0.5;" width="99" x="1292" y="1452.9844"/><text fill="#000000" font-family="sans-serif" font-size="14" lengthAdjust="spacing" textLength="85" x="1299" y="1474.5176">DB::DbResult</text><rect fill="#FFFFFF" height="233.4609" style="stroke:#181818;stroke-width:1.0;" width="10" x="213.5" y="114.9609"/><rect fill="#FFFFFF" height="1298.6719" style="stroke:#181818;stroke-width:1.0;" width="10" x="803.5" y="145.3125"/><rect fill="#FFFFFF" height="30.3516" style="stroke:#181818;stroke-width:1.0;" width="10" x="1160.5" y="394.6094"/><rect fill="#FFFFFF" height="30.3516" style="stroke:#181818;stroke-width:1.0;" width="10" x="1160.5" y="669.2578"/><rect fill="#FFFFFF" height="30.3516" style="stroke:#181818;stroke-width:1.0;" width="10" x="1160.5" y="875.2031"/><rect fill="#FFFFFF" height="30.3516" style="stroke:#181818;stroke-width:1.0;" width="10" x="1160.5" y="1171.6875"/><polygon fill="#181818" points="201.5,110.9609,211.5,114.9609,201.5,118.9609,205.5,114.9609" style="stroke:#181818;stroke-width:1.0;"/><line style="stroke:#181818;stroke-width:1.0;" x1="77.5" x2="207.5" y1="114.9609" y2="114.9609"/><text fill="#000000" font-family="sans-serif" font-size="13" lengthAdjust="spacing" textLength="117" x="84.5" y="110.1045">execute(jsonObj, m)</text><polygon fill="#181818" points="791.5,141.3125,801.5,145.3125,791.5,149.3125,795.5,145.3125" style="stroke:#181818;stroke-width:1.0;"/><line style="stroke:#181818;stroke-width:1.0;" x1="223.5" x2="797.5" y1="145.3125" y2="145.3125"/><text fill="#000000" font-family="sans-serif" font-size="13" lengthAdjust="spacing" textLength="113" x="230.5" y="140.4561">QMutexLocker(&amp;m)</text><polygon fill="#181818" points="614.5,171.6641,624.5,175.6641,614.5,179.6641,618.5,175.6641" style="stroke:#181818;stroke-width:1.0;"/><line style="stroke:#181818;stroke-width:1.0;" x1="223.5" x2="620.5" y1="175.6641" y2="175.6641"/><text fill="#000000" font-family="sans-serif" font-size="13" lengthAdjust="spacing" textLength="118" x="230.5" y="170.8076">extract sender email</text><polygon fill="#181818" points="234.5,202.0156,224.5,206.0156,234.5,210.0156,230.5,206.0156" style="stroke:#181818;stroke-width:1.0;"/><line style="stroke:#181818;stroke-width:1.0;" x1="228.5" x2="625.5" y1="206.0156" y2="206.0156"/><text fill="#000000" font-family="sans-serif" font-size="13" lengthAdjust="spacing" textLength="111" x="240.5" y="201.1592">return sender email</text><path d="M10,221.0156 L71,221.0156 L71,229.3672 L61,239.3672 L10,239.3672 L10,221.0156 " fill="#EEEEEE" style="stroke:#000000;stroke-width:1.5;"/><rect fill="none" height="1215.9688" style="stroke:#000000;stroke-width:1.5;" width="1421" x="10" y="221.0156"/><text fill="#000000" font-family="sans-serif" font-size="13" font-weight="bold" lengthAdjust="spacing" textLength="16" x="25" y="235.5107">alt</text><text fill="#000000" font-family="sans-serif" font-size="11" font-weight="bold" lengthAdjust="spacing" textLength="124" x="86" y="234.4346">[DB connection invalid]</text><line style="stroke:#181818;stroke-width:1.0;" x1="223.5" x2="265.5" y1="261.7188" y2="261.7188"/><line style="stroke:#181818;stroke-width:1.0;" x1="265.5" x2="265.5" y1="261.7188" y2="274.7188"/><line style="stroke:#181818;stroke-width:1.0;" x1="224.5" x2="265.5" y1="274.7188" y2="274.7188"/><polygon fill="#181818" points="234.5,270.7188,224.5,274.7188,234.5,278.7188,230.5,274.7188" style="stroke:#181818;stroke-width:1.0;"/><text fill="#000000" font-family="sans-serif" font-size="13" lengthAdjust="spacing" textLength="194" x="230.5" y="256.8623">isDBConnectionValid(dbManager)</text><line style="stroke:#181818;stroke-width:1.0;" x1="223.5" x2="265.5" y1="305.0703" y2="305.0703"/><line style="stroke:#181818;stroke-width:1.0;" x1="265.5" x2="265.5" y1="305.0703" y2="318.0703"/><line style="stroke:#181818;stroke-width:1.0;" x1="224.5" x2="265.5" y1="318.0703" y2="318.0703"/><polygon fill="#181818" points="234.5,314.0703,224.5,318.0703,234.5,322.0703,230.5,318.0703" style="stroke:#181818;stroke-width:1.0;"/><text fill="#000000" font-family="sans-serif" font-size="13" lengthAdjust="spacing" textLength="243" x="230.5" y="300.2139">CreateDBConnectionError(response, data)</text><polygon fill="#181818" points="88.5,344.4219,78.5,348.4219,88.5,352.4219,84.5,348.4219" style="stroke:#181818;stroke-width:1.0;"/><line style="stroke:#181818;stroke-width:1.0;" x1="82.5" x2="217.5" y1="348.4219" y2="348.4219"/><text fill="#000000" font-family="sans-serif" font-size="13" lengthAdjust="spacing" textLength="90" x="94.5" y="343.5654">return response</text><line style="stroke:#000000;stroke-width:1.0;stroke-dasharray:2.0,2.0;" x1="10" x2="1431" y1="357.4219" y2="357.4219"/><text fill="#000000" font-family="sans-serif" font-size="11" font-weight="bold" lengthAdjust="spacing" textLength="114" x="15" y="368.8408">[DB connection valid]</text><polygon fill="#181818" points="1148.5,390.6094,1158.5,394.6094,1148.5,398.6094,1152.5,394.6094" style="stroke:#181818;stroke-width:1.0;"/><line style="stroke:#181818;stroke-width:1.0;" x1="218.5" x2="1154.5" y1="394.6094" y2="394.6094"/><text fill="#000000" font-family="sans-serif" font-size="13" lengthAdjust="spacing" textLength="382" x="225.5" y="389.7529">select("role").table("Users").where("email =", sender_email).exec()</text><polygon fill="#181818" points="1329.5,420.9609,1339.5,424.9609,1329.5,428.9609,1333.5,424.9609" style="stroke:#181818;stroke-width:1.0;"/><line style="stroke:#181818;stroke-width:1.0;" x1="1165.5" x2="1335.5" y1="424.9609" y2="424.9609"/><text fill="#000000" font-family="sans-serif" font-size="13" lengthAdjust="spacing" textLength="69" x="1172.5" y="420.1045">return result</text><polygon fill="#181818" points="229.5,451.3125,219.5,455.3125,229.5,459.3125,225.5,455.3125" style="stroke:#181818;stroke-width:1.0;"/><line style="stroke:#181818;stroke-width:1.0;" x1="223.5" x2="1340.5" y1="455.3125" y2="455.3125"/><text fill="#000000" font-family="sans-serif" font-size="13" lengthAdjust="spacing" textLength="87" x="235.5" y="450.4561">return user role</text><path d="M20,470.3125 L81,470.3125 L81,478.6641 L71,488.6641 L20,488.6641 L20,470.3125 " fill="#EEEEEE" style="stroke:#000000;stroke-width:1.5;"/><rect fill="none" height="959.6719" style="stroke:#000000;stroke-width:1.5;" width="1401" x="20" y="470.3125"/><text fill="#000000" font-family="sans-serif" font-size="13" font-weight="bold" lengthAdjust="spacing" textLength="16" x="35" y="484.8076">alt</text><text fill="#000000" font-family="sans-serif" font-size="11" font-weight="bold" lengthAdjust="spacing" textLength="90" x="96" y="483.7314">[user not found]</text><line style="stroke:#181818;stroke-width:1.0;" x1="218.5" x2="260.5" y1="511.0156" y2="511.0156"/><line style="stroke:#181818;stroke-width:1.0;" x1="260.5" x2="260.5" y1="511.0156" y2="524.0156"/><line style="stroke:#181818;stroke-width:1.0;" x1="219.5" x2="260.5" y1="524.0156" y2="524.0156"/><polygon fill="#181818" points="229.5,520.0156,219.5,524.0156,229.5,528.0156,225.5,524.0156" style="stroke:#181818;stroke-width:1.0;"/><text fill="#000000" font-family="sans-serif" font-size="13" lengthAdjust="spacing" textLength="394" x="225.5" y="506.1592">CreateErrorResponse(response, data, "you are not registered user!")</text><polygon fill="#181818" points="88.5,550.3672,78.5,554.3672,88.5,558.3672,84.5,554.3672" style="stroke:#181818;stroke-width:1.0;"/><line style="stroke:#181818;stroke-width:1.0;" x1="82.5" x2="217.5" y1="554.3672" y2="554.3672"/><text fill="#000000" font-family="sans-serif" font-size="13" lengthAdjust="spacing" textLength="90" x="94.5" y="549.5107">return response</text><line style="stroke:#000000;stroke-width:1.0;stroke-dasharray:2.0,2.0;" x1="20" x2="1421" y1="563.3672" y2="563.3672"/><text fill="#000000" font-family="sans-serif" font-size="11" font-weight="bold" lengthAdjust="spacing" textLength="69" x="25" y="574.7861">[user found]</text><line style="stroke:#181818;stroke-width:1.0;" x1="218.5" x2="260.5" y1="600.5547" y2="600.5547"/><line style="stroke:#181818;stroke-width:1.0;" x1="260.5" x2="260.5" y1="600.5547" y2="613.5547"/><line style="stroke:#181818;stroke-width:1.0;" x1="219.5" x2="260.5" y1="613.5547" y2="613.5547"/><polygon fill="#181818" points="229.5,609.5547,219.5,613.5547,229.5,617.5547,225.5,613.5547" style="stroke:#181818;stroke-width:1.0;"/><text fill="#000000" font-family="sans-serif" font-size="13" lengthAdjust="spacing" textLength="89" x="225.5" y="595.6982">check user role</text><path d="M30,628.5547 L91,628.5547 L91,636.9063 L81,646.9063 L30,646.9063 L30,628.5547 " fill="#EEEEEE" style="stroke:#000000;stroke-width:1.5;"/><rect fill="none" height="794.4297" style="stroke:#000000;stroke-width:1.5;" width="1381" x="30" y="628.5547"/><text fill="#000000" font-family="sans-serif" font-size="13" font-weight="bold" lengthAdjust="spacing" textLength="16" x="45" y="643.0498">alt</text><text fill="#000000" font-family="sans-serif" font-size="11" font-weight="bold" lengthAdjust="spacing" textLength="59" x="106" y="641.9736">[user role]</text><polygon fill="#181818" points="1148.5,665.2578,1158.5,669.2578,1148.5,673.2578,1152.5,669.2578" style="stroke:#181818;stroke-width:1.0;"/><line style="stroke:#181818;stroke-width:1.0;" x1="218.5" x2="1154.5" y1="669.2578" y2="669.2578"/><text fill="#000000" font-family="sans-serif" font-size="13" lengthAdjust="spacing" textLength="759" x="225.5" y="664.4014">select("A.account_number").table("Users U").join("JOIN Accounts A ON U.id = A.user_id").where("U.email =", sender_email).exec()</text><polygon fill="#181818" points="1329.5,695.6094,1339.5,699.6094,1329.5,703.6094,1333.5,699.6094" style="stroke:#181818;stroke-width:1.0;"/><line style="stroke:#181818;stroke-width:1.0;" x1="1165.5" x2="1335.5" y1="699.6094" y2="699.6094"/><text fill="#000000" font-family="sans-serif" font-size="13" lengthAdjust="spacing" textLength="130" x="1172.5" y="694.7529">return account number</text><polygon fill="#181818" points="229.5,725.9609,219.5,729.9609,229.5,733.9609,225.5,729.9609" style="stroke:#181818;stroke-width:1.0;"/><line style="stroke:#181818;stroke-width:1.0;" x1="223.5" x2="1340.5" y1="729.9609" y2="729.9609"/><text fill="#000000" font-family="sans-serif" font-size="13" lengthAdjust="spacing" textLength="150" x="235.5" y="725.1045">return account information</text><path d="M40,744.9609 L101,744.9609 L101,753.3125 L91,763.3125 L40,763.3125 L40,744.9609 " fill="#EEEEEE" style="stroke:#000000;stroke-width:1.5;"/><rect fill="none" height="381.5391" style="stroke:#000000;stroke-width:1.5;" width="1361" x="40" y="744.9609"/><text fill="#000000" font-family="sans-serif" font-size="13" font-weight="bold" lengthAdjust="spacing" textLength="16" x="55" y="759.4561">alt</text><text fill="#000000" font-family="sans-serif" font-size="11" font-weight="bold" lengthAdjust="spacing" textLength="103" x="116" y="758.3799">[no account found]</text><line style="stroke:#181818;stroke-width:1.0;" x1="218.5" x2="260.5" y1="785.6641" y2="785.6641"/><line style="stroke:#181818;stroke-width:1.0;" x1="260.5" x2="260.5" y1="785.6641" y2="798.6641"/><line style="stroke:#181818;stroke-width:1.0;" x1="219.5" x2="260.5" y1="798.6641" y2="798.6641"/><polygon fill="#181818" points="229.5,794.6641,219.5,798.6641,229.5,802.6641,225.5,798.6641" style="stroke:#181818;stroke-width:1.0;"/><text fill="#000000" font-family="sans-serif" font-size="13" lengthAdjust="spacing" textLength="337" x="225.5" y="780.8076">CreateErrorResponse(response, data, "No account found")</text><polygon fill="#181818" points="88.5,825.0156,78.5,829.0156,88.5,833.0156,84.5,829.0156" style="stroke:#181818;stroke-width:1.0;"/><line style="stroke:#181818;stroke-width:1.0;" x1="82.5" x2="217.5" y1="829.0156" y2="829.0156"/><text fill="#000000" font-family="sans-serif" font-size="13" lengthAdjust="spacing" textLength="90" x="94.5" y="824.1592">return response</text><line style="stroke:#000000;stroke-width:1.0;stroke-dasharray:2.0,2.0;" x1="40" x2="1401" y1="838.0156" y2="838.0156"/><text fill="#000000" font-family="sans-serif" font-size="11" font-weight="bold" lengthAdjust="spacing" textLength="86" x="45" y="849.4346">[account found]</text><polygon fill="#181818" points="1148.5,871.2031,1158.5,875.2031,1148.5,879.2031,1152.5,875.2031" style="stroke:#181818;stroke-width:1.0;"/><line style="stroke:#181818;stroke-width:1.0;" x1="218.5" x2="1154.5" y1="875.2031" y2="875.2031"/><text fill="#000000" font-family="sans-serif" font-size="13" lengthAdjust="spacing" textLength="923" x="225.5" y="870.3467">select("*").table("Transactions").where("from_account_number =", accountNumber).whereOr("to_account_number =" + QString::number(accountNumber)).exec()</text><polygon fill="#181818" points="1329.5,901.5547,1339.5,905.5547,1329.5,909.5547,1333.5,905.5547" style="stroke:#181818;stroke-width:1.0;"/><line style="stroke:#181818;stroke-width:1.0;" x1="1165.5" x2="1335.5" y1="905.5547" y2="905.5547"/><text fill="#000000" font-family="sans-serif" font-size="13" lengthAdjust="spacing" textLength="130" x="1172.5" y="900.6982">return transaction data</text><polygon fill="#181818" points="229.5,931.9063,219.5,935.9063,229.5,939.9063,225.5,935.9063" style="stroke:#181818;stroke-width:1.0;"/><line style="stroke:#181818;stroke-width:1.0;" x1="223.5" x2="1340.5" y1="935.9063" y2="935.9063"/><text fill="#000000" font-family="sans-serif" font-size="13" lengthAdjust="spacing" textLength="168" x="235.5" y="931.0498">return transaction information</text><path d="M50,950.9063 L111,950.9063 L111,959.2578 L101,969.2578 L50,969.2578 L50,950.9063 " fill="#EEEEEE" style="stroke:#000000;stroke-width:1.5;"/><rect fill="none" height="168.5938" style="stroke:#000000;stroke-width:1.5;" width="634" x="50" y="950.9063"/><text fill="#000000" font-family="sans-serif" font-size="13" font-weight="bold" lengthAdjust="spacing" textLength="16" x="65" y="965.4014">alt</text><text fill="#000000" font-family="sans-serif" font-size="11" font-weight="bold" lengthAdjust="spacing" textLength="129" x="126" y="964.3252">[no transactions found]</text><line style="stroke:#181818;stroke-width:1.0;" x1="218.5" x2="260.5" y1="991.6094" y2="991.6094"/><line style="stroke:#181818;stroke-width:1.0;" x1="260.5" x2="260.5" y1="991.6094" y2="1004.6094"/><line style="stroke:#181818;stroke-width:1.0;" x1="219.5" x2="260.5" y1="1004.6094" y2="1004.6094"/><polygon fill="#181818" points="229.5,1000.6094,219.5,1004.6094,229.5,1008.6094,225.5,1004.6094" style="stroke:#181818;stroke-width:1.0;"/><text fill="#000000" font-family="sans-serif" font-size="13" lengthAdjust="spacing" textLength="362" x="225.5" y="986.7529">CreateErrorResponse(response, data, "No transactions found")</text><polygon fill="#181818" points="88.5,1030.9609,78.5,1034.9609,88.5,1038.9609,84.5,1034.9609" style="stroke:#181818;stroke-width:1.0;"/><line style="stroke:#181818;stroke-width:1.0;" x1="82.5" x2="217.5" y1="1034.9609" y2="1034.9609"/><text fill="#000000" font-family="sans-serif" font-size="13" lengthAdjust="spacing" textLength="90" x="94.5" y="1030.1045">return response</text><line style="stroke:#000000;stroke-width:1.0;stroke-dasharray:2.0,2.0;" x1="50" x2="684" y1="1043.9609" y2="1043.9609"/><text fill="#000000" font-family="sans-serif" font-size="11" font-weight="bold" lengthAdjust="spacing" textLength="112" x="55" y="1055.3799">[transactions found]</text><polygon fill="#181818" points="614.5,1077.1484,624.5,1081.1484,614.5,1085.1484,618.5,1081.1484" style="stroke:#181818;stroke-width:1.0;"/><line style="stroke:#181818;stroke-width:1.0;" x1="218.5" x2="620.5" y1="1081.1484" y2="1081.1484"/><text fill="#000000" font-family="sans-serif" font-size="13" lengthAdjust="spacing" textLength="164" x="225.5" y="1076.292">construct success response</text><polygon fill="#181818" points="88.5,1107.5,78.5,1111.5,88.5,1115.5,84.5,1111.5" style="stroke:#181818;stroke-width:1.0;"/><line style="stroke:#181818;stroke-width:1.0;" x1="82.5" x2="625.5" y1="1111.5" y2="1111.5"/><text fill="#000000" font-family="sans-serif" font-size="13" lengthAdjust="spacing" textLength="90" x="94.5" y="1106.6436">return response</text><line style="stroke:#000000;stroke-width:1.0;stroke-dasharray:2.0,2.0;" x1="30" x2="1411" y1="1134.5" y2="1134.5"/><text fill="#000000" font-family="sans-serif" font-size="11" font-weight="bold" lengthAdjust="spacing" textLength="67" x="35" y="1145.9189">[admin role]</text><polygon fill="#181818" points="1148.5,1167.6875,1158.5,1171.6875,1148.5,1175.6875,1152.5,1171.6875" style="stroke:#181818;stroke-width:1.0;"/><line style="stroke:#181818;stroke-width:1.0;" x1="218.5" x2="1154.5" y1="1171.6875" y2="1171.6875"/><text fill="#000000" font-family="sans-serif" font-size="13" lengthAdjust="spacing" textLength="222" x="225.5" y="1166.8311">select("*").table("Transactions").exec()</text><polygon fill="#181818" points="1329.5,1198.0391,1339.5,1202.0391,1329.5,1206.0391,1333.5,1202.0391" style="stroke:#181818;stroke-width:1.0;"/><line style="stroke:#181818;stroke-width:1.0;" x1="1165.5" x2="1335.5" y1="1202.0391" y2="1202.0391"/><text fill="#000000" font-family="sans-serif" font-size="13" lengthAdjust="spacing" textLength="147" x="1172.5" y="1197.1826">return all transaction data</text><polygon fill="#181818" points="229.5,1228.3906,219.5,1232.3906,229.5,1236.3906,225.5,1232.3906" style="stroke:#181818;stroke-width:1.0;"/><line style="stroke:#181818;stroke-width:1.0;" x1="223.5" x2="1340.5" y1="1232.3906" y2="1232.3906"/><text fill="#000000" font-family="sans-serif" font-size="13" lengthAdjust="spacing" textLength="168" x="235.5" y="1227.5342">return transaction information</text><path d="M50,1247.3906 L111,1247.3906 L111,1255.7422 L101,1265.7422 L50,1265.7422 L50,1247.3906 " fill="#EEEEEE" style="stroke:#000000;stroke-width:1.5;"/><rect fill="none" height="168.5938" style="stroke:#000000;stroke-width:1.5;" width="634" x="50" y="1247.3906"/><text fill="#000000" font-family="sans-serif" font-size="13" font-weight="bold" lengthAdjust="spacing" textLength="16" x="65" y="1261.8857">alt</text><text fill="#000000" font-family="sans-serif" font-size="11" font-weight="bold" lengthAdjust="spacing" textLength="129" x="126" y="1260.8096">[no transactions found]</text><line style="stroke:#181818;stroke-width:1.0;" x1="218.5" x2="260.5" y1="1288.0938" y2="1288.0938"/><line style="stroke:#181818;stroke-width:1.0;" x1="260.5" x2="260.5" y1="1288.0938" y2="1301.0938"/><line style="stroke:#181818;stroke-width:1.0;" x1="219.5" x2="260.5" y1="1301.0938" y2="1301.0938"/><polygon fill="#181818" points="229.5,1297.0938,219.5,1301.0938,229.5,1305.0938,225.5,1301.0938" style="stroke:#181818;stroke-width:1.0;"/><text fill="#000000" font-family="sans-serif" font-size="13" lengthAdjust="spacing" textLength="362" x="225.5" y="1283.2373">CreateErrorResponse(response, data, "No transactions found")</text><polygon fill="#181818" points="88.5,1327.4453,78.5,1331.4453,88.5,1335.4453,84.5,1331.4453" style="stroke:#181818;stroke-width:1.0;"/><line style="stroke:#181818;stroke-width:1.0;" x1="82.5" x2="217.5" y1="1331.4453" y2="1331.4453"/><text fill="#000000" font-family="sans-serif" font-size="13" lengthAdjust="spacing" textLength="90" x="94.5" y="1326.5889">return response</text><line style="stroke:#000000;stroke-width:1.0;stroke-dasharray:2.0,2.0;" x1="50" x2="684" y1="1340.4453" y2="1340.4453"/><text fill="#000000" font-family="sans-serif" font-size="11" font-weight="bold" lengthAdjust="spacing" textLength="112" x="55" y="1351.8643">[transactions found]</text><polygon fill="#181818" points="614.5,1373.6328,624.5,1377.6328,614.5,1381.6328,618.5,1377.6328" style="stroke:#181818;stroke-width:1.0;"/><line style="stroke:#181818;stroke-width:1.0;" x1="218.5" x2="620.5" y1="1377.6328" y2="1377.6328"/><text fill="#000000" font-family="sans-serif" font-size="13" lengthAdjust="spacing" textLength="164" x="225.5" y="1372.7764">construct success response</text><polygon fill="#181818" points="88.5,1403.9844,78.5,1407.9844,88.5,1411.9844,84.5,1407.9844" style="stroke:#181818;stroke-width:1.0;"/><line style="stroke:#181818;stroke-width:1.0;" x1="82.5" x2="625.5" y1="1407.9844" y2="1407.9844"/><text fill="#000000" font-family="sans-serif" font-size="13" lengthAdjust="spacing" textLength="90" x="94.5" y="1403.1279">return response</text></g></svg>