<svg xmlns="http://www.w3.org/2000/svg" xmlns:xlink="http://www.w3.org/1999/xlink" contentStyleType="text/css" height="957px" preserveAspectRatio="none" style="width:1081px;height:957px;background:#FFFFFF;" version="1.1" viewBox="0 0 1081 957" width="1081px" zoomAndPan="magnify"><defs/><g><rect fill="#FFFFFF" height="233.4609" style="stroke:#181818;stroke-width:1.0;" width="10" x="193.5" y="114.9609"/><rect fill="#FFFFFF" height="720.5391" style="stroke:#181818;stroke-width:1.0;" width="10" x="719.5" y="145.3125"/><rect fill="#FFFFFF" height="30.3516" style="stroke:#181818;stroke-width:1.0;" width="10" x="861" y="394.6094"/><rect fill="#FFFFFF" height="30.3516" style="stroke:#181818;stroke-width:1.0;" width="10" x="861" y="600.5547"/><rect fill="none" height="637.8359" style="stroke:#000000;stroke-width:1.5;" width="1064" x="10" y="221.0156"/><rect fill="none" height="381.5391" style="stroke:#000000;stroke-width:1.5;" width="1044" x="20" y="470.3125"/><rect fill="none" height="168.5938" style="stroke:#000000;stroke-width:1.5;" width="570" x="30" y="676.2578"/><line style="stroke:#181818;stroke-width:0.5;stroke-dasharray:5.0,5.0;" x1="57" x2="57" y1="82.6094" y2="875.8516"/><line style="stroke:#181818;stroke-width:0.5;stroke-dasharray:5.0,5.0;" x1="198.5" x2="198.5" y1="82.6094" y2="875.8516"/><line style="stroke:#181818;stroke-width:0.5;stroke-dasharray:5.0,5.0;" x1="542" x2="542" y1="82.6094" y2="875.8516"/><line style="stroke:#181818;stroke-width:0.5;stroke-dasharray:5.0,5.0;" x1="631" x2="631" y1="82.6094" y2="875.8516"/><line style="stroke:#181818;stroke-width:0.5;stroke-dasharray:5.0,5.0;" x1="724" x2="724" y1="82.6094" y2="875.8516"/><line style="stroke:#181818;stroke-width:0.5;stroke-dasharray:5.0,5.0;" x1="866" x2="866" y1="82.6094" y2="875.8516"/><line style="stroke:#181818;stroke-width:0.5;stroke-dasharray:5.0,5.0;" x1="1004" x2="1004" y1="82.6094" y2="875.8516"/><text fill="#000000" font-family="sans-serif" font-size="14" lengthAdjust="spacing" textLength="29" x="40" y="79.5332">User</text><ellipse cx="57.5" cy="13.5" fill="#E2E2F0" rx="8" ry="8" style="stroke:#181818;stroke-width:0.5;"/><path d="M57.5,21.5 L57.5,48.5 M44.5,29.5 L70.5,29.5 M57.5,48.5 L44.5,63.5 M57.5,48.5 L70.5,63.5 " fill="none" style="stroke:#181818;stroke-width:0.5;"/><text fill="#000000" font-family="sans-serif" font-size="14" lengthAdjust="spacing" textLength="29" x="40" y="889.3848">User</text><ellipse cx="57.5" cy="900.9609" fill="#E2E2F0" rx="8" ry="8" style="stroke:#181818;stroke-width:0.5;"/><path d="M57.5,908.9609 L57.5,935.9609 M44.5,916.9609 L70.5,916.9609 M57.5,935.9609 L44.5,950.9609 M57.5,935.9609 L70.5,950.9609 " fill="none" style="stroke:#181818;stroke-width:0.5;"/><rect fill="#E2E2F0" height="31.6094" rx="2.5" ry="2.5" style="stroke:#181818;stroke-width:0.5;" width="102" x="147.5" y="50"/><text fill="#000000" font-family="sans-serif" font-size="14" lengthAdjust="spacing" textLength="88" x="154.5" y="71.5332">LoginRequest</text><rect fill="#E2E2F0" height="31.6094" rx="2.5" ry="2.5" style="stroke:#181818;stroke-width:0.5;" width="102" x="147.5" y="874.8516"/><text fill="#000000" font-family="sans-serif" font-size="14" lengthAdjust="spacing" textLength="88" x="154.5" y="896.3848">LoginRequest</text><rect fill="#E2E2F0" height="31.6094" rx="2.5" ry="2.5" style="stroke:#181818;stroke-width:0.5;" width="95" x="495" y="50"/><text fill="#000000" font-family="sans-serif" font-size="14" lengthAdjust="spacing" textLength="81" x="502" y="71.5332">QJsonObject</text><rect fill="#E2E2F0" height="31.6094" rx="2.5" ry="2.5" style="stroke:#181818;stroke-width:0.5;" width="95" x="495" y="874.8516"/><text fill="#000000" font-family="sans-serif" font-size="14" lengthAdjust="spacing" textLength="81" x="502" y="896.3848">QJsonObject</text><rect fill="#E2E2F0" height="31.6094" rx="2.5" ry="2.5" style="stroke:#181818;stroke-width:0.5;" width="62" x="600" y="50"/><text fill="#000000" font-family="sans-serif" font-size="14" lengthAdjust="spacing" textLength="48" x="607" y="71.5332">QMutex</text><rect fill="#E2E2F0" height="31.6094" rx="2.5" ry="2.5" style="stroke:#181818;stroke-width:0.5;" width="62" x="600" y="874.8516"/><text fill="#000000" font-family="sans-serif" font-size="14" lengthAdjust="spacing" textLength="48" x="607" y="896.3848">QMutex</text><rect fill="#E2E2F0" height="31.6094" rx="2.5" ry="2.5" style="stroke:#181818;stroke-width:0.5;" width="105" x="672" y="50"/><text fill="#000000" font-family="sans-serif" font-size="14" lengthAdjust="spacing" textLength="91" x="679" y="71.5332">QMutexLocker</text><rect fill="#E2E2F0" height="31.6094" rx="2.5" ry="2.5" style="stroke:#181818;stroke-width:0.5;" width="105" x="672" y="874.8516"/><text fill="#000000" font-family="sans-serif" font-size="14" lengthAdjust="spacing" textLength="91" x="679" y="896.3848">QMutexLocker</text><rect fill="#E2E2F0" height="31.6094" rx="2.5" ry="2.5" style="stroke:#181818;stroke-width:0.5;" width="158" x="787" y="50"/><text fill="#000000" font-family="sans-serif" font-size="14" lengthAdjust="spacing" textLength="144" x="794" y="71.5332">DB::DatabaseManager</text><rect fill="#E2E2F0" height="31.6094" rx="2.5" ry="2.5" style="stroke:#181818;stroke-width:0.5;" width="158" x="787" y="874.8516"/><text fill="#000000" font-family="sans-serif" font-size="14" lengthAdjust="spacing" textLength="144" x="794" y="896.3848">DB::DatabaseManager</text><rect fill="#E2E2F0" height="31.6094" rx="2.5" ry="2.5" style="stroke:#181818;stroke-width:0.5;" width="99" x="955" y="50"/><text fill="#000000" font-family="sans-serif" font-size="14" lengthAdjust="spacing" textLength="85" x="962" y="71.5332">DB::DbResult</text><rect fill="#E2E2F0" height="31.6094" rx="2.5" ry="2.5" style="stroke:#181818;stroke-width:0.5;" width="99" x="955" y="874.8516"/><text fill="#000000" font-family="sans-serif" font-size="14" lengthAdjust="spacing" textLength="85" x="962" y="896.3848">DB::DbResult</text><rect fill="#FFFFFF" height="233.4609" style="stroke:#181818;stroke-width:1.0;" width="10" x="193.5" y="114.9609"/><rect fill="#FFFFFF" height="720.5391" style="stroke:#181818;stroke-width:1.0;" width="10" x="719.5" y="145.3125"/><rect fill="#FFFFFF" height="30.3516" style="stroke:#181818;stroke-width:1.0;" width="10" x="861" y="394.6094"/><rect fill="#FFFFFF" height="30.3516" style="stroke:#181818;stroke-width:1.0;" width="10" x="861" y="600.5547"/><polygon fill="#181818" points="181.5,110.9609,191.5,114.9609,181.5,118.9609,185.5,114.9609" style="stroke:#181818;stroke-width:1.0;"/><line style="stroke:#181818;stroke-width:1.0;" x1="57.5" x2="187.5" y1="114.9609" y2="114.9609"/><text fill="#000000" font-family="sans-serif" font-size="13" lengthAdjust="spacing" textLength="117" x="64.5" y="110.1045">execute(jsonObj, m)</text><polygon fill="#181818" points="707.5,141.3125,717.5,145.3125,707.5,149.3125,711.5,145.3125" style="stroke:#181818;stroke-width:1.0;"/><line style="stroke:#181818;stroke-width:1.0;" x1="203.5" x2="713.5" y1="145.3125" y2="145.3125"/><text fill="#000000" font-family="sans-serif" font-size="13" lengthAdjust="spacing" textLength="113" x="210.5" y="140.4561">QMutexLocker(&amp;m)</text><polygon fill="#181818" points="530.5,171.6641,540.5,175.6641,530.5,179.6641,534.5,175.6641" style="stroke:#181818;stroke-width:1.0;"/><line style="stroke:#181818;stroke-width:1.0;" x1="203.5" x2="536.5" y1="175.6641" y2="175.6641"/><text fill="#000000" font-family="sans-serif" font-size="13" lengthAdjust="spacing" textLength="159" x="210.5" y="170.8076">extract email and password</text><polygon fill="#181818" points="214.5,202.0156,204.5,206.0156,214.5,210.0156,210.5,206.0156" style="stroke:#181818;stroke-width:1.0;"/><line style="stroke:#181818;stroke-width:1.0;" x1="208.5" x2="541.5" y1="206.0156" y2="206.0156"/><text fill="#000000" font-family="sans-serif" font-size="13" lengthAdjust="spacing" textLength="152" x="220.5" y="201.1592">return email and password</text><path d="M10,221.0156 L71,221.0156 L71,229.3672 L61,239.3672 L10,239.3672 L10,221.0156 " fill="#EEEEEE" style="stroke:#000000;stroke-width:1.5;"/><rect fill="none" height="637.8359" style="stroke:#000000;stroke-width:1.5;" width="1064" x="10" y="221.0156"/><text fill="#000000" font-family="sans-serif" font-size="13" font-weight="bold" lengthAdjust="spacing" textLength="16" x="25" y="235.5107">alt</text><text fill="#000000" font-family="sans-serif" font-size="11" font-weight="bold" lengthAdjust="spacing" textLength="124" x="86" y="234.4346">[DB connection invalid]</text><line style="stroke:#181818;stroke-width:1.0;" x1="203.5" x2="245.5" y1="261.7188" y2="261.7188"/><line style="stroke:#181818;stroke-width:1.0;" x1="245.5" x2="245.5" y1="261.7188" y2="274.7188"/><line style="stroke:#181818;stroke-width:1.0;" x1="204.5" x2="245.5" y1="274.7188" y2="274.7188"/><polygon fill="#181818" points="214.5,270.7188,204.5,274.7188,214.5,278.7188,210.5,274.7188" style="stroke:#181818;stroke-width:1.0;"/><text fill="#000000" font-family="sans-serif" font-size="13" lengthAdjust="spacing" textLength="194" x="210.5" y="256.8623">isDBConnectionValid(dbManager)</text><line style="stroke:#181818;stroke-width:1.0;" x1="203.5" x2="245.5" y1="305.0703" y2="305.0703"/><line style="stroke:#181818;stroke-width:1.0;" x1="245.5" x2="245.5" y1="305.0703" y2="318.0703"/><line style="stroke:#181818;stroke-width:1.0;" x1="204.5" x2="245.5" y1="318.0703" y2="318.0703"/><polygon fill="#181818" points="214.5,314.0703,204.5,318.0703,214.5,322.0703,210.5,318.0703" style="stroke:#181818;stroke-width:1.0;"/><text fill="#000000" font-family="sans-serif" font-size="13" lengthAdjust="spacing" textLength="263" x="210.5" y="300.2139">CreateDBConnectionError(response, dataObj)</text><polygon fill="#181818" points="68.5,344.4219,58.5,348.4219,68.5,352.4219,64.5,348.4219" style="stroke:#181818;stroke-width:1.0;"/><line style="stroke:#181818;stroke-width:1.0;" x1="62.5" x2="197.5" y1="348.4219" y2="348.4219"/><text fill="#000000" font-family="sans-serif" font-size="13" lengthAdjust="spacing" textLength="90" x="74.5" y="343.5654">return response</text><line style="stroke:#000000;stroke-width:1.0;stroke-dasharray:2.0,2.0;" x1="10" x2="1074" y1="357.4219" y2="357.4219"/><text fill="#000000" font-family="sans-serif" font-size="11" font-weight="bold" lengthAdjust="spacing" textLength="114" x="15" y="368.8408">[DB connection valid]</text><polygon fill="#181818" points="849,390.6094,859,394.6094,849,398.6094,853,394.6094" style="stroke:#181818;stroke-width:1.0;"/><line style="stroke:#181818;stroke-width:1.0;" x1="198.5" x2="855" y1="394.6094" y2="394.6094"/><text fill="#000000" font-family="sans-serif" font-size="13" lengthAdjust="spacing" textLength="318" x="205.5" y="389.7529">select("*").table("users").where("email =", email).exec()</text><polygon fill="#181818" points="992.5,420.9609,1002.5,424.9609,992.5,428.9609,996.5,424.9609" style="stroke:#181818;stroke-width:1.0;"/><line style="stroke:#181818;stroke-width:1.0;" x1="866" x2="998.5" y1="424.9609" y2="424.9609"/><text fill="#000000" font-family="sans-serif" font-size="13" lengthAdjust="spacing" textLength="69" x="873" y="420.1045">return result</text><polygon fill="#181818" points="209.5,451.3125,199.5,455.3125,209.5,459.3125,205.5,455.3125" style="stroke:#181818;stroke-width:1.0;"/><line style="stroke:#181818;stroke-width:1.0;" x1="203.5" x2="1003.5" y1="455.3125" y2="455.3125"/><text fill="#000000" font-family="sans-serif" font-size="13" lengthAdjust="spacing" textLength="160" x="215.5" y="450.4561">return first result (user data)</text><path d="M20,470.3125 L81,470.3125 L81,478.6641 L71,488.6641 L20,488.6641 L20,470.3125 " fill="#EEEEEE" style="stroke:#000000;stroke-width:1.5;"/><rect fill="none" height="381.5391" style="stroke:#000000;stroke-width:1.5;" width="1044" x="20" y="470.3125"/><text fill="#000000" font-family="sans-serif" font-size="13" font-weight="bold" lengthAdjust="spacing" textLength="16" x="35" y="484.8076">alt</text><text fill="#000000" font-family="sans-serif" font-size="11" font-weight="bold" lengthAdjust="spacing" textLength="90" x="96" y="483.7314">[user not found]</text><line style="stroke:#181818;stroke-width:1.0;" x1="198.5" x2="240.5" y1="511.0156" y2="511.0156"/><line style="stroke:#181818;stroke-width:1.0;" x1="240.5" x2="240.5" y1="511.0156" y2="524.0156"/><line style="stroke:#181818;stroke-width:1.0;" x1="199.5" x2="240.5" y1="524.0156" y2="524.0156"/><polygon fill="#181818" points="209.5,520.0156,199.5,524.0156,209.5,528.0156,205.5,524.0156" style="stroke:#181818;stroke-width:1.0;"/><text fill="#000000" font-family="sans-serif" font-size="13" lengthAdjust="spacing" textLength="324" x="205.5" y="506.1592">CreateErrorResponse(response, data, "email not found")</text><polygon fill="#181818" points="68.5,550.3672,58.5,554.3672,68.5,558.3672,64.5,554.3672" style="stroke:#181818;stroke-width:1.0;"/><line style="stroke:#181818;stroke-width:1.0;" x1="62.5" x2="197.5" y1="554.3672" y2="554.3672"/><text fill="#000000" font-family="sans-serif" font-size="13" lengthAdjust="spacing" textLength="90" x="74.5" y="549.5107">return response</text><line style="stroke:#000000;stroke-width:1.0;stroke-dasharray:2.0,2.0;" x1="20" x2="1064" y1="563.3672" y2="563.3672"/><text fill="#000000" font-family="sans-serif" font-size="11" font-weight="bold" lengthAdjust="spacing" textLength="69" x="25" y="574.7861">[user found]</text><polygon fill="#181818" points="849,596.5547,859,600.5547,849,604.5547,853,600.5547" style="stroke:#181818;stroke-width:1.0;"/><line style="stroke:#181818;stroke-width:1.0;" x1="198.5" x2="855" y1="600.5547" y2="600.5547"/><text fill="#000000" font-family="sans-serif" font-size="13" lengthAdjust="spacing" textLength="358" x="205.5" y="595.6982">select("password").table("users").where("id =", user_id).exec()</text><polygon fill="#181818" points="992.5,626.9063,1002.5,630.9063,992.5,634.9063,996.5,630.9063" style="stroke:#181818;stroke-width:1.0;"/><line style="stroke:#181818;stroke-width:1.0;" x1="866" x2="998.5" y1="630.9063" y2="630.9063"/><text fill="#000000" font-family="sans-serif" font-size="13" lengthAdjust="spacing" textLength="69" x="873" y="626.0498">return result</text><polygon fill="#181818" points="209.5,657.2578,199.5,661.2578,209.5,665.2578,205.5,661.2578" style="stroke:#181818;stroke-width:1.0;"/><line style="stroke:#181818;stroke-width:1.0;" x1="203.5" x2="1003.5" y1="661.2578" y2="661.2578"/><text fill="#000000" font-family="sans-serif" font-size="13" lengthAdjust="spacing" textLength="161" x="215.5" y="656.4014">return first result (password)</text><path d="M30,676.2578 L91,676.2578 L91,684.6094 L81,694.6094 L30,694.6094 L30,676.2578 " fill="#EEEEEE" style="stroke:#000000;stroke-width:1.5;"/><rect fill="none" height="168.5938" style="stroke:#000000;stroke-width:1.5;" width="570" x="30" y="676.2578"/><text fill="#000000" font-family="sans-serif" font-size="13" font-weight="bold" lengthAdjust="spacing" textLength="16" x="45" y="690.7529">alt</text><text fill="#000000" font-family="sans-serif" font-size="11" font-weight="bold" lengthAdjust="spacing" textLength="102" x="106" y="689.6768">[password invalid]</text><line style="stroke:#181818;stroke-width:1.0;" x1="198.5" x2="240.5" y1="716.9609" y2="716.9609"/><line style="stroke:#181818;stroke-width:1.0;" x1="240.5" x2="240.5" y1="716.9609" y2="729.9609"/><line style="stroke:#181818;stroke-width:1.0;" x1="199.5" x2="240.5" y1="729.9609" y2="729.9609"/><polygon fill="#181818" points="209.5,725.9609,199.5,729.9609,209.5,733.9609,205.5,729.9609" style="stroke:#181818;stroke-width:1.0;"/><text fill="#000000" font-family="sans-serif" font-size="13" lengthAdjust="spacing" textLength="330" x="205.5" y="712.1045">CreateErrorResponse(response, data, "Invalid password")</text><polygon fill="#181818" points="68.5,756.3125,58.5,760.3125,68.5,764.3125,64.5,760.3125" style="stroke:#181818;stroke-width:1.0;"/><line style="stroke:#181818;stroke-width:1.0;" x1="62.5" x2="197.5" y1="760.3125" y2="760.3125"/><text fill="#000000" font-family="sans-serif" font-size="13" lengthAdjust="spacing" textLength="90" x="74.5" y="755.4561">return response</text><line style="stroke:#000000;stroke-width:1.0;stroke-dasharray:2.0,2.0;" x1="30" x2="600" y1="769.3125" y2="769.3125"/><text fill="#000000" font-family="sans-serif" font-size="11" font-weight="bold" lengthAdjust="spacing" textLength="92" x="35" y="780.7314">[password valid]</text><polygon fill="#181818" points="530.5,802.5,540.5,806.5,530.5,810.5,534.5,806.5" style="stroke:#181818;stroke-width:1.0;"/><line style="stroke:#181818;stroke-width:1.0;" x1="198.5" x2="536.5" y1="806.5" y2="806.5"/><text fill="#000000" font-family="sans-serif" font-size="13" lengthAdjust="spacing" textLength="164" x="205.5" y="801.6436">construct success response</text><polygon fill="#181818" points="68.5,832.8516,58.5,836.8516,68.5,840.8516,64.5,836.8516" style="stroke:#181818;stroke-width:1.0;"/><line style="stroke:#181818;stroke-width:1.0;" x1="62.5" x2="541.5" y1="836.8516" y2="836.8516"/><text fill="#000000" font-family="sans-serif" font-size="13" lengthAdjust="spacing" textLength="90" x="74.5" y="831.9951">return response</text></g></svg>