<svg xmlns="http://www.w3.org/2000/svg" xmlns:xlink="http://www.w3.org/1999/xlink" contentStyleType="text/css" height="1427px" preserveAspectRatio="none" style="width:1287px;height:1427px;background:#FFFFFF;" version="1.1" viewBox="0 0 1287 1427" width="1287px" zoomAndPan="magnify">
  <defs>
    <style type="text/css">a:hover { text-decoration: underline; }</style>
  </defs>
  <g>
    <rect fill="#FFFFFF" height="233.4609" style="stroke:#181818;stroke-width:1.0;" width="10" x="223.5" y="114.9609"/>
    <rect fill="#FFFFFF" height="1190.2656" style="stroke:#181818;stroke-width:1.0;" width="10" x="893.5" y="145.3125"/>
    <rect fill="#FFFFFF" height="30.3516" style="stroke:#181818;stroke-width:1.0;" width="10" x="1035" y="394.6094"/>
    <rect fill="#FFFFFF" height="30.3516" style="stroke:#181818;stroke-width:1.0;" width="10" x="1035" y="728.4453"/>
    <rect fill="#FFFFFF" height="30.3516" style="stroke:#181818;stroke-width:1.0;" width="10" x="1035" y="904.0391"/>
    <rect fill="#FFFFFF" height="30.3516" style="stroke:#181818;stroke-width:1.0;" width="10" x="1035" y="1079.6328"/>
    <rect fill="none" height="1107.5625" style="stroke:#000000;stroke-width:1.5;" width="1270.5" x="10" y="221.0156"/>
    <rect fill="none" height="881.6172" style="stroke:#000000;stroke-width:1.5;" width="1250.5" x="20" y="439.9609"/>
    <rect fill="none" height="716.375" style="stroke:#000000;stroke-width:1.5;" width="1230.5" x="30" y="598.2031"/>
    <rect fill="none" height="533.7813" style="stroke:#000000;stroke-width:1.5;" width="1210.5" x="40" y="773.7969"/>
    <rect fill="none" height="351.1875" style="stroke:#000000;stroke-width:1.5;" width="1190.5" x="50" y="949.3906"/>
    <rect fill="none" height="168.5938" style="stroke:#000000;stroke-width:1.5;" width="714" x="60" y="1124.9844"/>
    <line style="stroke:#181818;stroke-width:0.5;stroke-dasharray:5.0,5.0;" x1="87" x2="87" y1="82.6094" y2="1345.5781"/>
    <line style="stroke:#181818;stroke-width:0.5;stroke-dasharray:5.0,5.0;" x1="228" x2="228" y1="82.6094" y2="1345.5781"/>
    <line style="stroke:#181818;stroke-width:0.5;stroke-dasharray:5.0,5.0;" x1="716" x2="716" y1="82.6094" y2="1345.5781"/>
    <line style="stroke:#181818;stroke-width:0.5;stroke-dasharray:5.0,5.0;" x1="805" x2="805" y1="82.6094" y2="1345.5781"/>
    <line style="stroke:#181818;stroke-width:0.5;stroke-dasharray:5.0,5.0;" x1="898" x2="898" y1="82.6094" y2="1345.5781"/>
    <line style="stroke:#181818;stroke-width:0.5;stroke-dasharray:5.0,5.0;" x1="1040" x2="1040" y1="82.6094" y2="1345.5781"/>
    <line style="stroke:#181818;stroke-width:0.5;stroke-dasharray:5.0,5.0;" x1="1180.5" x2="1180.5" y1="82.6094" y2="1345.5781"/>
    <text fill="#000000" font-family="sans-serif" font-size="14" lengthAdjust="spacing" textLength="29" x="70" y="79.5332">User</text>
    <ellipse cx="87.5" cy="13.5" fill="#E2E2F0" rx="8" ry="8" style="stroke:#181818;stroke-width:0.5;"/>
    <path d="M87.5,21.5 L87.5,48.5 M74.5,29.5 L100.5,29.5 M87.5,48.5 L74.5,63.5 M87.5,48.5 L100.5,63.5 " fill="none" style="stroke:#181818;stroke-width:0.5;"/>
    <text fill="#000000" font-family="sans-serif" font-size="14" lengthAdjust="spacing" textLength="29" x="70" y="1359.1113">User</text>
    <ellipse cx="87.5" cy="1370.6875" fill="#E2E2F0" rx="8" ry="8" style="stroke:#181818;stroke-width:0.5;"/>
    <path d="M87.5,1378.6875 L87.5,1405.6875 M74.5,1386.6875 L100.5,1386.6875 M87.5,1405.6875 L74.5,1420.6875 M87.5,1405.6875 L100.5,1420.6875 " fill="none" style="stroke:#181818;stroke-width:0.5;"/>
    <rect fill="#E2E2F0" height="31.6094" rx="2.5" ry="2.5" style="stroke:#181818;stroke-width:0.5;" width="141" x="158" y="50"/>
    <text fill="#000000" font-family="sans-serif" font-size="14" lengthAdjust="spacing" textLength="127" x="165" y="71.5332">UpdateUserRequest</text>
    <rect fill="#E2E2F0" height="31.6094" rx="2.5" ry="2.5" style="stroke:#181818;stroke-width:0.5;" width="141" x="158" y="1344.5781"/>
    <text fill="#000000" font-family="sans-serif" font-size="14" lengthAdjust="spacing" textLength="127" x="165" y="1366.1113">UpdateUserRequest</text>
    <rect fill="#E2E2F0" height="31.6094" rx="2.5" ry="2.5" style="stroke:#181818;stroke-width:0.5;" width="95" x="669" y="50"/>
    <text fill="#000000" font-family="sans-serif" font-size="14" lengthAdjust="spacing" textLength="81" x="676" y="71.5332">QJsonObject</text>
    <rect fill="#E2E2F0" height="31.6094" rx="2.5" ry="2.5" style="stroke:#181818;stroke-width:0.5;" width="95" x="669" y="1344.5781"/>
    <text fill="#000000" font-family="sans-serif" font-size="14" lengthAdjust="spacing" textLength="81" x="676" y="1366.1113">QJsonObject</text>
    <rect fill="#E2E2F0" height="31.6094" rx="2.5" ry="2.5" style="stroke:#181818;stroke-width:0.5;" width="62" x="774" y="50"/>
    <text fill="#000000" font-family="sans-serif" font-size="14" lengthAdjust="spacing" textLength="48" x="781" y="71.5332">QMutex</text>
    <rect fill="#E2E2F0" height="31.6094" rx="2.5" ry="2.5" style="stroke:#181818;stroke-width:0.5;" width="62" x="774" y="1344.5781"/>
    <text fill="#000000" font-family="sans-serif" font-size="14" lengthAdjust="spacing" textLength="48" x="781" y="1366.1113">QMutex</text>
    <rect fill="#E2E2F0" height="31.6094" rx="2.5" ry="2.5" style="stroke:#181818;stroke-width:0.5;" width="105" x="846" y="50"/>
    <text fill="#000000" font-family="sans-serif" font-size="14" lengthAdjust="spacing" textLength="91" x="853" y="71.5332">QMutexLocker</text>
    <rect fill="#E2E2F0" height="31.6094" rx="2.5" ry="2.5" style="stroke:#181818;stroke-width:0.5;" width="105" x="846" y="1344.5781"/>
    <text fill="#000000" font-family="sans-serif" font-size="14" lengthAdjust="spacing" textLength="91" x="853" y="1366.1113">QMutexLocker</text>
    <rect fill="#E2E2F0" height="31.6094" rx="2.5" ry="2.5" style="stroke:#181818;stroke-width:0.5;" width="158" x="961" y="50"/>
    <text fill="#000000" font-family="sans-serif" font-size="14" lengthAdjust="spacing" textLength="144" x="968" y="71.5332">DB::DatabaseManager</text>
    <rect fill="#E2E2F0" height="31.6094" rx="2.5" ry="2.5" style="stroke:#181818;stroke-width:0.5;" width="158" x="961" y="1344.5781"/>
    <text fill="#000000" font-family="sans-serif" font-size="14" lengthAdjust="spacing" textLength="144" x="968" y="1366.1113">DB::DatabaseManager</text>
    <rect fill="#E2E2F0" height="31.6094" rx="2.5" ry="2.5" style="stroke:#181818;stroke-width:0.5;" width="99" x="1131.5" y="50"/>
    <text fill="#000000" font-family="sans-serif" font-size="14" lengthAdjust="spacing" textLength="85" x="1138.5" y="71.5332">DB::DbResult</text>
    <rect fill="#E2E2F0" height="31.6094" rx="2.5" ry="2.5" style="stroke:#181818;stroke-width:0.5;" width="99" x="1131.5" y="1344.5781"/>
    <text fill="#000000" font-family="sans-serif" font-size="14" lengthAdjust="spacing" textLength="85" x="1138.5" y="1366.1113">DB::DbResult</text>
    <rect fill="#FFFFFF" height="233.4609" style="stroke:#181818;stroke-width:1.0;" width="10" x="223.5" y="114.9609"/>
    <rect fill="#FFFFFF" height="1190.2656" style="stroke:#181818;stroke-width:1.0;" width="10" x="893.5" y="145.3125"/>
    <rect fill="#FFFFFF" height="30.3516" style="stroke:#181818;stroke-width:1.0;" width="10" x="1035" y="394.6094"/>
    <rect fill="#FFFFFF" height="30.3516" style="stroke:#181818;stroke-width:1.0;" width="10" x="1035" y="728.4453"/>
    <rect fill="#FFFFFF" height="30.3516" style="stroke:#181818;stroke-width:1.0;" width="10" x="1035" y="904.0391"/>
    <rect fill="#FFFFFF" height="30.3516" style="stroke:#181818;stroke-width:1.0;" width="10" x="1035" y="1079.6328"/>
    <polygon fill="#181818" points="211.5,110.9609,221.5,114.9609,211.5,118.9609,215.5,114.9609" style="stroke:#181818;stroke-width:1.0;"/>
    <line style="stroke:#181818;stroke-width:1.0;" x1="87.5" x2="217.5" y1="114.9609" y2="114.9609"/>
    <text fill="#000000" font-family="sans-serif" font-size="13" lengthAdjust="spacing" textLength="117" x="94.5" y="110.1045">execute(jsonObj, m)</text>
    <polygon fill="#181818" points="881.5,141.3125,891.5,145.3125,881.5,149.3125,885.5,145.3125" style="stroke:#181818;stroke-width:1.0;"/>
    <line style="stroke:#181818;stroke-width:1.0;" x1="233.5" x2="887.5" y1="145.3125" y2="145.3125"/>
    <text fill="#000000" font-family="sans-serif" font-size="13" lengthAdjust="spacing" textLength="113" x="240.5" y="140.4561">QMutexLocker(&amp;m)</text>
    <polygon fill="#181818" points="704.5,171.6641,714.5,175.6641,704.5,179.6641,708.5,175.6641" style="stroke:#181818;stroke-width:1.0;"/>
    <line style="stroke:#181818;stroke-width:1.0;" x1="233.5" x2="710.5" y1="175.6641" y2="175.6641"/>
    <text fill="#000000" font-family="sans-serif" font-size="13" lengthAdjust="spacing" textLength="237" x="240.5" y="170.8076">extract email, account_number, newData</text>
    <polygon fill="#181818" points="244.5,202.0156,234.5,206.0156,244.5,210.0156,240.5,206.0156" style="stroke:#181818;stroke-width:1.0;"/>
    <line style="stroke:#181818;stroke-width:1.0;" x1="238.5" x2="715.5" y1="206.0156" y2="206.0156"/>
    <text fill="#000000" font-family="sans-serif" font-size="13" lengthAdjust="spacing" textLength="91" x="250.5" y="201.1592">return user data</text>
    <path d="M10,221.0156 L71,221.0156 L71,229.3672 L61,239.3672 L10,239.3672 L10,221.0156 " fill="#EEEEEE" style="stroke:#000000;stroke-width:1.5;"/>
    <rect fill="none" height="1107.5625" style="stroke:#000000;stroke-width:1.5;" width="1270.5" x="10" y="221.0156"/>
    <text fill="#000000" font-family="sans-serif" font-size="13" font-weight="bold" lengthAdjust="spacing" textLength="16" x="25" y="235.5107">alt</text>
    <text fill="#000000" font-family="sans-serif" font-size="11" font-weight="bold" lengthAdjust="spacing" textLength="124" x="86" y="234.4346">[DB connection invalid]</text>
    <line style="stroke:#181818;stroke-width:1.0;" x1="233.5" x2="275.5" y1="261.7188" y2="261.7188"/>
    <line style="stroke:#181818;stroke-width:1.0;" x1="275.5" x2="275.5" y1="261.7188" y2="274.7188"/>
    <line style="stroke:#181818;stroke-width:1.0;" x1="234.5" x2="275.5" y1="274.7188" y2="274.7188"/>
    <polygon fill="#181818" points="244.5,270.7188,234.5,274.7188,244.5,278.7188,240.5,274.7188" style="stroke:#181818;stroke-width:1.0;"/>
    <text fill="#000000" font-family="sans-serif" font-size="13" lengthAdjust="spacing" textLength="194" x="240.5" y="256.8623">isDBConnectionValid(dbManager)</text>
    <line style="stroke:#181818;stroke-width:1.0;" x1="233.5" x2="275.5" y1="305.0703" y2="305.0703"/>
    <line style="stroke:#181818;stroke-width:1.0;" x1="275.5" x2="275.5" y1="305.0703" y2="318.0703"/>
    <line style="stroke:#181818;stroke-width:1.0;" x1="234.5" x2="275.5" y1="318.0703" y2="318.0703"/>
    <polygon fill="#181818" points="244.5,314.0703,234.5,318.0703,244.5,322.0703,240.5,318.0703" style="stroke:#181818;stroke-width:1.0;"/>
    <text fill="#000000" font-family="sans-serif" font-size="13" lengthAdjust="spacing" textLength="243" x="240.5" y="300.2139">CreateDBConnectionError(response, data)</text>
    <polygon fill="#181818" points="98.5,344.4219,88.5,348.4219,98.5,352.4219,94.5,348.4219" style="stroke:#181818;stroke-width:1.0;"/>
    <line style="stroke:#181818;stroke-width:1.0;" x1="92.5" x2="227.5" y1="348.4219" y2="348.4219"/>
    <text fill="#000000" font-family="sans-serif" font-size="13" lengthAdjust="spacing" textLength="90" x="104.5" y="343.5654">return response</text>
    <line style="stroke:#000000;stroke-width:1.0;stroke-dasharray:2.0,2.0;" x1="10" x2="1280.5" y1="357.4219" y2="357.4219"/>
    <text fill="#000000" font-family="sans-serif" font-size="11" font-weight="bold" lengthAdjust="spacing" textLength="114" x="15" y="368.8408">[DB connection valid]</text>
    <polygon fill="#181818" points="1023,390.6094,1033,394.6094,1023,398.6094,1027,394.6094" style="stroke:#181818;stroke-width:1.0;"/>
    <line style="stroke:#181818;stroke-width:1.0;" x1="228.5" x2="1029" y1="394.6094" y2="394.6094"/>
    <text fill="#000000" font-family="sans-serif" font-size="13" lengthAdjust="spacing" textLength="334" x="235.5" y="389.7529">select("role").table("users").where("email =", email).exec()</text>
    <polygon fill="#181818" points="1169,420.9609,1179,424.9609,1169,428.9609,1173,424.9609" style="stroke:#181818;stroke-width:1.0;"/>
    <line style="stroke:#181818;stroke-width:1.0;" x1="1040" x2="1175" y1="424.9609" y2="424.9609"/>
    <text fill="#000000" font-family="sans-serif" font-size="13" lengthAdjust="spacing" textLength="87" x="1047" y="420.1045">return user role</text>
    <path d="M20,439.9609 L81,439.9609 L81,448.3125 L71,458.3125 L20,458.3125 L20,439.9609 " fill="#EEEEEE" style="stroke:#000000;stroke-width:1.5;"/>
    <rect fill="none" height="881.6172" style="stroke:#000000;stroke-width:1.5;" width="1250.5" x="20" y="439.9609"/>
    <text fill="#000000" font-family="sans-serif" font-size="13" font-weight="bold" lengthAdjust="spacing" textLength="16" x="35" y="454.4561">alt</text>
    <text fill="#000000" font-family="sans-serif" font-size="11" font-weight="bold" lengthAdjust="spacing" textLength="90" x="96" y="453.3799">[user not found]</text>
    <line style="stroke:#181818;stroke-width:1.0;" x1="228.5" x2="270.5" y1="480.6641" y2="480.6641"/>
    <line style="stroke:#181818;stroke-width:1.0;" x1="270.5" x2="270.5" y1="480.6641" y2="493.6641"/>
    <line style="stroke:#181818;stroke-width:1.0;" x1="229.5" x2="270.5" y1="493.6641" y2="493.6641"/>
    <polygon fill="#181818" points="239.5,489.6641,229.5,493.6641,239.5,497.6641,235.5,493.6641" style="stroke:#181818;stroke-width:1.0;"/>
    <text fill="#000000" font-family="sans-serif" font-size="13" lengthAdjust="spacing" textLength="394" x="235.5" y="475.8076">CreateErrorResponse(response, data, "you are not registered user!")</text>
    <polygon fill="#181818" points="98.5,520.0156,88.5,524.0156,98.5,528.0156,94.5,524.0156" style="stroke:#181818;stroke-width:1.0;"/>
    <line style="stroke:#181818;stroke-width:1.0;" x1="92.5" x2="227.5" y1="524.0156" y2="524.0156"/>
    <text fill="#000000" font-family="sans-serif" font-size="13" lengthAdjust="spacing" textLength="90" x="104.5" y="519.1592">return response</text>
    <line style="stroke:#000000;stroke-width:1.0;stroke-dasharray:2.0,2.0;" x1="20" x2="1270.5" y1="533.0156" y2="533.0156"/>
    <text fill="#000000" font-family="sans-serif" font-size="11" font-weight="bold" lengthAdjust="spacing" textLength="69" x="25" y="544.4346">[user found]</text>
    <line style="stroke:#181818;stroke-width:1.0;" x1="228.5" x2="270.5" y1="570.2031" y2="570.2031"/>
    <line style="stroke:#181818;stroke-width:1.0;" x1="270.5" x2="270.5" y1="570.2031" y2="583.2031"/>
    <line style="stroke:#181818;stroke-width:1.0;" x1="229.5" x2="270.5" y1="583.2031" y2="583.2031"/>
    <polygon fill="#181818" points="239.5,579.2031,229.5,583.2031,239.5,587.2031,235.5,583.2031" style="stroke:#181818;stroke-width:1.0;"/>
    <text fill="#000000" font-family="sans-serif" font-size="13" lengthAdjust="spacing" textLength="129" x="235.5" y="565.3467">Check if user is admin</text>
    <path d="M30,598.2031 L91,598.2031 L91,606.5547 L81,616.5547 L30,616.5547 L30,598.2031 " fill="#EEEEEE" style="stroke:#000000;stroke-width:1.5;"/>
    <rect fill="none" height="716.375" style="stroke:#000000;stroke-width:1.5;" width="1230.5" x="30" y="598.2031"/>
    <text fill="#000000" font-family="sans-serif" font-size="13" font-weight="bold" lengthAdjust="spacing" textLength="16" x="45" y="612.6982">alt</text>
    <text fill="#000000" font-family="sans-serif" font-size="11" font-weight="bold" lengthAdjust="spacing" textLength="63" x="106" y="611.6221">[not admin]</text>
    <line style="stroke:#181818;stroke-width:1.0;" x1="228.5" x2="270.5" y1="638.9063" y2="638.9063"/>
    <line style="stroke:#181818;stroke-width:1.0;" x1="270.5" x2="270.5" y1="638.9063" y2="651.9063"/>
    <line style="stroke:#181818;stroke-width:1.0;" x1="229.5" x2="270.5" y1="651.9063" y2="651.9063"/>
    <polygon fill="#181818" points="239.5,647.9063,229.5,651.9063,239.5,655.9063,235.5,651.9063" style="stroke:#181818;stroke-width:1.0;"/>
    <text fill="#000000" font-family="sans-serif" font-size="13" lengthAdjust="spacing" textLength="433" x="235.5" y="634.0498">CreateErrorResponse(response, data, "Unauthorized, Cannot update user")</text>
    <polygon fill="#181818" points="98.5,678.2578,88.5,682.2578,98.5,686.2578,94.5,682.2578" style="stroke:#181818;stroke-width:1.0;"/>
    <line style="stroke:#181818;stroke-width:1.0;" x1="92.5" x2="227.5" y1="682.2578" y2="682.2578"/>
    <text fill="#000000" font-family="sans-serif" font-size="13" lengthAdjust="spacing" textLength="90" x="104.5" y="677.4014">return response</text>
    <line style="stroke:#000000;stroke-width:1.0;stroke-dasharray:2.0,2.0;" x1="30" x2="1260.5" y1="691.2578" y2="691.2578"/>
    <text fill="#000000" font-family="sans-serif" font-size="11" font-weight="bold" lengthAdjust="spacing" textLength="42" x="35" y="702.6768">[admin]</text>
    <polygon fill="#181818" points="1023,724.4453,1033,728.4453,1023,732.4453,1027,728.4453" style="stroke:#181818;stroke-width:1.0;"/>
    <line style="stroke:#181818;stroke-width:1.0;" x1="228.5" x2="1029" y1="728.4453" y2="728.4453"/>
    <text fill="#000000" font-family="sans-serif" font-size="13" lengthAdjust="spacing" textLength="469" x="235.5" y="723.5889">select("*").table("accounts").where("account_number =", account_number).exec()</text>
    <polygon fill="#181818" points="1169,754.7969,1179,758.7969,1169,762.7969,1173,758.7969" style="stroke:#181818;stroke-width:1.0;"/>
    <line style="stroke:#181818;stroke-width:1.0;" x1="1040" x2="1175" y1="758.7969" y2="758.7969"/>
    <text fill="#000000" font-family="sans-serif" font-size="13" lengthAdjust="spacing" textLength="112" x="1047" y="753.9404">return account data</text>
    <path d="M40,773.7969 L101,773.7969 L101,782.1484 L91,792.1484 L40,792.1484 L40,773.7969 " fill="#EEEEEE" style="stroke:#000000;stroke-width:1.5;"/>
    <rect fill="none" height="533.7813" style="stroke:#000000;stroke-width:1.5;" width="1210.5" x="40" y="773.7969"/>
    <text fill="#000000" font-family="sans-serif" font-size="13" font-weight="bold" lengthAdjust="spacing" textLength="16" x="55" y="788.292">alt</text>
    <text fill="#000000" font-family="sans-serif" font-size="11" font-weight="bold" lengthAdjust="spacing" textLength="107" x="116" y="787.2158">[account not found]</text>
    <line style="stroke:#181818;stroke-width:1.0;" x1="228.5" x2="270.5" y1="814.5" y2="814.5"/>
    <line style="stroke:#181818;stroke-width:1.0;" x1="270.5" x2="270.5" y1="814.5" y2="827.5"/>
    <line style="stroke:#181818;stroke-width:1.0;" x1="229.5" x2="270.5" y1="827.5" y2="827.5"/>
    <polygon fill="#181818" points="239.5,823.5,229.5,827.5,239.5,831.5,235.5,827.5" style="stroke:#181818;stroke-width:1.0;"/>
    <text fill="#000000" font-family="sans-serif" font-size="13" lengthAdjust="spacing" textLength="417" x="235.5" y="809.6436">CreateErrorResponse(response, data, "Account number does not exist")</text>
    <polygon fill="#181818" points="98.5,853.8516,88.5,857.8516,98.5,861.8516,94.5,857.8516" style="stroke:#181818;stroke-width:1.0;"/>
    <line style="stroke:#181818;stroke-width:1.0;" x1="92.5" x2="227.5" y1="857.8516" y2="857.8516"/>
    <text fill="#000000" font-family="sans-serif" font-size="13" lengthAdjust="spacing" textLength="90" x="104.5" y="852.9951">return response</text>
    <line style="stroke:#000000;stroke-width:1.0;stroke-dasharray:2.0,2.0;" x1="40" x2="1250.5" y1="866.8516" y2="866.8516"/>
    <text fill="#000000" font-family="sans-serif" font-size="11" font-weight="bold" lengthAdjust="spacing" textLength="86" x="45" y="878.2705">[account found]</text>
    <polygon fill="#181818" points="1023,900.0391,1033,904.0391,1023,908.0391,1027,904.0391" style="stroke:#181818;stroke-width:1.0;"/>
    <line style="stroke:#181818;stroke-width:1.0;" x1="228.5" x2="1029" y1="904.0391" y2="904.0391"/>
    <text fill="#000000" font-family="sans-serif" font-size="13" lengthAdjust="spacing" textLength="348" x="235.5" y="899.1826">select("*").table("users").where("email =", new_email).exec()</text>
    <polygon fill="#181818" points="1169,930.3906,1179,934.3906,1169,938.3906,1173,934.3906" style="stroke:#181818;stroke-width:1.0;"/>
    <line style="stroke:#181818;stroke-width:1.0;" x1="1040" x2="1175" y1="934.3906" y2="934.3906"/>
    <text fill="#000000" font-family="sans-serif" font-size="13" lengthAdjust="spacing" textLength="91" x="1047" y="929.5342">return user data</text>
    <path d="M50,949.3906 L111,949.3906 L111,957.7422 L101,967.7422 L50,967.7422 L50,949.3906 " fill="#EEEEEE" style="stroke:#000000;stroke-width:1.5;"/>
    <rect fill="none" height="351.1875" style="stroke:#000000;stroke-width:1.5;" width="1190.5" x="50" y="949.3906"/>
    <text fill="#000000" font-family="sans-serif" font-size="13" font-weight="bold" lengthAdjust="spacing" textLength="16" x="65" y="963.8857">alt</text>
    <text fill="#000000" font-family="sans-serif" font-size="11" font-weight="bold" lengthAdjust="spacing" textLength="75" x="126" y="962.8096">[email in use]</text>
    <line style="stroke:#181818;stroke-width:1.0;" x1="228.5" x2="270.5" y1="990.0938" y2="990.0938"/>
    <line style="stroke:#181818;stroke-width:1.0;" x1="270.5" x2="270.5" y1="990.0938" y2="1003.0938"/>
    <line style="stroke:#181818;stroke-width:1.0;" x1="229.5" x2="270.5" y1="1003.0938" y2="1003.0938"/>
    <polygon fill="#181818" points="239.5,999.0938,229.5,1003.0938,239.5,1007.0938,235.5,1003.0938" style="stroke:#181818;stroke-width:1.0;"/>
    <text fill="#000000" font-family="sans-serif" font-size="13" lengthAdjust="spacing" textLength="474" x="235.5" y="985.2373">CreateErrorResponse(response, data, "Email is associated with another account")</text>
    <polygon fill="#181818" points="98.5,1029.4453,88.5,1033.4453,98.5,1037.4453,94.5,1033.4453" style="stroke:#181818;stroke-width:1.0;"/>
    <line style="stroke:#181818;stroke-width:1.0;" x1="92.5" x2="227.5" y1="1033.4453" y2="1033.4453"/>
    <text fill="#000000" font-family="sans-serif" font-size="13" lengthAdjust="spacing" textLength="90" x="104.5" y="1028.5889">return response</text>
    <line style="stroke:#000000;stroke-width:1.0;stroke-dasharray:2.0,2.0;" x1="50" x2="1240.5" y1="1042.4453" y2="1042.4453"/>
    <text fill="#000000" font-family="sans-serif" font-size="11" font-weight="bold" lengthAdjust="spacing" textLength="88" x="55" y="1053.8643">[email available]</text>
    <polygon fill="#181818" points="1023,1075.6328,1033,1079.6328,1023,1083.6328,1027,1079.6328" style="stroke:#181818;stroke-width:1.0;"/>
    <line style="stroke:#181818;stroke-width:1.0;" x1="228.5" x2="1029" y1="1079.6328" y2="1079.6328"/>
    <text fill="#000000" font-family="sans-serif" font-size="13" lengthAdjust="spacing" textLength="549" x="235.5" y="1074.7764">update("users", {new_first_name, new_last_name, new_email, new_role}).where("id =", user_id)</text>
    <polygon fill="#181818" points="1169,1105.9844,1179,1109.9844,1169,1113.9844,1173,1109.9844" style="stroke:#181818;stroke-width:1.0;"/>
    <line style="stroke:#181818;stroke-width:1.0;" x1="1040" x2="1175" y1="1109.9844" y2="1109.9844"/>
    <text fill="#000000" font-family="sans-serif" font-size="13" lengthAdjust="spacing" textLength="86" x="1047" y="1105.1279">return success</text>
    <path d="M60,1124.9844 L121,1124.9844 L121,1133.3359 L111,1143.3359 L60,1143.3359 L60,1124.9844 " fill="#EEEEEE" style="stroke:#000000;stroke-width:1.5;"/>
    <rect fill="none" height="168.5938" style="stroke:#000000;stroke-width:1.5;" width="714" x="60" y="1124.9844"/>
    <text fill="#000000" font-family="sans-serif" font-size="13" font-weight="bold" lengthAdjust="spacing" textLength="16" x="75" y="1139.4795">alt</text>
    <text fill="#000000" font-family="sans-serif" font-size="11" font-weight="bold" lengthAdjust="spacing" textLength="79" x="136" y="1138.4033">[update failed]</text>
    <line style="stroke:#181818;stroke-width:1.0;" x1="228.5" x2="270.5" y1="1165.6875" y2="1165.6875"/>
    <line style="stroke:#181818;stroke-width:1.0;" x1="270.5" x2="270.5" y1="1165.6875" y2="1178.6875"/>
    <line style="stroke:#181818;stroke-width:1.0;" x1="229.5" x2="270.5" y1="1178.6875" y2="1178.6875"/>
    <polygon fill="#181818" points="239.5,1174.6875,229.5,1178.6875,239.5,1182.6875,235.5,1178.6875" style="stroke:#181818;stroke-width:1.0;"/>
    <text fill="#000000" font-family="sans-serif" font-size="13" lengthAdjust="spacing" textLength="358" x="235.5" y="1160.8311">CreateErrorResponse(response, data, "Failed to update user")</text>
    <polygon fill="#181818" points="98.5,1205.0391,88.5,1209.0391,98.5,1213.0391,94.5,1209.0391" style="stroke:#181818;stroke-width:1.0;"/>
    <line style="stroke:#181818;stroke-width:1.0;" x1="92.5" x2="227.5" y1="1209.0391" y2="1209.0391"/>
    <text fill="#000000" font-family="sans-serif" font-size="13" lengthAdjust="spacing" textLength="90" x="104.5" y="1204.1826">return response</text>
    <line style="stroke:#000000;stroke-width:1.0;stroke-dasharray:2.0,2.0;" x1="60" x2="774" y1="1218.0391" y2="1218.0391"/>
    <text fill="#000000" font-family="sans-serif" font-size="11" font-weight="bold" lengthAdjust="spacing" textLength="110" x="65" y="1229.458">[update successful]</text>
    <polygon fill="#181818" points="704.5,1251.2266,714.5,1255.2266,704.5,1259.2266,708.5,1255.2266" style="stroke:#181818;stroke-width:1.0;"/>
    <line style="stroke:#181818;stroke-width:1.0;" x1="228.5" x2="710.5" y1="1255.2266" y2="1255.2266"/>
    <text fill="#000000" font-family="sans-serif" font-size="13" lengthAdjust="spacing" textLength="164" x="235.5" y="1250.3701">construct success response</text>
    <polygon fill="#181818" points="98.5,1281.5781,88.5,1285.5781,98.5,1289.5781,94.5,1285.5781" style="stroke:#181818;stroke-width:1.0;"/>
    <line style="stroke:#181818;stroke-width:1.0;" x1="92.5" x2="715.5" y1="1285.5781" y2="1285.5781"/>
    <text fill="#000000" font-family="sans-serif" font-size="13" lengthAdjust="spacing" textLength="90" x="104.5" y="1280.7217">return response</text>
  </g>
</svg>
