<svg xmlns="http://www.w3.org/2000/svg" xmlns:xlink="http://www.w3.org/1999/xlink" contentStyleType="text/css" height="1051px" preserveAspectRatio="none" style="width:1155px;height:1051px;background:#FFFFFF;" version="1.1" viewBox="0 0 1155 1051" width="1155px" zoomAndPan="magnify"><defs/><g><rect fill="#FFFFFF" height="233.4609" style="stroke:#181818;stroke-width:1.0;" width="10" x="193.5" y="114.9609"/><rect fill="#FFFFFF" height="813.5938" style="stroke:#181818;stroke-width:1.0;" width="10" x="719.5" y="145.3125"/><rect fill="#FFFFFF" height="30.3516" style="stroke:#181818;stroke-width:1.0;" width="10" x="861" y="394.6094"/><rect fill="#FFFFFF" height="30.3516" style="stroke:#181818;stroke-width:1.0;" width="10" x="861" y="570.2031"/><rect fill="#FFFFFF" height="30.3516" style="stroke:#181818;stroke-width:1.0;" width="10" x="861" y="801.5"/><rect fill="none" height="730.8906" style="stroke:#000000;stroke-width:1.5;" width="1138.5" x="10" y="221.0156"/><rect fill="none" height="504.9453" style="stroke:#000000;stroke-width:1.5;" width="1118.5" x="20" y="439.9609"/><rect fill="none" height="322.3516" style="stroke:#000000;stroke-width:1.5;" width="1098.5" x="30" y="615.5547"/><rect fill="none" height="109.4063" style="stroke:#000000;stroke-width:1.5;" width="987" x="131.5" y="760.7969"/><line style="stroke:#181818;stroke-width:0.5;stroke-dasharray:5.0,5.0;" x1="57" x2="57" y1="82.6094" y2="968.9063"/><line style="stroke:#181818;stroke-width:0.5;stroke-dasharray:5.0,5.0;" x1="198.5" x2="198.5" y1="82.6094" y2="968.9063"/><line style="stroke:#181818;stroke-width:0.5;stroke-dasharray:5.0,5.0;" x1="542" x2="542" y1="82.6094" y2="968.9063"/><line style="stroke:#181818;stroke-width:0.5;stroke-dasharray:5.0,5.0;" x1="631" x2="631" y1="82.6094" y2="968.9063"/><line style="stroke:#181818;stroke-width:0.5;stroke-dasharray:5.0,5.0;" x1="724" x2="724" y1="82.6094" y2="968.9063"/><line style="stroke:#181818;stroke-width:0.5;stroke-dasharray:5.0,5.0;" x1="866" x2="866" y1="82.6094" y2="968.9063"/><line style="stroke:#181818;stroke-width:0.5;stroke-dasharray:5.0,5.0;" x1="1006.5" x2="1006.5" y1="82.6094" y2="968.9063"/><line style="stroke:#181818;stroke-width:0.5;stroke-dasharray:5.0,5.0;" x1="1087.5" x2="1087.5" y1="82.6094" y2="968.9063"/><text fill="#000000" font-family="sans-serif" font-size="14" lengthAdjust="spacing" textLength="29" x="40" y="79.5332">User</text><ellipse cx="57.5" cy="13.5" fill="#E2E2F0" rx="8" ry="8" style="stroke:#181818;stroke-width:0.5;"/><path d="M57.5,21.5 L57.5,48.5 M44.5,29.5 L70.5,29.5 M57.5,48.5 L44.5,63.5 M57.5,48.5 L70.5,63.5 " fill="none" style="stroke:#181818;stroke-width:0.5;"/><text fill="#000000" font-family="sans-serif" font-size="14" lengthAdjust="spacing" textLength="29" x="40" y="982.4395">User</text><ellipse cx="57.5" cy="994.0156" fill="#E2E2F0" rx="8" ry="8" style="stroke:#181818;stroke-width:0.5;"/><path d="M57.5,1002.0156 L57.5,1029.0156 M44.5,1010.0156 L70.5,1010.0156 M57.5,1029.0156 L44.5,1044.0156 M57.5,1029.0156 L70.5,1044.0156 " fill="none" style="stroke:#181818;stroke-width:0.5;"/><rect fill="#E2E2F0" height="31.6094" rx="2.5" ry="2.5" style="stroke:#181818;stroke-width:0.5;" width="114" x="141.5" y="50"/><text fill="#000000" font-family="sans-serif" font-size="14" lengthAdjust="spacing" textLength="100" x="148.5" y="71.5332">UserInitRequest</text><rect fill="#E2E2F0" height="31.6094" rx="2.5" ry="2.5" style="stroke:#181818;stroke-width:0.5;" width="114" x="141.5" y="967.9063"/><text fill="#000000" font-family="sans-serif" font-size="14" lengthAdjust="spacing" textLength="100" x="148.5" y="989.4395">UserInitRequest</text><rect fill="#E2E2F0" height="31.6094" rx="2.5" ry="2.5" style="stroke:#181818;stroke-width:0.5;" width="95" x="495" y="50"/><text fill="#000000" font-family="sans-serif" font-size="14" lengthAdjust="spacing" textLength="81" x="502" y="71.5332">QJsonObject</text><rect fill="#E2E2F0" height="31.6094" rx="2.5" ry="2.5" style="stroke:#181818;stroke-width:0.5;" width="95" x="495" y="967.9063"/><text fill="#000000" font-family="sans-serif" font-size="14" lengthAdjust="spacing" textLength="81" x="502" y="989.4395">QJsonObject</text><rect fill="#E2E2F0" height="31.6094" rx="2.5" ry="2.5" style="stroke:#181818;stroke-width:0.5;" width="62" x="600" y="50"/><text fill="#000000" font-family="sans-serif" font-size="14" lengthAdjust="spacing" textLength="48" x="607" y="71.5332">QMutex</text><rect fill="#E2E2F0" height="31.6094" rx="2.5" ry="2.5" style="stroke:#181818;stroke-width:0.5;" width="62" x="600" y="967.9063"/><text fill="#000000" font-family="sans-serif" font-size="14" lengthAdjust="spacing" textLength="48" x="607" y="989.4395">QMutex</text><rect fill="#E2E2F0" height="31.6094" rx="2.5" ry="2.5" style="stroke:#181818;stroke-width:0.5;" width="105" x="672" y="50"/><text fill="#000000" font-family="sans-serif" font-size="14" lengthAdjust="spacing" textLength="91" x="679" y="71.5332">QMutexLocker</text><rect fill="#E2E2F0" height="31.6094" rx="2.5" ry="2.5" style="stroke:#181818;stroke-width:0.5;" width="105" x="672" y="967.9063"/><text fill="#000000" font-family="sans-serif" font-size="14" lengthAdjust="spacing" textLength="91" x="679" y="989.4395">QMutexLocker</text><rect fill="#E2E2F0" height="31.6094" rx="2.5" ry="2.5" style="stroke:#181818;stroke-width:0.5;" width="158" x="787" y="50"/><text fill="#000000" font-family="sans-serif" font-size="14" lengthAdjust="spacing" textLength="144" x="794" y="71.5332">DB::DatabaseManager</text><rect fill="#E2E2F0" height="31.6094" rx="2.5" ry="2.5" style="stroke:#181818;stroke-width:0.5;" width="158" x="787" y="967.9063"/><text fill="#000000" font-family="sans-serif" font-size="14" lengthAdjust="spacing" textLength="144" x="794" y="989.4395">DB::DatabaseManager</text><rect fill="#E2E2F0" height="31.6094" rx="2.5" ry="2.5" style="stroke:#181818;stroke-width:0.5;" width="99" x="957.5" y="50"/><text fill="#000000" font-family="sans-serif" font-size="14" lengthAdjust="spacing" textLength="85" x="964.5" y="71.5332">DB::DbResult</text><rect fill="#E2E2F0" height="31.6094" rx="2.5" ry="2.5" style="stroke:#181818;stroke-width:0.5;" width="99" x="957.5" y="967.9063"/><text fill="#000000" font-family="sans-serif" font-size="14" lengthAdjust="spacing" textLength="85" x="964.5" y="989.4395">DB::DbResult</text><rect fill="#E2E2F0" height="31.6094" rx="2.5" ry="2.5" style="stroke:#181818;stroke-width:0.5;" width="42" x="1066.5" y="50"/><text fill="#000000" font-family="sans-serif" font-size="14" lengthAdjust="spacing" textLength="28" x="1073.5" y="71.5332">data</text><rect fill="#E2E2F0" height="31.6094" rx="2.5" ry="2.5" style="stroke:#181818;stroke-width:0.5;" width="42" x="1066.5" y="967.9063"/><text fill="#000000" font-family="sans-serif" font-size="14" lengthAdjust="spacing" textLength="28" x="1073.5" y="989.4395">data</text><rect fill="#FFFFFF" height="233.4609" style="stroke:#181818;stroke-width:1.0;" width="10" x="193.5" y="114.9609"/><rect fill="#FFFFFF" height="813.5938" style="stroke:#181818;stroke-width:1.0;" width="10" x="719.5" y="145.3125"/><rect fill="#FFFFFF" height="30.3516" style="stroke:#181818;stroke-width:1.0;" width="10" x="861" y="394.6094"/><rect fill="#FFFFFF" height="30.3516" style="stroke:#181818;stroke-width:1.0;" width="10" x="861" y="570.2031"/><rect fill="#FFFFFF" height="30.3516" style="stroke:#181818;stroke-width:1.0;" width="10" x="861" y="801.5"/><polygon fill="#181818" points="181.5,110.9609,191.5,114.9609,181.5,118.9609,185.5,114.9609" style="stroke:#181818;stroke-width:1.0;"/><line style="stroke:#181818;stroke-width:1.0;" x1="57.5" x2="187.5" y1="114.9609" y2="114.9609"/><text fill="#000000" font-family="sans-serif" font-size="13" lengthAdjust="spacing" textLength="117" x="64.5" y="110.1045">execute(jsonObj, m)</text><polygon fill="#181818" points="707.5,141.3125,717.5,145.3125,707.5,149.3125,711.5,145.3125" style="stroke:#181818;stroke-width:1.0;"/><line style="stroke:#181818;stroke-width:1.0;" x1="203.5" x2="713.5" y1="145.3125" y2="145.3125"/><text fill="#000000" font-family="sans-serif" font-size="13" lengthAdjust="spacing" textLength="113" x="210.5" y="140.4561">QMutexLocker(&amp;m)</text><polygon fill="#181818" points="530.5,171.6641,540.5,175.6641,530.5,179.6641,534.5,175.6641" style="stroke:#181818;stroke-width:1.0;"/><line style="stroke:#181818;stroke-width:1.0;" x1="203.5" x2="536.5" y1="175.6641" y2="175.6641"/><text fill="#000000" font-family="sans-serif" font-size="13" lengthAdjust="spacing" textLength="138" x="210.5" y="170.8076">extract email, password</text><polygon fill="#181818" points="214.5,202.0156,204.5,206.0156,214.5,210.0156,210.5,206.0156" style="stroke:#181818;stroke-width:1.0;"/><line style="stroke:#181818;stroke-width:1.0;" x1="208.5" x2="541.5" y1="206.0156" y2="206.0156"/><text fill="#000000" font-family="sans-serif" font-size="13" lengthAdjust="spacing" textLength="91" x="220.5" y="201.1592">return user data</text><path d="M10,221.0156 L71,221.0156 L71,229.3672 L61,239.3672 L10,239.3672 L10,221.0156 " fill="#EEEEEE" style="stroke:#000000;stroke-width:1.5;"/><rect fill="none" height="730.8906" style="stroke:#000000;stroke-width:1.5;" width="1138.5" x="10" y="221.0156"/><text fill="#000000" font-family="sans-serif" font-size="13" font-weight="bold" lengthAdjust="spacing" textLength="16" x="25" y="235.5107">alt</text><text fill="#000000" font-family="sans-serif" font-size="11" font-weight="bold" lengthAdjust="spacing" textLength="124" x="86" y="234.4346">[DB connection invalid]</text><line style="stroke:#181818;stroke-width:1.0;" x1="203.5" x2="245.5" y1="261.7188" y2="261.7188"/><line style="stroke:#181818;stroke-width:1.0;" x1="245.5" x2="245.5" y1="261.7188" y2="274.7188"/><line style="stroke:#181818;stroke-width:1.0;" x1="204.5" x2="245.5" y1="274.7188" y2="274.7188"/><polygon fill="#181818" points="214.5,270.7188,204.5,274.7188,214.5,278.7188,210.5,274.7188" style="stroke:#181818;stroke-width:1.0;"/><text fill="#000000" font-family="sans-serif" font-size="13" lengthAdjust="spacing" textLength="194" x="210.5" y="256.8623">isDBConnectionValid(dbManager)</text><line style="stroke:#181818;stroke-width:1.0;" x1="203.5" x2="245.5" y1="305.0703" y2="305.0703"/><line style="stroke:#181818;stroke-width:1.0;" x1="245.5" x2="245.5" y1="305.0703" y2="318.0703"/><line style="stroke:#181818;stroke-width:1.0;" x1="204.5" x2="245.5" y1="318.0703" y2="318.0703"/><polygon fill="#181818" points="214.5,314.0703,204.5,318.0703,214.5,322.0703,210.5,318.0703" style="stroke:#181818;stroke-width:1.0;"/><text fill="#000000" font-family="sans-serif" font-size="13" lengthAdjust="spacing" textLength="243" x="210.5" y="300.2139">CreateDBConnectionError(response, data)</text><polygon fill="#181818" points="68.5,344.4219,58.5,348.4219,68.5,352.4219,64.5,348.4219" style="stroke:#181818;stroke-width:1.0;"/><line style="stroke:#181818;stroke-width:1.0;" x1="62.5" x2="197.5" y1="348.4219" y2="348.4219"/><text fill="#000000" font-family="sans-serif" font-size="13" lengthAdjust="spacing" textLength="90" x="74.5" y="343.5654">return response</text><line style="stroke:#000000;stroke-width:1.0;stroke-dasharray:2.0,2.0;" x1="10" x2="1148.5" y1="357.4219" y2="357.4219"/><text fill="#000000" font-family="sans-serif" font-size="11" font-weight="bold" lengthAdjust="spacing" textLength="114" x="15" y="368.8408">[DB connection valid]</text><polygon fill="#181818" points="849,390.6094,859,394.6094,849,398.6094,853,394.6094" style="stroke:#181818;stroke-width:1.0;"/><line style="stroke:#181818;stroke-width:1.0;" x1="198.5" x2="855" y1="394.6094" y2="394.6094"/><text fill="#000000" font-family="sans-serif" font-size="13" lengthAdjust="spacing" textLength="318" x="205.5" y="389.7529">select("*").table("users").where("email =", email).exec()</text><polygon fill="#181818" points="995,420.9609,1005,424.9609,995,428.9609,999,424.9609" style="stroke:#181818;stroke-width:1.0;"/><line style="stroke:#181818;stroke-width:1.0;" x1="866" x2="1001" y1="424.9609" y2="424.9609"/><text fill="#000000" font-family="sans-serif" font-size="13" lengthAdjust="spacing" textLength="91" x="873" y="420.1045">return user data</text><path d="M20,439.9609 L81,439.9609 L81,448.3125 L71,458.3125 L20,458.3125 L20,439.9609 " fill="#EEEEEE" style="stroke:#000000;stroke-width:1.5;"/><rect fill="none" height="504.9453" style="stroke:#000000;stroke-width:1.5;" width="1118.5" x="20" y="439.9609"/><text fill="#000000" font-family="sans-serif" font-size="13" font-weight="bold" lengthAdjust="spacing" textLength="16" x="35" y="454.4561">alt</text><text fill="#000000" font-family="sans-serif" font-size="11" font-weight="bold" lengthAdjust="spacing" textLength="90" x="96" y="453.3799">[user not found]</text><line style="stroke:#181818;stroke-width:1.0;" x1="198.5" x2="240.5" y1="480.6641" y2="480.6641"/><line style="stroke:#181818;stroke-width:1.0;" x1="240.5" x2="240.5" y1="480.6641" y2="493.6641"/><line style="stroke:#181818;stroke-width:1.0;" x1="199.5" x2="240.5" y1="493.6641" y2="493.6641"/><polygon fill="#181818" points="209.5,489.6641,199.5,493.6641,209.5,497.6641,205.5,493.6641" style="stroke:#181818;stroke-width:1.0;"/><text fill="#000000" font-family="sans-serif" font-size="13" lengthAdjust="spacing" textLength="324" x="205.5" y="475.8076">CreateErrorResponse(response, data, "email not found")</text><polygon fill="#181818" points="68.5,520.0156,58.5,524.0156,68.5,528.0156,64.5,524.0156" style="stroke:#181818;stroke-width:1.0;"/><line style="stroke:#181818;stroke-width:1.0;" x1="62.5" x2="197.5" y1="524.0156" y2="524.0156"/><text fill="#000000" font-family="sans-serif" font-size="13" lengthAdjust="spacing" textLength="90" x="74.5" y="519.1592">return response</text><line style="stroke:#000000;stroke-width:1.0;stroke-dasharray:2.0,2.0;" x1="20" x2="1138.5" y1="533.0156" y2="533.0156"/><text fill="#000000" font-family="sans-serif" font-size="11" font-weight="bold" lengthAdjust="spacing" textLength="69" x="25" y="544.4346">[user found]</text><polygon fill="#181818" points="849,566.2031,859,570.2031,849,574.2031,853,570.2031" style="stroke:#181818;stroke-width:1.0;"/><line style="stroke:#181818;stroke-width:1.0;" x1="198.5" x2="855" y1="570.2031" y2="570.2031"/><text fill="#000000" font-family="sans-serif" font-size="13" lengthAdjust="spacing" textLength="358" x="205.5" y="565.3467">select("password").table("users").where("id =", user_id).exec()</text><polygon fill="#181818" points="995,596.5547,1005,600.5547,995,604.5547,999,600.5547" style="stroke:#181818;stroke-width:1.0;"/><line style="stroke:#181818;stroke-width:1.0;" x1="866" x2="1001" y1="600.5547" y2="600.5547"/><text fill="#000000" font-family="sans-serif" font-size="13" lengthAdjust="spacing" textLength="92" x="873" y="595.6982">return password</text><path d="M30,615.5547 L91,615.5547 L91,623.9063 L81,633.9063 L30,633.9063 L30,615.5547 " fill="#EEEEEE" style="stroke:#000000;stroke-width:1.5;"/><rect fill="none" height="322.3516" style="stroke:#000000;stroke-width:1.5;" width="1098.5" x="30" y="615.5547"/><text fill="#000000" font-family="sans-serif" font-size="13" font-weight="bold" lengthAdjust="spacing" textLength="16" x="45" y="630.0498">alt</text><text fill="#000000" font-family="sans-serif" font-size="11" font-weight="bold" lengthAdjust="spacing" textLength="102" x="106" y="628.9736">[password invalid]</text><line style="stroke:#181818;stroke-width:1.0;" x1="198.5" x2="240.5" y1="656.2578" y2="656.2578"/><line style="stroke:#181818;stroke-width:1.0;" x1="240.5" x2="240.5" y1="656.2578" y2="669.2578"/><line style="stroke:#181818;stroke-width:1.0;" x1="199.5" x2="240.5" y1="669.2578" y2="669.2578"/><polygon fill="#181818" points="209.5,665.2578,199.5,669.2578,209.5,673.2578,205.5,669.2578" style="stroke:#181818;stroke-width:1.0;"/><text fill="#000000" font-family="sans-serif" font-size="13" lengthAdjust="spacing" textLength="330" x="205.5" y="651.4014">CreateErrorResponse(response, data, "Invalid password")</text><polygon fill="#181818" points="68.5,695.6094,58.5,699.6094,68.5,703.6094,64.5,699.6094" style="stroke:#181818;stroke-width:1.0;"/><line style="stroke:#181818;stroke-width:1.0;" x1="62.5" x2="197.5" y1="699.6094" y2="699.6094"/><text fill="#000000" font-family="sans-serif" font-size="13" lengthAdjust="spacing" textLength="90" x="74.5" y="694.7529">return response</text><line style="stroke:#000000;stroke-width:1.0;stroke-dasharray:2.0,2.0;" x1="30" x2="1128.5" y1="708.6094" y2="708.6094"/><text fill="#000000" font-family="sans-serif" font-size="11" font-weight="bold" lengthAdjust="spacing" textLength="92" x="35" y="720.0283">[password valid]</text><polygon fill="#181818" points="1075.5,741.7969,1085.5,745.7969,1075.5,749.7969,1079.5,745.7969" style="stroke:#181818;stroke-width:1.0;"/><line style="stroke:#181818;stroke-width:1.0;" x1="198.5" x2="1081.5" y1="745.7969" y2="745.7969"/><text fill="#000000" font-family="sans-serif" font-size="13" lengthAdjust="spacing" textLength="164" x="205.5" y="740.9404">insert role, first_name, email</text><path d="M131.5,760.7969 L192.5,760.7969 L192.5,769.1484 L182.5,779.1484 L131.5,779.1484 L131.5,760.7969 " fill="#EEEEEE" style="stroke:#000000;stroke-width:1.5;"/><rect fill="none" height="109.4063" style="stroke:#000000;stroke-width:1.5;" width="987" x="131.5" y="760.7969"/><text fill="#000000" font-family="sans-serif" font-size="13" font-weight="bold" lengthAdjust="spacing" textLength="16" x="146.5" y="775.292">alt</text><text fill="#000000" font-family="sans-serif" font-size="11" font-weight="bold" lengthAdjust="spacing" textLength="72" x="207.5" y="774.2158">[role is user]</text><polygon fill="#181818" points="849,797.5,859,801.5,849,805.5,853,801.5" style="stroke:#181818;stroke-width:1.0;"/><line style="stroke:#181818;stroke-width:1.0;" x1="198.5" x2="855" y1="801.5" y2="801.5"/><text fill="#000000" font-family="sans-serif" font-size="13" lengthAdjust="spacing" textLength="505" x="205.5" y="796.6436">select("account_number, balance").table("accounts").where("user_id =", user_id).exec()</text><polygon fill="#181818" points="995,827.8516,1005,831.8516,995,835.8516,999,831.8516" style="stroke:#181818;stroke-width:1.0;"/><line style="stroke:#181818;stroke-width:1.0;" x1="866" x2="1001" y1="831.8516" y2="831.8516"/><text fill="#000000" font-family="sans-serif" font-size="13" lengthAdjust="spacing" textLength="112" x="873" y="826.9951">return account data</text><polygon fill="#181818" points="1075.5,858.2031,1085.5,862.2031,1075.5,866.2031,1079.5,862.2031" style="stroke:#181818;stroke-width:1.0;"/><line style="stroke:#181818;stroke-width:1.0;" x1="198.5" x2="1081.5" y1="862.2031" y2="862.2031"/><text fill="#000000" font-family="sans-serif" font-size="13" lengthAdjust="spacing" textLength="232" x="205.5" y="857.3467">insert account_number, current_balance</text><polygon fill="#181818" points="530.5,895.5547,540.5,899.5547,530.5,903.5547,534.5,899.5547" style="stroke:#181818;stroke-width:1.0;"/><line style="stroke:#181818;stroke-width:1.0;" x1="198.5" x2="536.5" y1="899.5547" y2="899.5547"/><text fill="#000000" font-family="sans-serif" font-size="13" lengthAdjust="spacing" textLength="164" x="205.5" y="894.6982">construct success response</text><polygon fill="#181818" points="68.5,925.9063,58.5,929.9063,68.5,933.9063,64.5,929.9063" style="stroke:#181818;stroke-width:1.0;"/><line style="stroke:#181818;stroke-width:1.0;" x1="62.5" x2="541.5" y1="929.9063" y2="929.9063"/><text fill="#000000" font-family="sans-serif" font-size="13" lengthAdjust="spacing" textLength="90" x="74.5" y="925.0498">return response</text></g></svg>