<svg xmlns="http://www.w3.org/2000/svg" xmlns:xlink="http://www.w3.org/1999/xlink" contentStyleType="text/css" height="1503px" preserveAspectRatio="none" style="width:1591px;height:1503px;background:#FFFFFF;" version="1.1" viewBox="0 0 1591 1503" width="1591px" zoomAndPan="magnify">
  <defs>
    <style type="text/css">a:hover { text-decoration: underline; }</style>
  </defs>
  <g>
    <rect fill="#FFFFFF" height="233.4609" style="stroke:#181818;stroke-width:1.0;" width="10" x="213.5" y="114.9609"/>
    <rect fill="#FFFFFF" height="1265.9688" style="stroke:#181818;stroke-width:1.0;" width="10" x="909.5" y="145.3125"/>
    <rect fill="#FFFFFF" height="30.3516" style="stroke:#181818;stroke-width:1.0;" width="10" x="1299.5" y="419.9609"/>
    <rect fill="#FFFFFF" height="30.3516" style="stroke:#181818;stroke-width:1.0;" width="10" x="1299.5" y="652.9063"/>
    <rect fill="#FFFFFF" height="30.3516" style="stroke:#181818;stroke-width:1.0;" width="10" x="1299.5" y="828.5"/>
    <rect fill="#FFFFFF" height="30.3516" style="stroke:#181818;stroke-width:1.0;" width="10" x="1299.5" y="1162.3359"/>
    <rect fill="none" height="1183.2656" style="stroke:#000000;stroke-width:1.5;" width="1574" x="10" y="221.0156"/>
    <rect fill="none" height="244.2969" style="stroke:#000000;stroke-width:1.5;" width="1514" x="40" y="379.2578"/>
    <rect fill="none" height="151.2422" style="stroke:#000000;stroke-width:1.5;" width="687.5" x="50" y="465.3125"/>
    <rect fill="none" height="699.0234" style="stroke:#000000;stroke-width:1.5;" width="1554" x="20" y="698.2578"/>
    <rect fill="none" height="516.4297" style="stroke:#000000;stroke-width:1.5;" width="1534" x="30" y="873.8516"/>
    <rect fill="none" height="351.1875" style="stroke:#000000;stroke-width:1.5;" width="1514" x="40" y="1032.0938"/>
    <rect fill="none" height="168.5938" style="stroke:#000000;stroke-width:1.5;" width="740" x="50" y="1207.6875"/>
    <line style="stroke:#181818;stroke-width:0.5;stroke-dasharray:5.0,5.0;" x1="77" x2="77" y1="82.6094" y2="1421.2813"/>
    <line style="stroke:#181818;stroke-width:0.5;stroke-dasharray:5.0,5.0;" x1="218.5" x2="218.5" y1="82.6094" y2="1421.2813"/>
    <line style="stroke:#181818;stroke-width:0.5;stroke-dasharray:5.0,5.0;" x1="732" x2="732" y1="82.6094" y2="1421.2813"/>
    <line style="stroke:#181818;stroke-width:0.5;stroke-dasharray:5.0,5.0;" x1="821" x2="821" y1="82.6094" y2="1421.2813"/>
    <line style="stroke:#181818;stroke-width:0.5;stroke-dasharray:5.0,5.0;" x1="914" x2="914" y1="82.6094" y2="1421.2813"/>
    <line style="stroke:#181818;stroke-width:0.5;stroke-dasharray:5.0,5.0;" x1="1304.5" x2="1304.5" y1="82.6094" y2="1421.2813"/>
    <line style="stroke:#181818;stroke-width:0.5;stroke-dasharray:5.0,5.0;" x1="1494" x2="1494" y1="82.6094" y2="1421.2813"/>
    <text fill="#000000" font-family="sans-serif" font-size="14" lengthAdjust="spacing" textLength="29" x="60" y="79.5332">User</text>
    <ellipse cx="77.5" cy="13.5" fill="#E2E2F0" rx="8" ry="8" style="stroke:#181818;stroke-width:0.5;"/>
    <path d="M77.5,21.5 L77.5,48.5 M64.5,29.5 L90.5,29.5 M77.5,48.5 L64.5,63.5 M77.5,48.5 L90.5,63.5 " fill="none" style="stroke:#181818;stroke-width:0.5;"/>
    <text fill="#000000" font-family="sans-serif" font-size="14" lengthAdjust="spacing" textLength="29" x="60" y="1434.8145">User</text>
    <ellipse cx="77.5" cy="1446.3906" fill="#E2E2F0" rx="8" ry="8" style="stroke:#181818;stroke-width:0.5;"/>
    <path d="M77.5,1454.3906 L77.5,1481.3906 M64.5,1462.3906 L90.5,1462.3906 M77.5,1481.3906 L64.5,1496.3906 M77.5,1481.3906 L90.5,1496.3906 " fill="none" style="stroke:#181818;stroke-width:0.5;"/>
    <rect fill="#E2E2F0" height="31.6094" rx="2.5" ry="2.5" style="stroke:#181818;stroke-width:0.5;" width="176" x="130.5" y="50"/>
    <text fill="#000000" font-family="sans-serif" font-size="14" lengthAdjust="spacing" textLength="162" x="137.5" y="71.5332">MakeTransactionRequest</text>
    <rect fill="#E2E2F0" height="31.6094" rx="2.5" ry="2.5" style="stroke:#181818;stroke-width:0.5;" width="176" x="130.5" y="1420.2813"/>
    <text fill="#000000" font-family="sans-serif" font-size="14" lengthAdjust="spacing" textLength="162" x="137.5" y="1441.8145">MakeTransactionRequest</text>
    <rect fill="#E2E2F0" height="31.6094" rx="2.5" ry="2.5" style="stroke:#181818;stroke-width:0.5;" width="95" x="685" y="50"/>
    <text fill="#000000" font-family="sans-serif" font-size="14" lengthAdjust="spacing" textLength="81" x="692" y="71.5332">QJsonObject</text>
    <rect fill="#E2E2F0" height="31.6094" rx="2.5" ry="2.5" style="stroke:#181818;stroke-width:0.5;" width="95" x="685" y="1420.2813"/>
    <text fill="#000000" font-family="sans-serif" font-size="14" lengthAdjust="spacing" textLength="81" x="692" y="1441.8145">QJsonObject</text>
    <rect fill="#E2E2F0" height="31.6094" rx="2.5" ry="2.5" style="stroke:#181818;stroke-width:0.5;" width="62" x="790" y="50"/>
    <text fill="#000000" font-family="sans-serif" font-size="14" lengthAdjust="spacing" textLength="48" x="797" y="71.5332">QMutex</text>
    <rect fill="#E2E2F0" height="31.6094" rx="2.5" ry="2.5" style="stroke:#181818;stroke-width:0.5;" width="62" x="790" y="1420.2813"/>
    <text fill="#000000" font-family="sans-serif" font-size="14" lengthAdjust="spacing" textLength="48" x="797" y="1441.8145">QMutex</text>
    <rect fill="#E2E2F0" height="31.6094" rx="2.5" ry="2.5" style="stroke:#181818;stroke-width:0.5;" width="105" x="862" y="50"/>
    <text fill="#000000" font-family="sans-serif" font-size="14" lengthAdjust="spacing" textLength="91" x="869" y="71.5332">QMutexLocker</text>
    <rect fill="#E2E2F0" height="31.6094" rx="2.5" ry="2.5" style="stroke:#181818;stroke-width:0.5;" width="105" x="862" y="1420.2813"/>
    <text fill="#000000" font-family="sans-serif" font-size="14" lengthAdjust="spacing" textLength="91" x="869" y="1441.8145">QMutexLocker</text>
    <rect fill="#E2E2F0" height="31.6094" rx="2.5" ry="2.5" style="stroke:#181818;stroke-width:0.5;" width="158" x="1225.5" y="50"/>
    <text fill="#000000" font-family="sans-serif" font-size="14" lengthAdjust="spacing" textLength="144" x="1232.5" y="71.5332">DB::DatabaseManager</text>
    <rect fill="#E2E2F0" height="31.6094" rx="2.5" ry="2.5" style="stroke:#181818;stroke-width:0.5;" width="158" x="1225.5" y="1420.2813"/>
    <text fill="#000000" font-family="sans-serif" font-size="14" lengthAdjust="spacing" textLength="144" x="1232.5" y="1441.8145">DB::DatabaseManager</text>
    <rect fill="#E2E2F0" height="31.6094" rx="2.5" ry="2.5" style="stroke:#181818;stroke-width:0.5;" width="99" x="1445" y="50"/>
    <text fill="#000000" font-family="sans-serif" font-size="14" lengthAdjust="spacing" textLength="85" x="1452" y="71.5332">DB::DbResult</text>
    <rect fill="#E2E2F0" height="31.6094" rx="2.5" ry="2.5" style="stroke:#181818;stroke-width:0.5;" width="99" x="1445" y="1420.2813"/>
    <text fill="#000000" font-family="sans-serif" font-size="14" lengthAdjust="spacing" textLength="85" x="1452" y="1441.8145">DB::DbResult</text>
    <rect fill="#FFFFFF" height="233.4609" style="stroke:#181818;stroke-width:1.0;" width="10" x="213.5" y="114.9609"/>
    <rect fill="#FFFFFF" height="1265.9688" style="stroke:#181818;stroke-width:1.0;" width="10" x="909.5" y="145.3125"/>
    <rect fill="#FFFFFF" height="30.3516" style="stroke:#181818;stroke-width:1.0;" width="10" x="1299.5" y="419.9609"/>
    <rect fill="#FFFFFF" height="30.3516" style="stroke:#181818;stroke-width:1.0;" width="10" x="1299.5" y="652.9063"/>
    <rect fill="#FFFFFF" height="30.3516" style="stroke:#181818;stroke-width:1.0;" width="10" x="1299.5" y="828.5"/>
    <rect fill="#FFFFFF" height="30.3516" style="stroke:#181818;stroke-width:1.0;" width="10" x="1299.5" y="1162.3359"/>
    <polygon fill="#181818" points="201.5,110.9609,211.5,114.9609,201.5,118.9609,205.5,114.9609" style="stroke:#181818;stroke-width:1.0;"/>
    <line style="stroke:#181818;stroke-width:1.0;" x1="77.5" x2="207.5" y1="114.9609" y2="114.9609"/>
    <text fill="#000000" font-family="sans-serif" font-size="13" lengthAdjust="spacing" textLength="117" x="84.5" y="110.1045">execute(jsonObj, m)</text>
    <polygon fill="#181818" points="897.5,141.3125,907.5,145.3125,897.5,149.3125,901.5,145.3125" style="stroke:#181818;stroke-width:1.0;"/>
    <line style="stroke:#181818;stroke-width:1.0;" x1="223.5" x2="903.5" y1="145.3125" y2="145.3125"/>
    <text fill="#000000" font-family="sans-serif" font-size="13" lengthAdjust="spacing" textLength="113" x="230.5" y="140.4561">QMutexLocker(&amp;m)</text>
    <polygon fill="#181818" points="720.5,171.6641,730.5,175.6641,720.5,179.6641,724.5,175.6641" style="stroke:#181818;stroke-width:1.0;"/>
    <line style="stroke:#181818;stroke-width:1.0;" x1="223.5" x2="726.5" y1="175.6641" y2="175.6641"/>
    <text fill="#000000" font-family="sans-serif" font-size="13" lengthAdjust="spacing" textLength="150" x="230.5" y="170.8076">extract transaction details</text>
    <polygon fill="#181818" points="234.5,202.0156,224.5,206.0156,234.5,210.0156,230.5,206.0156" style="stroke:#181818;stroke-width:1.0;"/>
    <line style="stroke:#181818;stroke-width:1.0;" x1="228.5" x2="731.5" y1="206.0156" y2="206.0156"/>
    <text fill="#000000" font-family="sans-serif" font-size="13" lengthAdjust="spacing" textLength="143" x="240.5" y="201.1592">return transaction details</text>
    <path d="M10,221.0156 L71,221.0156 L71,229.3672 L61,239.3672 L10,239.3672 L10,221.0156 " fill="#EEEEEE" style="stroke:#000000;stroke-width:1.5;"/>
    <rect fill="none" height="1183.2656" style="stroke:#000000;stroke-width:1.5;" width="1574" x="10" y="221.0156"/>
    <text fill="#000000" font-family="sans-serif" font-size="13" font-weight="bold" lengthAdjust="spacing" textLength="16" x="25" y="235.5107">alt</text>
    <text fill="#000000" font-family="sans-serif" font-size="11" font-weight="bold" lengthAdjust="spacing" textLength="124" x="86" y="234.4346">[DB connection invalid]</text>
    <line style="stroke:#181818;stroke-width:1.0;" x1="223.5" x2="265.5" y1="261.7188" y2="261.7188"/>
    <line style="stroke:#181818;stroke-width:1.0;" x1="265.5" x2="265.5" y1="261.7188" y2="274.7188"/>
    <line style="stroke:#181818;stroke-width:1.0;" x1="224.5" x2="265.5" y1="274.7188" y2="274.7188"/>
    <polygon fill="#181818" points="234.5,270.7188,224.5,274.7188,234.5,278.7188,230.5,274.7188" style="stroke:#181818;stroke-width:1.0;"/>
    <text fill="#000000" font-family="sans-serif" font-size="13" lengthAdjust="spacing" textLength="194" x="230.5" y="256.8623">isDBConnectionValid(dbManager)</text>
    <line style="stroke:#181818;stroke-width:1.0;" x1="223.5" x2="265.5" y1="305.0703" y2="305.0703"/>
    <line style="stroke:#181818;stroke-width:1.0;" x1="265.5" x2="265.5" y1="305.0703" y2="318.0703"/>
    <line style="stroke:#181818;stroke-width:1.0;" x1="224.5" x2="265.5" y1="318.0703" y2="318.0703"/>
    <polygon fill="#181818" points="234.5,314.0703,224.5,318.0703,234.5,322.0703,230.5,318.0703" style="stroke:#181818;stroke-width:1.0;"/>
    <text fill="#000000" font-family="sans-serif" font-size="13" lengthAdjust="spacing" textLength="243" x="230.5" y="300.2139">CreateDBConnectionError(response, data)</text>
    <polygon fill="#181818" points="88.5,344.4219,78.5,348.4219,88.5,352.4219,84.5,348.4219" style="stroke:#181818;stroke-width:1.0;"/>
    <line style="stroke:#181818;stroke-width:1.0;" x1="82.5" x2="217.5" y1="348.4219" y2="348.4219"/>
    <text fill="#000000" font-family="sans-serif" font-size="13" lengthAdjust="spacing" textLength="90" x="94.5" y="343.5654">return response</text>
    <line style="stroke:#000000;stroke-width:1.0;stroke-dasharray:2.0,2.0;" x1="10" x2="1584" y1="357.4219" y2="357.4219"/>
    <text fill="#000000" font-family="sans-serif" font-size="11" font-weight="bold" lengthAdjust="spacing" textLength="114" x="15" y="368.8408">[DB connection valid]</text>
    <path d="M40,379.2578 L101,379.2578 L101,387.6094 L91,397.6094 L40,397.6094 L40,379.2578 " fill="#EEEEEE" style="stroke:#000000;stroke-width:1.5;"/>
    <rect fill="none" height="244.2969" style="stroke:#000000;stroke-width:1.5;" width="1514" x="40" y="379.2578"/>
    <text fill="#000000" font-family="sans-serif" font-size="13" font-weight="bold" lengthAdjust="spacing" textLength="16" x="55" y="393.7529">alt</text>
    <text fill="#000000" font-family="sans-serif" font-size="11" font-weight="bold" lengthAdjust="spacing" textLength="107" x="116" y="392.6768">[to_email provided]</text>
    <polygon fill="#181818" points="1287.5,415.9609,1297.5,419.9609,1287.5,423.9609,1291.5,419.9609" style="stroke:#181818;stroke-width:1.0;"/>
    <line style="stroke:#181818;stroke-width:1.0;" x1="218.5" x2="1293.5" y1="419.9609" y2="419.9609"/>
    <text fill="#000000" font-family="sans-serif" font-size="13" lengthAdjust="spacing" textLength="718" x="225.5" y="415.1045">select("account_number").table("Users U").join("JOIN Accounts A ON U.id = A.user_id").where("U.email =", to_email).exec()</text>
    <polygon fill="#181818" points="1482.5,446.3125,1492.5,450.3125,1482.5,454.3125,1486.5,450.3125" style="stroke:#181818;stroke-width:1.0;"/>
    <line style="stroke:#181818;stroke-width:1.0;" x1="1304.5" x2="1488.5" y1="450.3125" y2="450.3125"/>
    <text fill="#000000" font-family="sans-serif" font-size="13" lengthAdjust="spacing" textLength="130" x="1311.5" y="445.4561">return account number</text>
    <path d="M50,465.3125 L111,465.3125 L111,473.6641 L101,483.6641 L50,483.6641 L50,465.3125 " fill="#EEEEEE" style="stroke:#000000;stroke-width:1.5;"/>
    <rect fill="none" height="151.2422" style="stroke:#000000;stroke-width:1.5;" width="687.5" x="50" y="465.3125"/>
    <text fill="#000000" font-family="sans-serif" font-size="13" font-weight="bold" lengthAdjust="spacing" textLength="16" x="65" y="479.8076">alt</text>
    <text fill="#000000" font-family="sans-serif" font-size="11" font-weight="bold" lengthAdjust="spacing" textLength="107" x="126" y="478.7314">[account not found]</text>
    <line style="stroke:#181818;stroke-width:1.0;" x1="218.5" x2="260.5" y1="506.0156" y2="506.0156"/>
    <line style="stroke:#181818;stroke-width:1.0;" x1="260.5" x2="260.5" y1="506.0156" y2="519.0156"/>
    <line style="stroke:#181818;stroke-width:1.0;" x1="219.5" x2="260.5" y1="519.0156" y2="519.0156"/>
    <polygon fill="#181818" points="229.5,515.0156,219.5,519.0156,229.5,523.0156,225.5,519.0156" style="stroke:#181818;stroke-width:1.0;"/>
    <text fill="#000000" font-family="sans-serif" font-size="13" lengthAdjust="spacing" textLength="500" x="225.5" y="501.1592">CreateErrorResponse(response, data, "This email is not associated with any account")</text>
    <polygon fill="#181818" points="88.5,545.3672,78.5,549.3672,88.5,553.3672,84.5,549.3672" style="stroke:#181818;stroke-width:1.0;"/>
    <line style="stroke:#181818;stroke-width:1.0;" x1="82.5" x2="217.5" y1="549.3672" y2="549.3672"/>
    <text fill="#000000" font-family="sans-serif" font-size="13" lengthAdjust="spacing" textLength="90" x="94.5" y="544.5107">return response</text>
    <line style="stroke:#000000;stroke-width:1.0;stroke-dasharray:2.0,2.0;" x1="50" x2="737.5" y1="558.3672" y2="558.3672"/>
    <text fill="#000000" font-family="sans-serif" font-size="11" font-weight="bold" lengthAdjust="spacing" textLength="86" x="55" y="569.7861">[account found]</text>
    <line style="stroke:#181818;stroke-width:1.0;" x1="218.5" x2="260.5" y1="595.5547" y2="595.5547"/>
    <line style="stroke:#181818;stroke-width:1.0;" x1="260.5" x2="260.5" y1="595.5547" y2="608.5547"/>
    <line style="stroke:#181818;stroke-width:1.0;" x1="219.5" x2="260.5" y1="608.5547" y2="608.5547"/>
    <polygon fill="#181818" points="229.5,604.5547,219.5,608.5547,229.5,612.5547,225.5,608.5547" style="stroke:#181818;stroke-width:1.0;"/>
    <text fill="#000000" font-family="sans-serif" font-size="13" lengthAdjust="spacing" textLength="139" x="225.5" y="590.6982">use to_account_number</text>
    <polygon fill="#181818" points="1287.5,648.9063,1297.5,652.9063,1287.5,656.9063,1291.5,652.9063" style="stroke:#181818;stroke-width:1.0;"/>
    <line style="stroke:#181818;stroke-width:1.0;" x1="218.5" x2="1293.5" y1="652.9063" y2="652.9063"/>
    <text fill="#000000" font-family="sans-serif" font-size="13" lengthAdjust="spacing" textLength="543" x="225.5" y="648.0498">select("balance").table("Accounts").where("account_number =", from_account_number).exec()</text>
    <polygon fill="#181818" points="1482.5,679.2578,1492.5,683.2578,1482.5,687.2578,1486.5,683.2578" style="stroke:#181818;stroke-width:1.0;"/>
    <line style="stroke:#181818;stroke-width:1.0;" x1="1304.5" x2="1488.5" y1="683.2578" y2="683.2578"/>
    <text fill="#000000" font-family="sans-serif" font-size="13" lengthAdjust="spacing" textLength="161" x="1311.5" y="678.4014">return from account balance</text>
    <path d="M20,698.2578 L81,698.2578 L81,706.6094 L71,716.6094 L20,716.6094 L20,698.2578 " fill="#EEEEEE" style="stroke:#000000;stroke-width:1.5;"/>
    <rect fill="none" height="699.0234" style="stroke:#000000;stroke-width:1.5;" width="1554" x="20" y="698.2578"/>
    <text fill="#000000" font-family="sans-serif" font-size="13" font-weight="bold" lengthAdjust="spacing" textLength="16" x="35" y="712.7529">alt</text>
    <text fill="#000000" font-family="sans-serif" font-size="11" font-weight="bold" lengthAdjust="spacing" textLength="137" x="96" y="711.6768">[from account not found]</text>
    <line style="stroke:#181818;stroke-width:1.0;" x1="218.5" x2="260.5" y1="738.9609" y2="738.9609"/>
    <line style="stroke:#181818;stroke-width:1.0;" x1="260.5" x2="260.5" y1="738.9609" y2="751.9609"/>
    <line style="stroke:#181818;stroke-width:1.0;" x1="219.5" x2="260.5" y1="751.9609" y2="751.9609"/>
    <polygon fill="#181818" points="229.5,747.9609,219.5,751.9609,229.5,755.9609,225.5,751.9609" style="stroke:#181818;stroke-width:1.0;"/>
    <text fill="#000000" font-family="sans-serif" font-size="13" lengthAdjust="spacing" textLength="388" x="225.5" y="734.1045">CreateErrorResponse(response, data, "You don't have an account")</text>
    <polygon fill="#181818" points="88.5,778.3125,78.5,782.3125,88.5,786.3125,84.5,782.3125" style="stroke:#181818;stroke-width:1.0;"/>
    <line style="stroke:#181818;stroke-width:1.0;" x1="82.5" x2="217.5" y1="782.3125" y2="782.3125"/>
    <text fill="#000000" font-family="sans-serif" font-size="13" lengthAdjust="spacing" textLength="90" x="94.5" y="777.4561">return response</text>
    <line style="stroke:#000000;stroke-width:1.0;stroke-dasharray:2.0,2.0;" x1="20" x2="1574" y1="791.3125" y2="791.3125"/>
    <text fill="#000000" font-family="sans-serif" font-size="11" font-weight="bold" lengthAdjust="spacing" textLength="116" x="25" y="802.7314">[from account found]</text>
    <polygon fill="#181818" points="1287.5,824.5,1297.5,828.5,1287.5,832.5,1291.5,828.5" style="stroke:#181818;stroke-width:1.0;"/>
    <line style="stroke:#181818;stroke-width:1.0;" x1="218.5" x2="1293.5" y1="828.5" y2="828.5"/>
    <text fill="#000000" font-family="sans-serif" font-size="13" lengthAdjust="spacing" textLength="529" x="225.5" y="823.6436">select("balance").table("Accounts").where("account_number =", to_account_number).exec()</text>
    <polygon fill="#181818" points="1482.5,854.8516,1492.5,858.8516,1482.5,862.8516,1486.5,858.8516" style="stroke:#181818;stroke-width:1.0;"/>
    <line style="stroke:#181818;stroke-width:1.0;" x1="1304.5" x2="1488.5" y1="858.8516" y2="858.8516"/>
    <text fill="#000000" font-family="sans-serif" font-size="13" lengthAdjust="spacing" textLength="147" x="1311.5" y="853.9951">return to account balance</text>
    <path d="M30,873.8516 L91,873.8516 L91,882.2031 L81,892.2031 L30,892.2031 L30,873.8516 " fill="#EEEEEE" style="stroke:#000000;stroke-width:1.5;"/>
    <rect fill="none" height="516.4297" style="stroke:#000000;stroke-width:1.5;" width="1534" x="30" y="873.8516"/>
    <text fill="#000000" font-family="sans-serif" font-size="13" font-weight="bold" lengthAdjust="spacing" textLength="16" x="45" y="888.3467">alt</text>
    <text fill="#000000" font-family="sans-serif" font-size="11" font-weight="bold" lengthAdjust="spacing" textLength="121" x="106" y="887.2705">[to account not found]</text>
    <line style="stroke:#181818;stroke-width:1.0;" x1="218.5" x2="260.5" y1="914.5547" y2="914.5547"/>
    <line style="stroke:#181818;stroke-width:1.0;" x1="260.5" x2="260.5" y1="914.5547" y2="927.5547"/>
    <line style="stroke:#181818;stroke-width:1.0;" x1="219.5" x2="260.5" y1="927.5547" y2="927.5547"/>
    <polygon fill="#181818" points="229.5,923.5547,219.5,927.5547,229.5,931.5547,225.5,927.5547" style="stroke:#181818;stroke-width:1.0;"/>
    <text fill="#000000" font-family="sans-serif" font-size="13" lengthAdjust="spacing" textLength="383" x="225.5" y="909.6982">CreateErrorResponse(response, data, "Invalid to account number")</text>
    <polygon fill="#181818" points="88.5,953.9063,78.5,957.9063,88.5,961.9063,84.5,957.9063" style="stroke:#181818;stroke-width:1.0;"/>
    <line style="stroke:#181818;stroke-width:1.0;" x1="82.5" x2="217.5" y1="957.9063" y2="957.9063"/>
    <text fill="#000000" font-family="sans-serif" font-size="13" lengthAdjust="spacing" textLength="90" x="94.5" y="953.0498">return response</text>
    <line style="stroke:#000000;stroke-width:1.0;stroke-dasharray:2.0,2.0;" x1="30" x2="1564" y1="966.9063" y2="966.9063"/>
    <text fill="#000000" font-family="sans-serif" font-size="11" font-weight="bold" lengthAdjust="spacing" textLength="100" x="35" y="978.3252">[to account found]</text>
    <line style="stroke:#181818;stroke-width:1.0;" x1="218.5" x2="260.5" y1="1004.0938" y2="1004.0938"/>
    <line style="stroke:#181818;stroke-width:1.0;" x1="260.5" x2="260.5" y1="1004.0938" y2="1017.0938"/>
    <line style="stroke:#181818;stroke-width:1.0;" x1="219.5" x2="260.5" y1="1017.0938" y2="1017.0938"/>
    <polygon fill="#181818" points="229.5,1013.0938,219.5,1017.0938,229.5,1021.0938,225.5,1017.0938" style="stroke:#181818;stroke-width:1.0;"/>
    <text fill="#000000" font-family="sans-serif" font-size="13" lengthAdjust="spacing" textLength="84" x="225.5" y="999.2373">check balance</text>
    <path d="M40,1032.0938 L101,1032.0938 L101,1040.4453 L91,1050.4453 L40,1050.4453 L40,1032.0938 " fill="#EEEEEE" style="stroke:#000000;stroke-width:1.5;"/>
    <rect fill="none" height="351.1875" style="stroke:#000000;stroke-width:1.5;" width="1514" x="40" y="1032.0938"/>
    <text fill="#000000" font-family="sans-serif" font-size="13" font-weight="bold" lengthAdjust="spacing" textLength="16" x="55" y="1046.5889">alt</text>
    <text fill="#000000" font-family="sans-serif" font-size="11" font-weight="bold" lengthAdjust="spacing" textLength="115" x="116" y="1045.5127">[insufficient balance]</text>
    <line style="stroke:#181818;stroke-width:1.0;" x1="218.5" x2="260.5" y1="1072.7969" y2="1072.7969"/>
    <line style="stroke:#181818;stroke-width:1.0;" x1="260.5" x2="260.5" y1="1072.7969" y2="1085.7969"/>
    <line style="stroke:#181818;stroke-width:1.0;" x1="219.5" x2="260.5" y1="1085.7969" y2="1085.7969"/>
    <polygon fill="#181818" points="229.5,1081.7969,219.5,1085.7969,229.5,1089.7969,225.5,1085.7969" style="stroke:#181818;stroke-width:1.0;"/>
    <text fill="#000000" font-family="sans-serif" font-size="13" lengthAdjust="spacing" textLength="346" x="225.5" y="1067.9404">CreateErrorResponse(response, data, "Insufficient balance")</text>
    <polygon fill="#181818" points="88.5,1112.1484,78.5,1116.1484,88.5,1120.1484,84.5,1116.1484" style="stroke:#181818;stroke-width:1.0;"/>
    <line style="stroke:#181818;stroke-width:1.0;" x1="82.5" x2="217.5" y1="1116.1484" y2="1116.1484"/>
    <text fill="#000000" font-family="sans-serif" font-size="13" lengthAdjust="spacing" textLength="90" x="94.5" y="1111.292">return response</text>
    <line style="stroke:#000000;stroke-width:1.0;stroke-dasharray:2.0,2.0;" x1="40" x2="1554" y1="1125.1484" y2="1125.1484"/>
    <text fill="#000000" font-family="sans-serif" font-size="11" font-weight="bold" lengthAdjust="spacing" textLength="105" x="45" y="1136.5674">[sufficient balance]</text>
    <polygon fill="#181818" points="1287.5,1158.3359,1297.5,1162.3359,1287.5,1166.3359,1291.5,1162.3359" style="stroke:#181818;stroke-width:1.0;"/>
    <line style="stroke:#181818;stroke-width:1.0;" x1="218.5" x2="1293.5" y1="1162.3359" y2="1162.3359"/>
    <text fill="#000000" font-family="sans-serif" font-size="13" lengthAdjust="spacing" textLength="1062" x="225.5" y="1157.4795">insert("Transactions", {{"account_number", from_account_number}, {"from_account_number", from_account_number}, {"to_account_number", to_account_number}, {"amount", amount}})</text>
    <polygon fill="#181818" points="1482.5,1188.6875,1492.5,1192.6875,1482.5,1196.6875,1486.5,1192.6875" style="stroke:#181818;stroke-width:1.0;"/>
    <line style="stroke:#181818;stroke-width:1.0;" x1="1304.5" x2="1488.5" y1="1192.6875" y2="1192.6875"/>
    <text fill="#000000" font-family="sans-serif" font-size="13" lengthAdjust="spacing" textLength="86" x="1311.5" y="1187.8311">return success</text>
    <path d="M50,1207.6875 L111,1207.6875 L111,1216.0391 L101,1226.0391 L50,1226.0391 L50,1207.6875 " fill="#EEEEEE" style="stroke:#000000;stroke-width:1.5;"/>
    <rect fill="none" height="168.5938" style="stroke:#000000;stroke-width:1.5;" width="740" x="50" y="1207.6875"/>
    <text fill="#000000" font-family="sans-serif" font-size="13" font-weight="bold" lengthAdjust="spacing" textLength="16" x="65" y="1222.1826">alt</text>
    <text fill="#000000" font-family="sans-serif" font-size="11" font-weight="bold" lengthAdjust="spacing" textLength="147" x="126" y="1221.1064">[transaction logging failed]</text>
    <line style="stroke:#181818;stroke-width:1.0;" x1="218.5" x2="260.5" y1="1248.3906" y2="1248.3906"/>
    <line style="stroke:#181818;stroke-width:1.0;" x1="260.5" x2="260.5" y1="1248.3906" y2="1261.3906"/>
    <line style="stroke:#181818;stroke-width:1.0;" x1="219.5" x2="260.5" y1="1261.3906" y2="1261.3906"/>
    <polygon fill="#181818" points="229.5,1257.3906,219.5,1261.3906,229.5,1265.3906,225.5,1261.3906" style="stroke:#181818;stroke-width:1.0;"/>
    <text fill="#000000" font-family="sans-serif" font-size="13" lengthAdjust="spacing" textLength="375" x="225.5" y="1243.5342">CreateErrorResponse(response, data, "Failed to log transaction")</text>
    <polygon fill="#181818" points="88.5,1287.7422,78.5,1291.7422,88.5,1295.7422,84.5,1291.7422" style="stroke:#181818;stroke-width:1.0;"/>
    <line style="stroke:#181818;stroke-width:1.0;" x1="82.5" x2="217.5" y1="1291.7422" y2="1291.7422"/>
    <text fill="#000000" font-family="sans-serif" font-size="13" lengthAdjust="spacing" textLength="90" x="94.5" y="1286.8857">return response</text>
    <line style="stroke:#000000;stroke-width:1.0;stroke-dasharray:2.0,2.0;" x1="50" x2="790" y1="1300.7422" y2="1300.7422"/>
    <text fill="#000000" font-family="sans-serif" font-size="11" font-weight="bold" lengthAdjust="spacing" textLength="111" x="55" y="1312.1611">[transaction logged]</text>
    <polygon fill="#181818" points="720.5,1333.9297,730.5,1337.9297,720.5,1341.9297,724.5,1337.9297" style="stroke:#181818;stroke-width:1.0;"/>
    <line style="stroke:#181818;stroke-width:1.0;" x1="218.5" x2="726.5" y1="1337.9297" y2="1337.9297"/>
    <text fill="#000000" font-family="sans-serif" font-size="13" lengthAdjust="spacing" textLength="164" x="225.5" y="1333.0732">construct success response</text>
    <polygon fill="#181818" points="88.5,1364.2813,78.5,1368.2813,88.5,1372.2813,84.5,1368.2813" style="stroke:#181818;stroke-width:1.0;"/>
    <line style="stroke:#181818;stroke-width:1.0;" x1="82.5" x2="731.5" y1="1368.2813" y2="1368.2813"/>
    <text fill="#000000" font-family="sans-serif" font-size="13" lengthAdjust="spacing" textLength="90" x="94.5" y="1363.4248">return response</text>
  </g>
</svg>
