<svg xmlns="http://www.w3.org/2000/svg" xmlns:xlink="http://www.w3.org/1999/xlink" contentStyleType="text/css" height="622px" preserveAspectRatio="none" style="width:621px;height:622px;background:#FFFFFF;" version="1.1" viewBox="0 0 621 622" width="621px" zoomAndPan="magnify">
  <defs>
    <style type="text/css">a:hover { text-decoration: underline; }</style>
  </defs>
  <g>
    <rect fill="#FFFFFF" height="91.0547" style="stroke:#181818;stroke-width:1.0;" width="10" x="373" y="355.0938"/>
    <rect fill="#FFFFFF" height="91.0547" style="stroke:#181818;stroke-width:1.0;" width="10" x="373" y="476.5"/>
    <rect fill="none" height="240.7813" style="stroke:#000000;stroke-width:1.5;" width="320.5" x="10" y="84.9609"/>
    <line style="stroke:#181818;stroke-width:0.5;stroke-dasharray:5.0,5.0;" x1="53" x2="53" y1="37.6094" y2="585.5547"/>
    <line style="stroke:#181818;stroke-width:0.5;stroke-dasharray:5.0,5.0;" x1="241.5" x2="241.5" y1="37.6094" y2="585.5547"/>
    <line style="stroke:#181818;stroke-width:0.5;stroke-dasharray:5.0,5.0;" x1="377.5" x2="377.5" y1="37.6094" y2="585.5547"/>
    <line style="stroke:#181818;stroke-width:0.5;stroke-dasharray:5.0,5.0;" x1="556" x2="556" y1="37.6094" y2="585.5547"/>
    <rect fill="#E2E2F0" height="31.6094" rx="2.5" ry="2.5" style="stroke:#181818;stroke-width:0.5;" width="67" x="20" y="5"/>
    <text fill="#000000" font-family="sans-serif" font-size="14" lengthAdjust="spacing" textLength="53" x="27" y="26.5332">Request</text>
    <rect fill="#E2E2F0" height="31.6094" rx="2.5" ry="2.5" style="stroke:#181818;stroke-width:0.5;" width="67" x="20" y="584.5547"/>
    <text fill="#000000" font-family="sans-serif" font-size="14" lengthAdjust="spacing" textLength="53" x="27" y="606.0879">Request</text>
    <rect fill="#E2E2F0" height="31.6094" rx="2.5" ry="2.5" style="stroke:#181818;stroke-width:0.5;" width="158" x="162.5" y="5"/>
    <text fill="#000000" font-family="sans-serif" font-size="14" lengthAdjust="spacing" textLength="144" x="169.5" y="26.5332">DB::DatabaseManager</text>
    <rect fill="#E2E2F0" height="31.6094" rx="2.5" ry="2.5" style="stroke:#181818;stroke-width:0.5;" width="158" x="162.5" y="584.5547"/>
    <text fill="#000000" font-family="sans-serif" font-size="14" lengthAdjust="spacing" textLength="144" x="169.5" y="606.0879">DB::DatabaseManager</text>
    <rect fill="#E2E2F0" height="31.6094" rx="2.5" ry="2.5" style="stroke:#181818;stroke-width:0.5;" width="95" x="330.5" y="5"/>
    <text fill="#000000" font-family="sans-serif" font-size="14" lengthAdjust="spacing" textLength="81" x="337.5" y="26.5332">QJsonObject</text>
    <rect fill="#E2E2F0" height="31.6094" rx="2.5" ry="2.5" style="stroke:#181818;stroke-width:0.5;" width="95" x="330.5" y="584.5547"/>
    <text fill="#000000" font-family="sans-serif" font-size="14" lengthAdjust="spacing" textLength="81" x="337.5" y="606.0879">QJsonObject</text>
    <rect fill="#E2E2F0" height="31.6094" rx="2.5" ry="2.5" style="stroke:#181818;stroke-width:0.5;" width="118" x="497" y="5"/>
    <text fill="#000000" font-family="sans-serif" font-size="14" lengthAdjust="spacing" textLength="104" x="504" y="26.5332">QJsonDocument</text>
    <rect fill="#E2E2F0" height="31.6094" rx="2.5" ry="2.5" style="stroke:#181818;stroke-width:0.5;" width="118" x="497" y="584.5547"/>
    <text fill="#000000" font-family="sans-serif" font-size="14" lengthAdjust="spacing" textLength="104" x="504" y="606.0879">QJsonDocument</text>
    <rect fill="#FFFFFF" height="91.0547" style="stroke:#181818;stroke-width:1.0;" width="10" x="373" y="355.0938"/>
    <rect fill="#FFFFFF" height="91.0547" style="stroke:#181818;stroke-width:1.0;" width="10" x="373" y="476.5"/>
    <polygon fill="#181818" points="229.5,65.9609,239.5,69.9609,229.5,73.9609,233.5,69.9609" style="stroke:#181818;stroke-width:1.0;"/>
    <line style="stroke:#181818;stroke-width:1.0;" x1="53.5" x2="235.5" y1="69.9609" y2="69.9609"/>
    <text fill="#000000" font-family="sans-serif" font-size="13" lengthAdjust="spacing" textLength="108" x="60.5" y="65.1045">checkConnection()</text>
    <path d="M10,84.9609 L71,84.9609 L71,93.3125 L61,103.3125 L10,103.3125 L10,84.9609 " fill="#EEEEEE" style="stroke:#000000;stroke-width:1.5;"/>
    <rect fill="none" height="240.7813" style="stroke:#000000;stroke-width:1.5;" width="320.5" x="10" y="84.9609"/>
    <text fill="#000000" font-family="sans-serif" font-size="13" font-weight="bold" lengthAdjust="spacing" textLength="16" x="25" y="99.4561">alt</text>
    <text fill="#000000" font-family="sans-serif" font-size="11" font-weight="bold" lengthAdjust="spacing" textLength="122" x="86" y="98.3799">[DB connection is null]</text>
    <line style="stroke:#181818;stroke-width:1.0;" x1="53.5" x2="95.5" y1="125.6641" y2="125.6641"/>
    <line style="stroke:#181818;stroke-width:1.0;" x1="95.5" x2="95.5" y1="125.6641" y2="138.6641"/>
    <line style="stroke:#181818;stroke-width:1.0;" x1="54.5" x2="95.5" y1="138.6641" y2="138.6641"/>
    <polygon fill="#181818" points="64.5,134.6641,54.5,138.6641,64.5,142.6641,60.5,138.6641" style="stroke:#181818;stroke-width:1.0;"/>
    <text fill="#000000" font-family="sans-serif" font-size="13" lengthAdjust="spacing" textLength="174" x="60.5" y="120.8076">log "Failed to create instance"</text>
    <line style="stroke:#181818;stroke-width:1.0;stroke-dasharray:2.0,2.0;" x1="53.5" x2="95.5" y1="169.0156" y2="169.0156"/>
    <line style="stroke:#181818;stroke-width:1.0;stroke-dasharray:2.0,2.0;" x1="95.5" x2="95.5" y1="169.0156" y2="182.0156"/>
    <line style="stroke:#181818;stroke-width:1.0;stroke-dasharray:2.0,2.0;" x1="54.5" x2="95.5" y1="182.0156" y2="182.0156"/>
    <polygon fill="#181818" points="64.5,178.0156,54.5,182.0156,64.5,186.0156,60.5,182.0156" style="stroke:#181818;stroke-width:1.0;"/>
    <text fill="#000000" font-family="sans-serif" font-size="13" lengthAdjust="spacing" textLength="27" x="60.5" y="164.1592">false</text>
    <line style="stroke:#000000;stroke-width:1.0;stroke-dasharray:2.0,2.0;" x1="10" x2="330.5" y1="191.0156" y2="191.0156"/>
    <text fill="#000000" font-family="sans-serif" font-size="11" font-weight="bold" lengthAdjust="spacing" textLength="119" x="15" y="202.4346">[DB connection failed]</text>
    <polygon fill="#181818" points="229.5,224.2031,239.5,228.2031,229.5,232.2031,233.5,228.2031" style="stroke:#181818;stroke-width:1.0;"/>
    <line style="stroke:#181818;stroke-width:1.0;" x1="53.5" x2="235.5" y1="228.2031" y2="228.2031"/>
    <text fill="#000000" font-family="sans-serif" font-size="13" lengthAdjust="spacing" textLength="108" x="60.5" y="223.3467">checkConnection()</text>
    <polygon fill="#181818" points="64.5,254.5547,54.5,258.5547,64.5,262.5547,60.5,258.5547" style="stroke:#181818;stroke-width:1.0;"/>
    <line style="stroke:#181818;stroke-width:1.0;stroke-dasharray:2.0,2.0;" x1="58.5" x2="240.5" y1="258.5547" y2="258.5547"/>
    <text fill="#000000" font-family="sans-serif" font-size="13" lengthAdjust="spacing" textLength="100" x="70.5" y="253.6982">false with dbError</text>
    <line style="stroke:#000000;stroke-width:1.0;stroke-dasharray:2.0,2.0;" x1="10" x2="330.5" y1="267.5547" y2="267.5547"/>
    <text fill="#000000" font-family="sans-serif" font-size="11" font-weight="bold" lengthAdjust="spacing" textLength="150" x="15" y="278.9736">[DB connection successful]</text>
    <line style="stroke:#181818;stroke-width:1.0;" x1="53.5" x2="95.5" y1="304.7422" y2="304.7422"/>
    <line style="stroke:#181818;stroke-width:1.0;" x1="95.5" x2="95.5" y1="304.7422" y2="317.7422"/>
    <line style="stroke:#181818;stroke-width:1.0;" x1="54.5" x2="95.5" y1="317.7422" y2="317.7422"/>
    <polygon fill="#181818" points="64.5,313.7422,54.5,317.7422,64.5,321.7422,60.5,317.7422" style="stroke:#181818;stroke-width:1.0;"/>
    <text fill="#000000" font-family="sans-serif" font-size="13" lengthAdjust="spacing" textLength="59" x="60.5" y="299.8857">return true</text>
    <polygon fill="#181818" points="361,351.0938,371,355.0938,361,359.0938,365,355.0938" style="stroke:#181818;stroke-width:1.0;"/>
    <line style="stroke:#181818;stroke-width:1.0;" x1="53.5" x2="367" y1="355.0938" y2="355.0938"/>
    <text fill="#000000" font-family="sans-serif" font-size="13" lengthAdjust="spacing" textLength="263" x="60.5" y="350.2373">CreateDBConnectionError(response, dataObj)</text>
    <polygon fill="#181818" points="544,381.4453,554,385.4453,544,389.4453,548,385.4453" style="stroke:#181818;stroke-width:1.0;"/>
    <line style="stroke:#181818;stroke-width:1.0;" x1="383" x2="550" y1="385.4453" y2="385.4453"/>
    <text fill="#000000" font-family="sans-serif" font-size="13" lengthAdjust="spacing" textLength="149" x="390" y="380.5889">construct JSON response</text>
    <polygon fill="#181818" points="394,411.7969,384,415.7969,394,419.7969,390,415.7969" style="stroke:#181818;stroke-width:1.0;"/>
    <line style="stroke:#181818;stroke-width:1.0;" x1="388" x2="555" y1="415.7969" y2="415.7969"/>
    <text fill="#000000" font-family="sans-serif" font-size="13" lengthAdjust="spacing" textLength="90" x="400" y="410.9404">return response</text>
    <polygon fill="#181818" points="64.5,442.1484,54.5,446.1484,64.5,450.1484,60.5,446.1484" style="stroke:#181818;stroke-width:1.0;"/>
    <line style="stroke:#181818;stroke-width:1.0;" x1="58.5" x2="377" y1="446.1484" y2="446.1484"/>
    <text fill="#000000" font-family="sans-serif" font-size="13" lengthAdjust="spacing" textLength="90" x="70.5" y="441.292">return response</text>
    <polygon fill="#181818" points="361,472.5,371,476.5,361,480.5,365,476.5" style="stroke:#181818;stroke-width:1.0;"/>
    <line style="stroke:#181818;stroke-width:1.0;" x1="53.5" x2="367" y1="476.5" y2="476.5"/>
    <text fill="#000000" font-family="sans-serif" font-size="13" lengthAdjust="spacing" textLength="299" x="60.5" y="471.6436">CreateErrorResponse(response, dataObj, message)</text>
    <polygon fill="#181818" points="544,502.8516,554,506.8516,544,510.8516,548,506.8516" style="stroke:#181818;stroke-width:1.0;"/>
    <line style="stroke:#181818;stroke-width:1.0;" x1="383" x2="550" y1="506.8516" y2="506.8516"/>
    <text fill="#000000" font-family="sans-serif" font-size="13" lengthAdjust="spacing" textLength="149" x="390" y="501.9951">construct JSON response</text>
    <polygon fill="#181818" points="394,533.2031,384,537.2031,394,541.2031,390,537.2031" style="stroke:#181818;stroke-width:1.0;"/>
    <line style="stroke:#181818;stroke-width:1.0;" x1="388" x2="555" y1="537.2031" y2="537.2031"/>
    <text fill="#000000" font-family="sans-serif" font-size="13" lengthAdjust="spacing" textLength="90" x="400" y="532.3467">return response</text>
    <polygon fill="#181818" points="64.5,563.5547,54.5,567.5547,64.5,571.5547,60.5,567.5547" style="stroke:#181818;stroke-width:1.0;"/>
    <line style="stroke:#181818;stroke-width:1.0;" x1="58.5" x2="377" y1="567.5547" y2="567.5547"/>
    <text fill="#000000" font-family="sans-serif" font-size="13" lengthAdjust="spacing" textLength="90" x="70.5" y="562.6982">return response</text>
  </g>
</svg>
