<svg xmlns="http://www.w3.org/2000/svg" xmlns:xlink="http://www.w3.org/1999/xlink" contentStyleType="text/css" height="567px" preserveAspectRatio="none" style="width:758px;height:567px;background:#FFFFFF;" version="1.1" viewBox="0 0 758 567" width="758px" zoomAndPan="magnify"><defs/><g><rect fill="#FFFFFF" height="360.1875" style="stroke:#181818;stroke-width:1.0;" width="10" x="297.5" y="114.9609"/><rect fill="#FFFFFF" height="60.7031" style="stroke:#181818;stroke-width:1.0;" width="10" x="693" y="392.4453"/><rect fill="none" height="307.8359" style="stroke:#000000;stroke-width:1.5;" width="741.5" x="10" y="160.3125"/><rect fill="none" height="155.5938" style="stroke:#000000;stroke-width:1.5;" width="721.5" x="20" y="305.5547"/><line style="stroke:#181818;stroke-width:0.5;stroke-dasharray:5.0,5.0;" x1="78" x2="78" y1="82.6094" y2="485.1484"/><line style="stroke:#181818;stroke-width:0.5;stroke-dasharray:5.0,5.0;" x1="302" x2="302" y1="82.6094" y2="485.1484"/><line style="stroke:#181818;stroke-width:0.5;stroke-dasharray:5.0,5.0;" x1="462.5" x2="462.5" y1="82.6094" y2="485.1484"/><line style="stroke:#181818;stroke-width:0.5;stroke-dasharray:5.0,5.0;" x1="592.5" x2="592.5" y1="82.6094" y2="485.1484"/><line style="stroke:#181818;stroke-width:0.5;stroke-dasharray:5.0,5.0;" x1="697.5" x2="697.5" y1="82.6094" y2="485.1484"/><text fill="#000000" font-family="sans-serif" font-size="14" lengthAdjust="spacing" textLength="91" x="30" y="79.5332">ServerHandler</text><ellipse cx="78.5" cy="13.5" fill="#E2E2F0" rx="8" ry="8" style="stroke:#181818;stroke-width:0.5;"/><path d="M78.5,21.5 L78.5,48.5 M65.5,29.5 L91.5,29.5 M78.5,48.5 L65.5,63.5 M78.5,48.5 L91.5,63.5 " fill="none" style="stroke:#181818;stroke-width:0.5;"/><text fill="#000000" font-family="sans-serif" font-size="14" lengthAdjust="spacing" textLength="91" x="30" y="498.6816">ServerHandler</text><ellipse cx="78.5" cy="510.2578" fill="#E2E2F0" rx="8" ry="8" style="stroke:#181818;stroke-width:0.5;"/><path d="M78.5,518.2578 L78.5,545.2578 M65.5,526.2578 L91.5,526.2578 M78.5,545.2578 L65.5,560.2578 M78.5,545.2578 L91.5,560.2578 " fill="none" style="stroke:#181818;stroke-width:0.5;"/><rect fill="#E2E2F0" height="31.6094" rx="2.5" ry="2.5" style="stroke:#181818;stroke-width:0.5;" width="123" x="241" y="50"/><text fill="#000000" font-family="sans-serif" font-size="14" lengthAdjust="spacing" textLength="109" x="248" y="71.5332">RequestManager</text><rect fill="#E2E2F0" height="31.6094" rx="2.5" ry="2.5" style="stroke:#181818;stroke-width:0.5;" width="123" x="241" y="484.1484"/><text fill="#000000" font-family="sans-serif" font-size="14" lengthAdjust="spacing" textLength="109" x="248" y="505.6816">RequestManager</text><rect fill="#E2E2F0" height="31.6094" rx="2.5" ry="2.5" style="stroke:#181818;stroke-width:0.5;" width="118" x="403.5" y="50"/><text fill="#000000" font-family="sans-serif" font-size="14" lengthAdjust="spacing" textLength="104" x="410.5" y="71.5332">QJsonDocument</text><rect fill="#E2E2F0" height="31.6094" rx="2.5" ry="2.5" style="stroke:#181818;stroke-width:0.5;" width="118" x="403.5" y="484.1484"/><text fill="#000000" font-family="sans-serif" font-size="14" lengthAdjust="spacing" textLength="104" x="410.5" y="505.6816">QJsonDocument</text><rect fill="#E2E2F0" height="31.6094" rx="2.5" ry="2.5" style="stroke:#181818;stroke-width:0.5;" width="123" x="531.5" y="50"/><text fill="#000000" font-family="sans-serif" font-size="14" lengthAdjust="spacing" textLength="109" x="538.5" y="71.5332">QJsonParseError</text><rect fill="#E2E2F0" height="31.6094" rx="2.5" ry="2.5" style="stroke:#181818;stroke-width:0.5;" width="123" x="531.5" y="484.1484"/><text fill="#000000" font-family="sans-serif" font-size="14" lengthAdjust="spacing" textLength="109" x="538.5" y="505.6816">QJsonParseError</text><rect fill="#E2E2F0" height="31.6094" rx="2.5" ry="2.5" style="stroke:#181818;stroke-width:0.5;" width="67" x="664.5" y="50"/><text fill="#000000" font-family="sans-serif" font-size="14" lengthAdjust="spacing" textLength="53" x="671.5" y="71.5332">Request</text><rect fill="#E2E2F0" height="31.6094" rx="2.5" ry="2.5" style="stroke:#181818;stroke-width:0.5;" width="67" x="664.5" y="484.1484"/><text fill="#000000" font-family="sans-serif" font-size="14" lengthAdjust="spacing" textLength="53" x="671.5" y="505.6816">Request</text><rect fill="#FFFFFF" height="360.1875" style="stroke:#181818;stroke-width:1.0;" width="10" x="297.5" y="114.9609"/><rect fill="#FFFFFF" height="60.7031" style="stroke:#181818;stroke-width:1.0;" width="10" x="693" y="392.4453"/><polygon fill="#181818" points="285.5,110.9609,295.5,114.9609,285.5,118.9609,289.5,114.9609" style="stroke:#181818;stroke-width:1.0;"/><line style="stroke:#181818;stroke-width:1.0;" x1="78.5" x2="291.5" y1="114.9609" y2="114.9609"/><text fill="#000000" font-family="sans-serif" font-size="13" lengthAdjust="spacing" textLength="113" x="85.5" y="110.1045">makeRequest(data)</text><polygon fill="#181818" points="450.5,141.3125,460.5,145.3125,450.5,149.3125,454.5,145.3125" style="stroke:#181818;stroke-width:1.0;"/><line style="stroke:#181818;stroke-width:1.0;" x1="307.5" x2="456.5" y1="145.3125" y2="145.3125"/><text fill="#000000" font-family="sans-serif" font-size="13" lengthAdjust="spacing" textLength="85" x="314.5" y="140.4561">fromJson(data)</text><path d="M10,160.3125 L71,160.3125 L71,168.6641 L61,178.6641 L10,178.6641 L10,160.3125 " fill="#EEEEEE" style="stroke:#000000;stroke-width:1.5;"/><rect fill="none" height="307.8359" style="stroke:#000000;stroke-width:1.5;" width="741.5" x="10" y="160.3125"/><text fill="#000000" font-family="sans-serif" font-size="13" font-weight="bold" lengthAdjust="spacing" textLength="16" x="25" y="174.8076">alt</text><text fill="#000000" font-family="sans-serif" font-size="11" font-weight="bold" lengthAdjust="spacing" textLength="103" x="86" y="173.7314">[JSON parse error]</text><polygon fill="#181818" points="89.5,197.0156,79.5,201.0156,89.5,205.0156,85.5,201.0156" style="stroke:#181818;stroke-width:1.0;"/><line style="stroke:#181818;stroke-width:1.0;" x1="83.5" x2="296.5" y1="201.0156" y2="201.0156"/><text fill="#000000" font-family="sans-serif" font-size="13" lengthAdjust="spacing" textLength="195" x="95.5" y="196.1592">handleJsonParseError(parseError)</text><line style="stroke:#000000;stroke-width:1.0;stroke-dasharray:2.0,2.0;" x1="10" x2="751.5" y1="210.0156" y2="210.0156"/><text fill="#000000" font-family="sans-serif" font-size="11" font-weight="bold" lengthAdjust="spacing" textLength="135" x="15" y="221.4346">[JSON parse succeeded]</text><polygon fill="#181818" points="318.5,243.2031,308.5,247.2031,318.5,251.2031,314.5,247.2031" style="stroke:#181818;stroke-width:1.0;"/><line style="stroke:#181818;stroke-width:1.0;" x1="312.5" x2="461.5" y1="247.2031" y2="247.2031"/><text fill="#000000" font-family="sans-serif" font-size="13" lengthAdjust="spacing" textLength="129" x="324.5" y="242.3467">return jsonObjRequest</text><line style="stroke:#181818;stroke-width:1.0;" x1="307.5" x2="349.5" y1="277.5547" y2="277.5547"/><line style="stroke:#181818;stroke-width:1.0;" x1="349.5" x2="349.5" y1="277.5547" y2="290.5547"/><line style="stroke:#181818;stroke-width:1.0;" x1="308.5" x2="349.5" y1="290.5547" y2="290.5547"/><polygon fill="#181818" points="318.5,286.5547,308.5,290.5547,318.5,294.5547,314.5,290.5547" style="stroke:#181818;stroke-width:1.0;"/><text fill="#000000" font-family="sans-serif" font-size="13" lengthAdjust="spacing" textLength="126" x="314.5" y="272.6982">parse request number</text><path d="M20,305.5547 L81,305.5547 L81,313.9063 L71,323.9063 L20,323.9063 L20,305.5547 " fill="#EEEEEE" style="stroke:#000000;stroke-width:1.5;"/><rect fill="none" height="155.5938" style="stroke:#000000;stroke-width:1.5;" width="721.5" x="20" y="305.5547"/><text fill="#000000" font-family="sans-serif" font-size="13" font-weight="bold" lengthAdjust="spacing" textLength="16" x="35" y="320.0498">alt</text><text fill="#000000" font-family="sans-serif" font-size="11" font-weight="bold" lengthAdjust="spacing" textLength="108" x="96" y="318.9736">[request not found]</text><polygon fill="#181818" points="89.5,342.2578,79.5,346.2578,89.5,350.2578,85.5,346.2578" style="stroke:#181818;stroke-width:1.0;"/><line style="stroke:#181818;stroke-width:1.0;" x1="83.5" x2="296.5" y1="346.2578" y2="346.2578"/><text fill="#000000" font-family="sans-serif" font-size="13" lengthAdjust="spacing" textLength="136" x="95.5" y="341.4014">log "Request not found"</text><line style="stroke:#000000;stroke-width:1.0;stroke-dasharray:2.0,2.0;" x1="20" x2="741.5" y1="355.2578" y2="355.2578"/><text fill="#000000" font-family="sans-serif" font-size="11" font-weight="bold" lengthAdjust="spacing" textLength="87" x="25" y="366.6768">[request found]</text><polygon fill="#181818" points="681,388.4453,691,392.4453,681,396.4453,685,392.4453" style="stroke:#181818;stroke-width:1.0;"/><line style="stroke:#181818;stroke-width:1.0;" x1="307.5" x2="687" y1="392.4453" y2="392.4453"/><text fill="#000000" font-family="sans-serif" font-size="13" lengthAdjust="spacing" textLength="190" x="314.5" y="387.5889">execute(jsonObjRequest, Mutex)</text><polygon fill="#181818" points="318.5,418.7969,308.5,422.7969,318.5,426.7969,314.5,422.7969" style="stroke:#181818;stroke-width:1.0;"/><line style="stroke:#181818;stroke-width:1.0;" x1="312.5" x2="692" y1="422.7969" y2="422.7969"/><text fill="#000000" font-family="sans-serif" font-size="13" lengthAdjust="spacing" textLength="90" x="324.5" y="417.9404">return response</text><polygon fill="#181818" points="89.5,449.1484,79.5,453.1484,89.5,457.1484,85.5,453.1484" style="stroke:#181818;stroke-width:1.0;"/><line style="stroke:#181818;stroke-width:1.0;" x1="83.5" x2="296.5" y1="453.1484" y2="453.1484"/><text fill="#000000" font-family="sans-serif" font-size="13" lengthAdjust="spacing" textLength="134" x="95.5" y="448.292">return responseByteArr</text></g></svg>