<svg xmlns="http://www.w3.org/2000/svg" xmlns:xlink="http://www.w3.org/1999/xlink" contentStyleType="text/css" height="775px" preserveAspectRatio="none" style="width:2847px;height:775px;background:#FFFFFF;" version="1.1" viewBox="0 0 2847 775" width="2847px" zoomAndPan="magnify"><defs/><g><!--cluster C_0009392701334512935369--><g id="cluster_C_0009392701334512935369"><path d="M8.5,6 L31.5,6 A3.75,3.75 0 0 1 34,8.5 L41,29.6094 L2837.5,29.6094 A2.5,2.5 0 0 1 2840,32.1094 L2840,765.5 A2.5,2.5 0 0 1 2837.5,768 L8.5,768 A2.5,2.5 0 0 1 6,765.5 L6,8.5 A2.5,2.5 0 0 1 8.5,6 " fill="none" style="stroke:#000000;stroke-width:1.5;"/><line style="stroke:#000000;stroke-width:1.5;" x1="6" x2="41" y1="29.6094" y2="29.6094"/><text fill="#000000" font-family="sans-serif" font-size="14" font-weight="bold" lengthAdjust="spacing" textLength="22" x="10" y="22.5332">src</text></g><!--cluster C_0000376844742298738572--><g id="cluster_C_0000376844742298738572"><path d="M1577.5,50 L1678.5,50 A3.75,3.75 0 0 1 1681,52.5 L1688,73.6094 L1847.5,73.6094 A2.5,2.5 0 0 1 1850,76.1094 L1850,333.5 A2.5,2.5 0 0 1 1847.5,336 L1577.5,336 A2.5,2.5 0 0 1 1575,333.5 L1575,52.5 A2.5,2.5 0 0 1 1577.5,50 " fill="none" style="stroke:#000000;stroke-width:1.5;"/><line style="stroke:#000000;stroke-width:1.5;" x1="1575" x2="1688" y1="73.6094" y2="73.6094"/><text fill="#000000" font-family="sans-serif" font-size="14" font-weight="bold" lengthAdjust="spacing" textLength="100" x="1579" y="66.5332">serverModule</text></g><!--cluster C_0007249139127462911352--><g id="cluster_C_0007249139127462911352"><path d="M269.5,360 L378.5,360 A3.75,3.75 0 0 1 381,362.5 L388,383.6094 L2813.5,383.6094 A2.5,2.5 0 0 1 2816,386.1094 L2816,667.5 A2.5,2.5 0 0 1 2813.5,670 L269.5,670 A2.5,2.5 0 0 1 267,667.5 L267,362.5 A2.5,2.5 0 0 1 269.5,360 " fill="none" style="stroke:#000000;stroke-width:1.5;"/><line style="stroke:#000000;stroke-width:1.5;" x1="267" x2="388" y1="383.6094" y2="383.6094"/><text fill="#000000" font-family="sans-serif" font-size="14" font-weight="bold" lengthAdjust="spacing" textLength="108" x="271" y="376.5332">requestModule</text></g><!--cluster C_0001482322031337363986--><g id="cluster_C_0001482322031337363986"><path d="M293.5,458 L361.5,458 A3.75,3.75 0 0 1 364,460.5 L371,481.6094 L2776.5,481.6094 A2.5,2.5 0 0 1 2779,484.1094 L2779,643.5 A2.5,2.5 0 0 1 2776.5,646 L293.5,646 A2.5,2.5 0 0 1 291,643.5 L291,460.5 A2.5,2.5 0 0 1 293.5,458 " fill="none" style="stroke:#000000;stroke-width:1.5;"/><line style="stroke:#000000;stroke-width:1.5;" x1="291" x2="371" y1="481.6094" y2="481.6094"/><text fill="#000000" font-family="sans-serif" font-size="14" font-weight="bold" lengthAdjust="spacing" textLength="67" x="295" y="474.5332">Requests</text></g><!--cluster C_0006877198409089665649--><g id="cluster_C_0006877198409089665649"><path d="M32.5,458 L104.5,458 A3.75,3.75 0 0 1 107,460.5 L114,481.6094 L240.5,481.6094 A2.5,2.5 0 0 1 243,484.1094 L243,741.5 A2.5,2.5 0 0 1 240.5,744 L32.5,744 A2.5,2.5 0 0 1 30,741.5 L30,460.5 A2.5,2.5 0 0 1 32.5,458 " fill="none" style="stroke:#000000;stroke-width:1.5;"/><line style="stroke:#000000;stroke-width:1.5;" x1="30" x2="114" y1="481.6094" y2="481.6094"/><text fill="#000000" font-family="sans-serif" font-size="14" font-weight="bold" lengthAdjust="spacing" textLength="71" x="34" y="474.5332">dbModule</text></g><!--entity C_0004930444100045331493--><g id="elem_C_0004930444100045331493"><path d="M1762,186.5 L1762,219.1094 A2.5,2.5 0 0 0 1764.5,221.6094 L1831.5,221.6094 A2.5,2.5 0 0 0 1834,219.1094 L1834,194 L1824,184 L1764.5,184 A2.5,2.5 0 0 0 1762,186.5 " fill="#F1F1F1" style="stroke:#181818;stroke-width:0.5;"/><path d="M1824,184 L1824,191.5 A2.5,2.5 0 0 0 1826.5,194 L1834,194 " fill="#F1F1F1" style="stroke:#181818;stroke-width:0.5;"/><text fill="#000000" font-family="sans-serif" font-size="14" lengthAdjust="spacing" textLength="52" x="1772" y="208.5332">server.h</text></g><!--entity C_0014776125144863485891--><g id="elem_C_0014776125144863485891"><path d="M1656,284.5 L1656,317.1094 A2.5,2.5 0 0 0 1658.5,319.6094 L1773.5,319.6094 A2.5,2.5 0 0 0 1776,317.1094 L1776,292 L1766,282 L1658.5,282 A2.5,2.5 0 0 0 1656,284.5 " fill="#F1F1F1" style="stroke:#181818;stroke-width:0.5;"/><path d="M1766,282 L1766,289.5 A2.5,2.5 0 0 0 1768.5,292 L1776,292 " fill="#F1F1F1" style="stroke:#181818;stroke-width:0.5;"/><text fill="#000000" font-family="sans-serif" font-size="14" lengthAdjust="spacing" textLength="100" x="1666" y="306.5332">serverhandler.h</text></g><!--entity C_0014526408463163538724--><g id="elem_C_0014526408463163538724"><path d="M1746.5,88.5 L1746.5,121.1094 A2.5,2.5 0 0 0 1749,123.6094 L1831,123.6094 A2.5,2.5 0 0 0 1833.5,121.1094 L1833.5,96 L1823.5,86 L1749,86 A2.5,2.5 0 0 0 1746.5,88.5 " fill="#F1F1F1" style="stroke:#181818;stroke-width:0.5;"/><path d="M1823.5,86 L1823.5,93.5 A2.5,2.5 0 0 0 1826,96 L1833.5,96 " fill="#F1F1F1" style="stroke:#181818;stroke-width:0.5;"/><text fill="#000000" font-family="sans-serif" font-size="14" lengthAdjust="spacing" textLength="67" x="1756.5" y="110.5332">server.cpp</text></g><!--entity C_0002802959985742540062--><g id="elem_C_0002802959985742540062"><path d="M1591.5,186.5 L1591.5,219.1094 A2.5,2.5 0 0 0 1594,221.6094 L1724,221.6094 A2.5,2.5 0 0 0 1726.5,219.1094 L1726.5,194 L1716.5,184 L1594,184 A2.5,2.5 0 0 0 1591.5,186.5 " fill="#F1F1F1" style="stroke:#181818;stroke-width:0.5;"/><path d="M1716.5,184 L1716.5,191.5 A2.5,2.5 0 0 0 1719,194 L1726.5,194 " fill="#F1F1F1" style="stroke:#181818;stroke-width:0.5;"/><text fill="#000000" font-family="sans-serif" font-size="14" lengthAdjust="spacing" textLength="115" x="1601.5" y="208.5332">serverhandler.cpp</text></g><!--entity C_0004662975987075955962--><g id="elem_C_0004662975987075955962"><path d="M1645.5,398.5 L1645.5,431.1094 A2.5,2.5 0 0 0 1648,433.6094 L1784,433.6094 A2.5,2.5 0 0 0 1786.5,431.1094 L1786.5,406 L1776.5,396 L1648,396 A2.5,2.5 0 0 0 1645.5,398.5 " fill="#F1F1F1" style="stroke:#181818;stroke-width:0.5;"/><path d="M1776.5,396 L1776.5,403.5 A2.5,2.5 0 0 0 1779,406 L1786.5,406 " fill="#F1F1F1" style="stroke:#181818;stroke-width:0.5;"/><text fill="#000000" font-family="sans-serif" font-size="14" lengthAdjust="spacing" textLength="121" x="1655.5" y="420.5332">RequestManager.h</text></g><!--entity C_0000683983954371703321--><g id="elem_C_0000683983954371703321"><path d="M1563.5,594.5 L1563.5,627.1094 A2.5,2.5 0 0 0 1566,629.6094 L1646,629.6094 A2.5,2.5 0 0 0 1648.5,627.1094 L1648.5,602 L1638.5,592 L1566,592 A2.5,2.5 0 0 0 1563.5,594.5 " fill="#F1F1F1" style="stroke:#181818;stroke-width:0.5;"/><path d="M1638.5,592 L1638.5,599.5 A2.5,2.5 0 0 0 1641,602 L1648.5,602 " fill="#F1F1F1" style="stroke:#181818;stroke-width:0.5;"/><text fill="#000000" font-family="sans-serif" font-size="14" lengthAdjust="spacing" textLength="65" x="1573.5" y="616.5332">Request.h</text></g><!--entity C_0009705104522813573766--><g id="elem_C_0009705104522813573766"><path d="M1855,496.5 L1855,529.1094 A2.5,2.5 0 0 0 1857.5,531.6094 L1972.5,531.6094 A2.5,2.5 0 0 0 1975,529.1094 L1975,504 L1965,494 L1857.5,494 A2.5,2.5 0 0 0 1855,496.5 " fill="#F1F1F1" style="stroke:#181818;stroke-width:0.5;"/><path d="M1965,494 L1965,501.5 A2.5,2.5 0 0 0 1967.5,504 L1975,504 " fill="#F1F1F1" style="stroke:#181818;stroke-width:0.5;"/><text fill="#000000" font-family="sans-serif" font-size="14" lengthAdjust="spacing" textLength="100" x="1865" y="518.5332">LoginRequest.h</text></g><!--entity C_0002027120791438508115--><g id="elem_C_0002027120791438508115"><path d="M1612,496.5 L1612,529.1094 A2.5,2.5 0 0 0 1614.5,531.6094 L1817.5,531.6094 A2.5,2.5 0 0 0 1820,529.1094 L1820,504 L1810,494 L1614.5,494 A2.5,2.5 0 0 0 1612,496.5 " fill="#F1F1F1" style="stroke:#181818;stroke-width:0.5;"/><path d="M1810,494 L1810,501.5 A2.5,2.5 0 0 0 1812.5,504 L1820,504 " fill="#F1F1F1" style="stroke:#181818;stroke-width:0.5;"/><text fill="#000000" font-family="sans-serif" font-size="14" lengthAdjust="spacing" textLength="188" x="1622" y="518.5332">GetAccountNumberRequest.h</text></g><!--entity C_0010044431027817489945--><g id="elem_C_0010044431027817489945"><path d="M1417.5,496.5 L1417.5,529.1094 A2.5,2.5 0 0 0 1420,531.6094 L1574,531.6094 A2.5,2.5 0 0 0 1576.5,529.1094 L1576.5,504 L1566.5,494 L1420,494 A2.5,2.5 0 0 0 1417.5,496.5 " fill="#F1F1F1" style="stroke:#181818;stroke-width:0.5;"/><path d="M1566.5,494 L1566.5,501.5 A2.5,2.5 0 0 0 1569,504 L1576.5,504 " fill="#F1F1F1" style="stroke:#181818;stroke-width:0.5;"/><text fill="#000000" font-family="sans-serif" font-size="14" lengthAdjust="spacing" textLength="139" x="1427.5" y="518.5332">GetBalanceRequest.h</text></g><!--entity C_0006672437125610379356--><g id="elem_C_0006672437125610379356"><path d="M1149.5,496.5 L1149.5,529.1094 A2.5,2.5 0 0 0 1152,531.6094 L1380,531.6094 A2.5,2.5 0 0 0 1382.5,529.1094 L1382.5,504 L1372.5,494 L1152,494 A2.5,2.5 0 0 0 1149.5,496.5 " fill="#F1F1F1" style="stroke:#181818;stroke-width:0.5;"/><path d="M1372.5,494 L1372.5,501.5 A2.5,2.5 0 0 0 1375,504 L1382.5,504 " fill="#F1F1F1" style="stroke:#181818;stroke-width:0.5;"/><text fill="#000000" font-family="sans-serif" font-size="14" lengthAdjust="spacing" textLength="213" x="1159.5" y="518.5332">GetTransactionsHistoryRequest.h</text></g><!--entity C_0008063967914262038647--><g id="elem_C_0008063967914262038647"><path d="M920,496.5 L920,529.1094 A2.5,2.5 0 0 0 922.5,531.6094 L1111.5,531.6094 A2.5,2.5 0 0 0 1114,529.1094 L1114,504 L1104,494 L922.5,494 A2.5,2.5 0 0 0 920,496.5 " fill="#F1F1F1" style="stroke:#181818;stroke-width:0.5;"/><path d="M1104,494 L1104,501.5 A2.5,2.5 0 0 0 1106.5,504 L1114,504 " fill="#F1F1F1" style="stroke:#181818;stroke-width:0.5;"/><text fill="#000000" font-family="sans-serif" font-size="14" lengthAdjust="spacing" textLength="174" x="930" y="518.5332">MakeTransactionRequest.h</text></g><!--entity C_0009014951225837961074--><g id="elem_C_0009014951225837961074"><path d="M715.5,496.5 L715.5,529.1094 A2.5,2.5 0 0 0 718,531.6094 L882,531.6094 A2.5,2.5 0 0 0 884.5,529.1094 L884.5,504 L874.5,494 L718,494 A2.5,2.5 0 0 0 715.5,496.5 " fill="#F1F1F1" style="stroke:#181818;stroke-width:0.5;"/><path d="M874.5,494 L874.5,501.5 A2.5,2.5 0 0 0 877,504 L884.5,504 " fill="#F1F1F1" style="stroke:#181818;stroke-width:0.5;"/><text fill="#000000" font-family="sans-serif" font-size="14" lengthAdjust="spacing" textLength="149" x="725.5" y="518.5332">GetDatabaseRequest.h</text></g><!--entity C_0012389142519446737106--><g id="elem_C_0012389142519446737106"><path d="M497.5,496.5 L497.5,529.1094 A2.5,2.5 0 0 0 500,531.6094 L678,531.6094 A2.5,2.5 0 0 0 680.5,529.1094 L680.5,504 L670.5,494 L500,494 A2.5,2.5 0 0 0 497.5,496.5 " fill="#F1F1F1" style="stroke:#181818;stroke-width:0.5;"/><path d="M670.5,494 L670.5,501.5 A2.5,2.5 0 0 0 673,504 L680.5,504 " fill="#F1F1F1" style="stroke:#181818;stroke-width:0.5;"/><text fill="#000000" font-family="sans-serif" font-size="14" lengthAdjust="spacing" textLength="163" x="507.5" y="518.5332">CreateNewUserRequest.h</text></g><!--entity C_0017998885070914382401--><g id="elem_C_0017998885070914382401"><path d="M307.5,496.5 L307.5,529.1094 A2.5,2.5 0 0 0 310,531.6094 L460,531.6094 A2.5,2.5 0 0 0 462.5,529.1094 L462.5,504 L452.5,494 L310,494 A2.5,2.5 0 0 0 307.5,496.5 " fill="#F1F1F1" style="stroke:#181818;stroke-width:0.5;"/><path d="M452.5,494 L452.5,501.5 A2.5,2.5 0 0 0 455,504 L462.5,504 " fill="#F1F1F1" style="stroke:#181818;stroke-width:0.5;"/><text fill="#000000" font-family="sans-serif" font-size="14" lengthAdjust="spacing" textLength="135" x="317.5" y="518.5332">DeleteUserRequest.h</text></g><!--entity C_0011687987665606014223--><g id="elem_C_0011687987665606014223"><path d="M2603.5,496.5 L2603.5,529.1094 A2.5,2.5 0 0 0 2606,531.6094 L2760,531.6094 A2.5,2.5 0 0 0 2762.5,529.1094 L2762.5,504 L2752.5,494 L2606,494 A2.5,2.5 0 0 0 2603.5,496.5 " fill="#F1F1F1" style="stroke:#181818;stroke-width:0.5;"/><path d="M2752.5,494 L2752.5,501.5 A2.5,2.5 0 0 0 2755,504 L2762.5,504 " fill="#F1F1F1" style="stroke:#181818;stroke-width:0.5;"/><text fill="#000000" font-family="sans-serif" font-size="14" lengthAdjust="spacing" textLength="139" x="2613.5" y="518.5332">UpdateUserRequest.h</text></g><!--entity C_0011066283835893554674--><g id="elem_C_0011066283835893554674"><path d="M2436,496.5 L2436,529.1094 A2.5,2.5 0 0 0 2438.5,531.6094 L2565.5,531.6094 A2.5,2.5 0 0 0 2568,529.1094 L2568,504 L2558,494 L2438.5,494 A2.5,2.5 0 0 0 2436,496.5 " fill="#F1F1F1" style="stroke:#181818;stroke-width:0.5;"/><path d="M2558,494 L2558,501.5 A2.5,2.5 0 0 0 2560.5,504 L2568,504 " fill="#F1F1F1" style="stroke:#181818;stroke-width:0.5;"/><text fill="#000000" font-family="sans-serif" font-size="14" lengthAdjust="spacing" textLength="112" x="2446" y="518.5332">UserInitRequest.h</text></g><!--entity C_0000415219272604096448--><g id="elem_C_0000415219272604096448"><path d="M2237,496.5 L2237,529.1094 A2.5,2.5 0 0 0 2239.5,531.6094 L2398.5,531.6094 A2.5,2.5 0 0 0 2401,529.1094 L2401,504 L2391,494 L2239.5,494 A2.5,2.5 0 0 0 2237,496.5 " fill="#F1F1F1" style="stroke:#181818;stroke-width:0.5;"/><path d="M2391,494 L2391,501.5 A2.5,2.5 0 0 0 2393.5,504 L2401,504 " fill="#F1F1F1" style="stroke:#181818;stroke-width:0.5;"/><text fill="#000000" font-family="sans-serif" font-size="14" lengthAdjust="spacing" textLength="144" x="2247" y="518.5332">UpdateEmailRequest.h</text></g><!--entity C_0015919083400246773521--><g id="elem_C_0015919083400246773521"><path d="M2010.5,496.5 L2010.5,529.1094 A2.5,2.5 0 0 0 2013,531.6094 L2199,531.6094 A2.5,2.5 0 0 0 2201.5,529.1094 L2201.5,504 L2191.5,494 L2013,494 A2.5,2.5 0 0 0 2010.5,496.5 " fill="#F1F1F1" style="stroke:#181818;stroke-width:0.5;"/><path d="M2191.5,494 L2191.5,501.5 A2.5,2.5 0 0 0 2194,504 L2201.5,504 " fill="#F1F1F1" style="stroke:#181818;stroke-width:0.5;"/><text fill="#000000" font-family="sans-serif" font-size="14" lengthAdjust="spacing" textLength="171" x="2020.5" y="518.5332">UpdatePasswordRequest.h</text></g><!--entity C_0005021643397729925023--><g id="elem_C_0005021643397729925023"><path d="M46,594.5 L46,627.1094 A2.5,2.5 0 0 0 48.5,629.6094 L91.5,629.6094 A2.5,2.5 0 0 0 94,627.1094 L94,602 L84,592 L48.5,592 A2.5,2.5 0 0 0 46,594.5 " fill="#F1F1F1" style="stroke:#181818;stroke-width:0.5;"/><path d="M84,592 L84,599.5 A2.5,2.5 0 0 0 86.5,602 L94,602 " fill="#F1F1F1" style="stroke:#181818;stroke-width:0.5;"/><text fill="#000000" font-family="sans-serif" font-size="14" lengthAdjust="spacing" textLength="28" x="56" y="616.5332">db.h</text></g><!--entity C_0012871275894220828006--><g id="elem_C_0012871275894220828006"><path d="M91.5,692.5 L91.5,725.1094 A2.5,2.5 0 0 0 94,727.6094 L172,727.6094 A2.5,2.5 0 0 0 174.5,725.1094 L174.5,700 L164.5,690 L94,690 A2.5,2.5 0 0 0 91.5,692.5 " fill="#F1F1F1" style="stroke:#181818;stroke-width:0.5;"/><path d="M164.5,690 L164.5,697.5 A2.5,2.5 0 0 0 167,700 L174.5,700 " fill="#F1F1F1" style="stroke:#181818;stroke-width:0.5;"/><text fill="#000000" font-family="sans-serif" font-size="14" lengthAdjust="spacing" textLength="63" x="101.5" y="714.5332">dbresult.h</text></g><!--entity C_0016013798473120276547--><g id="elem_C_0016013798473120276547"><path d="M129,594.5 L129,627.1094 A2.5,2.5 0 0 0 131.5,629.6094 L224.5,629.6094 A2.5,2.5 0 0 0 227,627.1094 L227,602 L217,592 L131.5,592 A2.5,2.5 0 0 0 129,594.5 " fill="#F1F1F1" style="stroke:#181818;stroke-width:0.5;"/><path d="M217,592 L217,599.5 A2.5,2.5 0 0 0 219.5,602 L227,602 " fill="#F1F1F1" style="stroke:#181818;stroke-width:0.5;"/><text fill="#000000" font-family="sans-serif" font-size="14" lengthAdjust="spacing" textLength="78" x="139" y="616.5332">dbresult.cpp</text></g><!--entity C_0010016149012892003898--><g id="elem_C_0010016149012892003898"><path d="M46.5,496.5 L46.5,529.1094 A2.5,2.5 0 0 0 49,531.6094 L107,531.6094 A2.5,2.5 0 0 0 109.5,529.1094 L109.5,504 L99.5,494 L49,494 A2.5,2.5 0 0 0 46.5,496.5 " fill="#F1F1F1" style="stroke:#181818;stroke-width:0.5;"/><path d="M99.5,494 L99.5,501.5 A2.5,2.5 0 0 0 102,504 L109.5,504 " fill="#F1F1F1" style="stroke:#181818;stroke-width:0.5;"/><text fill="#000000" font-family="sans-serif" font-size="14" lengthAdjust="spacing" textLength="43" x="56.5" y="518.5332">db.cpp</text></g><!--link C_0004930444100045331493 to C_0014776125144863485891--><g id="link_C_0004930444100045331493_C_0014776125144863485891"><path d="M1782.58,222.06 C1768.01,239.11 1750.1669,259.9977 1735.5269,277.1377 " fill="none" id="C_0004930444100045331493-to-C_0014776125144863485891" style="stroke:#181818;stroke-width:1.0;"/><polygon fill="#181818" points="1731.63,281.7,1740.5168,277.4545,1734.8774,277.8981,1734.4337,272.2587,1731.63,281.7" style="stroke:#181818;stroke-width:1.0;"/></g><!--link C_0014776125144863485891 to C_0004662975987075955962--><g id="link_C_0014776125144863485891_C_0004662975987075955962"><path d="M1716,320.49 C1716,341.37 1716,369.12 1716,389.85 " fill="none" id="C_0014776125144863485891-to-C_0004662975987075955962" style="stroke:#181818;stroke-width:1.0;"/><polygon fill="#181818" points="1716,395.85,1720,386.85,1716,390.85,1712,386.85,1716,395.85" style="stroke:#181818;stroke-width:1.0;"/></g><!--link C_0014526408463163538724 to C_0004930444100045331493--><g id="link_C_0014526408463163538724_C_0004930444100045331493"><path d="M1791.5,124.06 C1792.93,141.11 1794.5546,160.5805 1795.9746,177.7205 " fill="none" id="C_0014526408463163538724-to-C_0004930444100045331493" style="stroke:#181818;stroke-width:1.0;"/><polygon fill="#181818" points="1796.47,183.7,1799.7133,174.4005,1796.0572,178.7171,1791.7406,175.061,1796.47,183.7" style="stroke:#181818;stroke-width:1.0;"/></g><!--link C_0002802959985742540062 to C_0014776125144863485891--><g id="link_C_0002802959985742540062_C_0014776125144863485891"><path d="M1669.72,222.06 C1679.85,239.11 1691.8983,259.4 1702.0683,276.54 " fill="none" id="C_0002802959985742540062-to-C_0014776125144863485891" style="stroke:#181818;stroke-width:1.0;"/><polygon fill="#181818" points="1705.13,281.7,1703.9775,271.9188,1702.5786,277.4,1697.0974,276.0011,1705.13,281.7" style="stroke:#181818;stroke-width:1.0;"/></g><!--link C_0004662975987075955962 to C_0000683983954371703321--><g id="link_C_0004662975987075955962_C_0000683983954371703321"><path d="M1786.88,415.59 C2019.3,414.59 2745.46,414.34 2780,450 C2805.36,476.18 2804.9,505.39 2780,532 C2740.55,574.16 1860.8074,602.5232 1654.6174,608.6032 " fill="none" id="C_0004662975987075955962-to-C_0000683983954371703321" style="stroke:#181818;stroke-width:1.0;"/><polygon fill="#181818" points="1648.62,608.78,1657.734,612.513,1653.6178,608.6326,1657.4982,604.5165,1648.62,608.78" style="stroke:#181818;stroke-width:1.0;"/></g><!--link C_0004662975987075955962 to C_0009705104522813573766--><g id="link_C_0004662975987075955962_C_0009705104522813573766"><path d="M1786.56,430.44 C1803.91,435.38 1822.06,441.81 1838,450 C1860.29,461.46 1877.8286,475.9001 1892.5386,489.7301 " fill="none" id="C_0004662975987075955962-to-C_0009705104522813573766" style="stroke:#181818;stroke-width:1.0;"/><polygon fill="#181818" points="1896.91,493.84,1893.0928,484.7609,1893.2672,490.4151,1887.613,490.5894,1896.91,493.84" style="stroke:#181818;stroke-width:1.0;"/></g><!--link C_0004662975987075955962 to C_0002027120791438508115--><g id="link_C_0004662975987075955962_C_0002027120791438508115"><path d="M1716,434.06 C1716,451.11 1716,470.56 1716,487.7 " fill="none" id="C_0004662975987075955962-to-C_0002027120791438508115" style="stroke:#181818;stroke-width:1.0;"/><polygon fill="#181818" points="1716,493.7,1720,484.7,1716,488.7,1712,484.7,1716,493.7" style="stroke:#181818;stroke-width:1.0;"/></g><!--link C_0004662975987075955962 to C_0010044431027817489945--><g id="link_C_0004662975987075955962_C_0010044431027817489945"><path d="M1645.36,432.14 C1628.52,436.99 1610.85,442.94 1595,450 C1568.33,461.88 1545.3176,476.7098 1526.1476,490.3598 " fill="none" id="C_0004662975987075955962-to-C_0010044431027817489945" style="stroke:#181818;stroke-width:1.0;"/><polygon fill="#181818" points="1521.26,493.84,1530.9115,491.8781,1525.333,490.9398,1526.2712,485.3613,1521.26,493.84" style="stroke:#181818;stroke-width:1.0;"/></g><!--link C_0004662975987075955962 to C_0006672437125610379356--><g id="link_C_0004662975987075955962_C_0006672437125610379356"><path d="M1645.42,417.05 C1580.56,419.54 1482.29,427.2 1400,450 C1363.19,460.2 1329.1131,476.6674 1302.6431,491.0374 " fill="none" id="C_0004662975987075955962-to-C_0006672437125610379356" style="stroke:#181818;stroke-width:1.0;"/><polygon fill="#181818" points="1297.37,493.9,1307.188,493.1214,1301.7642,491.5145,1303.3712,486.0907,1297.37,493.9" style="stroke:#181818;stroke-width:1.0;"/></g><!--link C_0004662975987075955962 to C_0008063967914262038647--><g id="link_C_0004662975987075955962_C_0008063967914262038647"><path d="M1645.47,416.3 C1511.81,417.49 1226.53,423.19 1132,450 C1099.05,459.34 1069.9735,475.9439 1047.5535,490.6839 " fill="none" id="C_0004662975987075955962-to-C_0008063967914262038647" style="stroke:#181818;stroke-width:1.0;"/><polygon fill="#181818" points="1042.54,493.98,1052.2577,492.3781,1046.7179,491.2332,1047.8629,485.6934,1042.54,493.98" style="stroke:#181818;stroke-width:1.0;"/></g><!--link C_0004662975987075955962 to C_0009014951225837961074--><g id="link_C_0004662975987075955962_C_0009014951225837961074"><path d="M1645.41,416.95 C1460.77,419.73 972.97,428.98 903,450 C872.82,459.07 847.2075,475.4201 827.3475,490.2501 " fill="none" id="C_0004662975987075955962-to-C_0009014951225837961074" style="stroke:#181818;stroke-width:1.0;"/><polygon fill="#181818" points="822.54,493.84,832.1446,491.6601,826.5463,490.8484,827.358,485.2501,822.54,493.84" style="stroke:#181818;stroke-width:1.0;"/></g><!--link C_0004662975987075955962 to C_0012389142519446737106--><g id="link_C_0004662975987075955962_C_0012389142519446737106"><path d="M1645.26,416.4 C1429.4,417.9 788.35,424.48 698,450 C666.36,458.94 639.0357,475.4454 617.9057,490.3254 " fill="none" id="C_0004662975987075955962-to-C_0012389142519446737106" style="stroke:#181818;stroke-width:1.0;"/><polygon fill="#181818" points="613,493.78,622.6616,491.8685,617.0881,490.9011,618.0554,485.3276,613,493.78" style="stroke:#181818;stroke-width:1.0;"/></g><!--link C_0004662975987075955962 to C_0017998885070914382401--><g id="link_C_0004662975987075955962_C_0017998885070914382401"><path d="M1645.15,415.7 C1399.16,414.99 590.96,415.33 480,450 C451.61,458.87 428.2987,475.0445 410.1487,489.9345 " fill="none" id="C_0004662975987075955962-to-C_0017998885070914382401" style="stroke:#181818;stroke-width:1.0;"/><polygon fill="#181818" points="405.51,493.74,415.0051,491.1242,409.3756,490.5687,409.9311,484.9392,405.51,493.74" style="stroke:#181818;stroke-width:1.0;"/></g><!--link C_0004662975987075955962 to C_0011687987665606014223--><g id="link_C_0004662975987075955962_C_0011687987665606014223"><path d="M1786.63,416.64 C1980.37,418.69 2510.77,426.41 2586,450 C2614.8,459.03 2638.6809,475.2368 2657.2709,490.0768 " fill="none" id="C_0004662975987075955962-to-C_0011687987665606014223" style="stroke:#181818;stroke-width:1.0;"/><polygon fill="#181818" points="2661.96,493.82,2657.4218,485.079,2658.0524,490.7006,2652.4308,491.3312,2661.96,493.82" style="stroke:#181818;stroke-width:1.0;"/></g><!--link C_0004662975987075955962 to C_0011066283835893554674--><g id="link_C_0004662975987075955962_C_0011066283835893554674"><path d="M1786.72,417.08 C1953.29,419.95 2360.68,429.04 2419,450 C2444.56,459.18 2464.4846,474.9732 2480.1046,489.7732 " fill="none" id="C_0004662975987075955962-to-C_0011066283835893554674" style="stroke:#181818;stroke-width:1.0;"/><polygon fill="#181818" points="2484.46,493.9,2480.6781,484.8062,2480.8305,490.461,2475.1757,490.6134,2484.46,493.9" style="stroke:#181818;stroke-width:1.0;"/></g><!--link C_0004662975987075955962 to C_0000415219272604096448--><g id="link_C_0004662975987075955962_C_0000415219272604096448"><path d="M1786.56,416.58 C1905.5,418.26 2140.57,424.77 2219,450 C2248.17,459.38 2272.7163,475.4252 2291.9963,490.1052 " fill="none" id="C_0004662975987075955962-to-C_0000415219272604096448" style="stroke:#181818;stroke-width:1.0;"/><polygon fill="#181818" points="2296.77,493.74,2292.0326,485.1054,2292.7919,490.711,2287.1862,491.4703,2296.77,493.74" style="stroke:#181818;stroke-width:1.0;"/></g><!--link C_0004662975987075955962 to C_0015919083400246773521--><g id="link_C_0004662975987075955962_C_0015919083400246773521"><path d="M1786.73,417.34 C1843.67,420.15 1925.1,428.1 1993,450 C2024.73,460.23 2052.7788,476.2909 2074.8788,490.6509 " fill="none" id="C_0004662975987075955962-to-C_0015919083400246773521" style="stroke:#181818;stroke-width:1.0;"/><polygon fill="#181818" points="2079.91,493.92,2074.5426,485.6622,2075.7173,491.1957,2070.1838,492.3704,2079.91,493.92" style="stroke:#181818;stroke-width:1.0;"/></g><!--link C_0000683983954371703321 to C_0005021643397729925023--><g id="link_C_0000683983954371703321_C_0005021643397729925023"><path d="M1563.36,608.93 C1394.13,600.85 753.32,571.36 225.5,562 C182.84,561.24 169.66,547.59 129.5,562 C112.87,567.96 101.7894,576.5442 90.8694,587.5842 " fill="none" id="C_0000683983954371703321-to-C_0005021643397729925023" style="stroke:#181818;stroke-width:1.0;"/><polygon fill="#181818" points="86.65,591.85,95.8229,588.2643,90.1662,588.2952,90.1353,582.6384,86.65,591.85" style="stroke:#181818;stroke-width:1.0;"/></g><!--link C_0009705104522813573766 to C_0000683983954371703321--><g id="link_C_0009705104522813573766_C_0000683983954371703321"><path d="M1856.88,532.06 C1796.39,550.85 1708.8098,578.0599 1654.6698,594.8799 " fill="none" id="C_0009705104522813573766-to-C_0000683983954371703321" style="stroke:#181818;stroke-width:1.0;"/><polygon fill="#181818" points="1648.94,596.66,1658.7215,597.8097,1653.7149,595.1766,1656.348,590.1699,1648.94,596.66" style="stroke:#181818;stroke-width:1.0;"/></g><!--link C_0009705104522813573766 to C_0005021643397729925023--><g id="link_C_0009705104522813573766_C_0005021643397729925023"><path d="M1854.68,529.27 C1849.07,530.34 1843.44,531.28 1838,532 C1457.56,582.59 486.55,508.31 112,592 C106.12,593.31 105.5668,593.1525 99.9168,595.4825 " fill="none" id="C_0009705104522813573766-to-C_0005021643397729925023" style="stroke:#181818;stroke-width:1.0;"/><polygon fill="#181818" points="94.37,597.77,104.2152,598.0367,98.9924,595.8638,101.1653,590.6409,94.37,597.77" style="stroke:#181818;stroke-width:1.0;"/></g><!--link C_0002027120791438508115 to C_0000683983954371703321--><g id="link_C_0002027120791438508115_C_0000683983954371703321"><path d="M1695.31,532.06 C1675.77,549.11 1651.1196,570.6137 1631.4896,587.7537 " fill="none" id="C_0002027120791438508115-to-C_0000683983954371703321" style="stroke:#181818;stroke-width:1.0;"/><polygon fill="#181818" points="1626.97,591.7,1636.3803,588.7936,1630.7363,588.4114,1631.1185,582.7675,1626.97,591.7" style="stroke:#181818;stroke-width:1.0;"/></g><!--link C_0002027120791438508115 to C_0005021643397729925023--><g id="link_C_0002027120791438508115_C_0005021643397729925023"><path d="M1611.93,530.11 C1605.87,530.81 1599.86,531.45 1594,532 C1265.84,562.76 433.47,519.21 112,592 C106.12,593.33 105.5783,593.176 99.9183,595.506 " fill="none" id="C_0002027120791438508115-to-C_0005021643397729925023" style="stroke:#181818;stroke-width:1.0;"/><polygon fill="#181818" points="94.37,597.79,104.2151,598.0628,98.9936,595.8867,101.1697,590.6651,94.37,597.79" style="stroke:#181818;stroke-width:1.0;"/></g><!--link C_0010044431027817489945 to C_0000683983954371703321--><g id="link_C_0010044431027817489945_C_0000683983954371703321"><path d="M1517.5,532.06 C1536.87,549.11 1561.2575,570.5943 1580.7175,587.7343 " fill="none" id="C_0010044431027817489945-to-C_0000683983954371703321" style="stroke:#181818;stroke-width:1.0;"/><polygon fill="#181818" points="1585.22,591.7,1581.11,582.7497,1581.4679,588.3952,1575.8224,588.7531,1585.22,591.7" style="stroke:#181818;stroke-width:1.0;"/></g><!--link C_0010044431027817489945 to C_0005021643397729925023--><g id="link_C_0010044431027817489945_C_0005021643397729925023"><path d="M1417.47,529.66 C1411.57,530.55 1405.7,531.34 1400,532 C830.72,597.77 670.53,463.74 112,592 C106.12,593.35 105.5734,593.1842 99.9234,595.5242 " fill="none" id="C_0010044431027817489945-to-C_0005021643397729925023" style="stroke:#181818;stroke-width:1.0;"/><polygon fill="#181818" points="94.38,597.82,104.2256,598.0718,98.9995,595.9068,101.1645,590.6806,94.38,597.82" style="stroke:#181818;stroke-width:1.0;"/></g><!--link C_0006672437125610379356 to C_0000683983954371703321--><g id="link_C_0006672437125610379356_C_0000683983954371703321"><path d="M1329.95,532.06 C1398.24,551.34 1498.7659,579.7191 1557.5359,596.3191 " fill="none" id="C_0006672437125610379356-to-C_0000683983954371703321" style="stroke:#181818;stroke-width:1.0;"/><polygon fill="#181818" points="1563.31,597.95,1555.7362,591.6542,1558.4983,596.5909,1553.5616,599.353,1563.31,597.95" style="stroke:#181818;stroke-width:1.0;"/></g><!--link C_0006672437125610379356 to C_0005021643397729925023--><g id="link_C_0006672437125610379356_C_0005021643397729925023"><path d="M1149.49,530.18 C1143.58,530.84 1137.72,531.45 1132,532 C679.98,575.59 553.97,487.67 112,592 C106.13,593.39 105.5948,593.2376 99.9348,595.5776 " fill="none" id="C_0006672437125610379356-to-C_0005021643397729925023" style="stroke:#181818;stroke-width:1.0;"/><polygon fill="#181818" points="94.39,597.87,104.2355,598.128,99.0107,595.9597,101.179,590.7349,94.39,597.87" style="stroke:#181818;stroke-width:1.0;"/></g><!--link C_0008063967914262038647 to C_0000683983954371703321--><g id="link_C_0008063967914262038647_C_0000683983954371703321"><path d="M1114.26,529.85 C1244.47,551.07 1463.9582,586.8445 1557.4882,602.0945 " fill="none" id="C_0008063967914262038647-to-C_0000683983954371703321" style="stroke:#181818;stroke-width:1.0;"/><polygon fill="#181818" points="1563.41,603.06,1555.171,597.6638,1558.4752,602.2554,1553.8836,605.5595,1563.41,603.06" style="stroke:#181818;stroke-width:1.0;"/></g><!--link C_0008063967914262038647 to C_0005021643397729925023--><g id="link_C_0008063967914262038647_C_0005021643397729925023"><path d="M919.82,529.77 C913.8,530.57 907.82,531.32 902,532 C552.23,572.59 454,508.18 112,592 C106.14,593.44 105.5999,593.2958 99.9499,595.6458 " fill="none" id="C_0008063967914262038647-to-C_0005021643397729925023" style="stroke:#181818;stroke-width:1.0;"/><polygon fill="#181818" points="94.41,597.95,104.256,598.187,99.0266,596.0298,101.1837,590.8004,94.41,597.95" style="stroke:#181818;stroke-width:1.0;"/></g><!--link C_0009014951225837961074 to C_0000683983954371703321--><g id="link_C_0009014951225837961074_C_0000683983954371703321"><path d="M884.53,529.21 C890.77,530.2 896.98,531.14 903,532 C1152.51,567.61 1447.8546,595.7173 1557.5146,605.6773 " fill="none" id="C_0009014951225837961074-to-C_0000683983954371703321" style="stroke:#181818;stroke-width:1.0;"/><polygon fill="#181818" points="1563.49,606.22,1554.8887,601.4223,1558.5105,605.7677,1554.1651,609.3895,1563.49,606.22" style="stroke:#181818;stroke-width:1.0;"/></g><!--link C_0009014951225837961074 to C_0005021643397729925023--><g id="link_C_0009014951225837961074_C_0005021643397729925023"><path d="M715.47,529.4 C709.57,530.33 703.7,531.21 698,532 C438.7,568.11 365.44,526.35 112,592 C106.16,593.51 105.6299,593.4058 99.9799,595.7558 " fill="none" id="C_0009014951225837961074-to-C_0005021643397729925023" style="stroke:#181818;stroke-width:1.0;"/><polygon fill="#181818" points="94.44,598.06,104.286,598.297,99.0566,596.1398,101.2137,590.9104,94.44,598.06" style="stroke:#181818;stroke-width:1.0;"/></g><!--link C_0012389142519446737106 to C_0000683983954371703321--><g id="link_C_0012389142519446737106_C_0000683983954371703321"><path d="M680.51,529.64 C686.42,530.49 692.29,531.28 698,532 C1030.04,573.61 1427.2108,599.3505 1557.3408,607.1605 " fill="none" id="C_0012389142519446737106-to-C_0000683983954371703321" style="stroke:#181818;stroke-width:1.0;"/><polygon fill="#181818" points="1563.33,607.52,1554.5858,602.988,1558.339,607.2205,1554.1065,610.9736,1563.33,607.52" style="stroke:#181818;stroke-width:1.0;"/></g><!--link C_0012389142519446737106 to C_0005021643397729925023--><g id="link_C_0012389142519446737106_C_0005021643397729925023"><path d="M497.42,529.14 C491.52,530.11 485.68,531.07 480,532 C316.47,558.83 271.11,545.69 112,592 C106.06,593.73 105.3745,593.7628 99.5945,596.1828 " fill="none" id="C_0012389142519446737106-to-C_0005021643397729925023" style="stroke:#181818;stroke-width:1.0;"/><polygon fill="#181818" points="94.06,598.5,103.9065,598.7138,98.6721,596.569,100.8169,591.3345,94.06,598.5" style="stroke:#181818;stroke-width:1.0;"/></g><!--link C_0017998885070914382401 to C_0000683983954371703321--><g id="link_C_0017998885070914382401_C_0000683983954371703321"><path d="M462.65,529.49 C468.51,530.42 474.34,531.27 480,532 C900.27,586.18 1407.9926,604.3042 1557.3926,608.6842 " fill="none" id="C_0017998885070914382401-to-C_0000683983954371703321" style="stroke:#181818;stroke-width:1.0;"/><polygon fill="#181818" points="1563.39,608.86,1554.5111,604.598,1558.3921,608.7135,1554.2766,612.5945,1563.39,608.86" style="stroke:#181818;stroke-width:1.0;"/></g><!--link C_0017998885070914382401 to C_0005021643397729925023--><g id="link_C_0017998885070914382401_C_0005021643397729925023"><path d="M312.36,532.07 C256.9,546.51 178.88,568.22 112,592 C106.17,594.07 105.5128,594.205 99.7428,596.655 " fill="none" id="C_0017998885070914382401-to-C_0005021643397729925023" style="stroke:#181818;stroke-width:1.0;"/><polygon fill="#181818" points="94.22,599,104.0675,599.1643,98.8223,597.0458,100.9408,591.8006,94.22,599" style="stroke:#181818;stroke-width:1.0;"/></g><!--link C_0011687987665606014223 to C_0000683983954371703321--><g id="link_C_0011687987665606014223_C_0000683983954371703321"><path d="M2603.44,529.45 C2597.55,530.38 2591.69,531.25 2586,532 C2225.17,579.71 1791.454,601.7914 1654.664,607.9214 " fill="none" id="C_0011687987665606014223-to-C_0000683983954371703321" style="stroke:#181818;stroke-width:1.0;"/><polygon fill="#181818" points="1648.67,608.19,1657.84,611.7831,1653.665,607.9662,1657.4819,603.7911,1648.67,608.19" style="stroke:#181818;stroke-width:1.0;"/></g><!--link C_0011687987665606014223 to C_0005021643397729925023--><g id="link_C_0011687987665606014223_C_0005021643397729925023"><path d="M2603.48,529.81 C2597.58,530.66 2591.71,531.41 2586,532 C2039.02,589.02 649.33,474.9 112,592 C106.11,593.28 105.5568,593.1025 99.9068,595.4325 " fill="none" id="C_0011687987665606014223-to-C_0005021643397729925023" style="stroke:#181818;stroke-width:1.0;"/><polygon fill="#181818" points="94.36,597.72,104.2052,597.9867,98.9824,595.8138,101.1553,590.5909,94.36,597.72" style="stroke:#181818;stroke-width:1.0;"/></g><!--link C_0011066283835893554674 to C_0000683983954371703321--><g id="link_C_0011066283835893554674_C_0000683983954371703321"><path d="M2435.99,529.05 C2430.26,530.13 2424.54,531.14 2419,532 C2126.19,577.63 1775.5901,600.3961 1654.5301,607.3461 " fill="none" id="C_0011066283835893554674-to-C_0000683983954371703321" style="stroke:#181818;stroke-width:1.0;"/><polygon fill="#181818" points="1648.54,607.69,1657.7545,611.1676,1653.5318,607.4034,1657.2959,603.1807,1648.54,607.69" style="stroke:#181818;stroke-width:1.0;"/></g><!--link C_0011066283835893554674 to C_0005021643397729925023--><g id="link_C_0011066283835893554674_C_0005021643397729925023"><path d="M2435.59,529.55 C2430,530.51 2424.42,531.35 2419,532 C1909.83,593.28 612.98,482.36 112,592 C106.11,593.29 105.5683,593.116 99.9083,595.446 " fill="none" id="C_0011066283835893554674-to-C_0005021643397729925023" style="stroke:#181818;stroke-width:1.0;"/><polygon fill="#181818" points="94.36,597.73,104.2051,598.0028,98.9836,595.8267,101.1597,590.6051,94.36,597.73" style="stroke:#181818;stroke-width:1.0;"/></g><!--link C_0000415219272604096448 to C_0000683983954371703321--><g id="link_C_0000415219272604096448_C_0000683983954371703321"><path d="M2236.93,529.12 C2230.87,530.13 2224.84,531.1 2219,532 C2005.6,564.76 1754.8434,593.5583 1654.8034,604.6583 " fill="none" id="C_0000415219272604096448-to-C_0000683983954371703321" style="stroke:#181818;stroke-width:1.0;"/><polygon fill="#181818" points="1648.84,605.32,1658.2262,608.3031,1653.8095,604.7686,1657.344,600.3519,1648.84,605.32" style="stroke:#181818;stroke-width:1.0;"/></g><!--link C_0000415219272604096448 to C_0005021643397729925023--><g id="link_C_0000415219272604096448_C_0005021643397729925023"><path d="M2236.74,529.81 C2230.75,530.66 2224.79,531.4 2219,532 C1753.08,580.29 569.46,491.3 112,592 C106.11,593.3 105.5683,593.126 99.9083,595.456 " fill="none" id="C_0000415219272604096448-to-C_0005021643397729925023" style="stroke:#181818;stroke-width:1.0;"/><polygon fill="#181818" points="94.36,597.74,104.2051,598.0128,98.9836,595.8367,101.1597,590.6151,94.36,597.74" style="stroke:#181818;stroke-width:1.0;"/></g><!--link C_0015919083400246773521 to C_0000683983954371703321--><g id="link_C_0015919083400246773521_C_0000683983954371703321"><path d="M2012.25,532 C1903.52,552.88 1734.8825,585.2591 1654.6925,600.6491 " fill="none" id="C_0015919083400246773521-to-C_0000683983954371703321" style="stroke:#181818;stroke-width:1.0;"/><polygon fill="#181818" points="1648.8,601.78,1658.3926,604.012,1653.7104,600.8376,1656.8848,596.1554,1648.8,601.78" style="stroke:#181818;stroke-width:1.0;"/></g><!--link C_0015919083400246773521 to C_0005021643397729925023--><g id="link_C_0015919083400246773521_C_0005021643397729925023"><path d="M2010.24,530.11 C2004.42,530.82 1998.64,531.46 1993,532 C1576.67,571.64 520.28,501.39 112,592 C106.11,593.31 105.5683,593.136 99.9083,595.466 " fill="none" id="C_0015919083400246773521-to-C_0005021643397729925023" style="stroke:#181818;stroke-width:1.0;"/><polygon fill="#181818" points="94.36,597.75,104.2051,598.0228,98.9836,595.8467,101.1597,590.6251,94.36,597.75" style="stroke:#181818;stroke-width:1.0;"/></g><!--link C_0005021643397729925023 to C_0012871275894220828006--><g id="link_C_0005021643397729925023_C_0012871275894220828006"><path d="M81.2,630.07 C89.54,643.41 101.29,661.96 112,678 C114.54,681.81 113.8887,680.928 116.5587,684.758 " fill="none" id="C_0005021643397729925023-to-C_0012871275894220828006" style="stroke:#181818;stroke-width:1.0;"/><polygon fill="#181818" points="119.99,689.68,118.1244,680.0094,117.1306,685.5783,111.5617,684.5845,119.99,689.68" style="stroke:#181818;stroke-width:1.0;"/></g><!--link C_0016013798473120276547 to C_0012871275894220828006--><g id="link_C_0016013798473120276547_C_0012871275894220828006"><path d="M169.54,630.06 C161.54,647.11 152.1555,667.1267 144.1255,684.2667 " fill="none" id="C_0016013798473120276547-to-C_0012871275894220828006" style="stroke:#181818;stroke-width:1.0;"/><polygon fill="#181818" points="141.58,689.7,149.0204,683.247,143.7012,685.1723,141.776,679.8531,141.58,689.7" style="stroke:#181818;stroke-width:1.0;"/></g><!--link C_0010016149012892003898 to C_0005021643397729925023--><g id="link_C_0010016149012892003898_C_0005021643397729925023"><path d="M76.5,532.06 C75.07,549.11 73.4454,568.5805 72.0254,585.7205 " fill="none" id="C_0010016149012892003898-to-C_0005021643397729925023" style="stroke:#181818;stroke-width:1.0;"/><polygon fill="#181818" points="71.53,591.7,76.2594,583.061,71.9428,586.7171,68.2867,582.4005,71.53,591.7" style="stroke:#181818;stroke-width:1.0;"/></g></g></svg>